<?xml version="1.0" encoding="UTF-8"?><svg xmlns="http://www.w3.org/2000/svg" xmlns:xlink="http://www.w3.org/1999/xlink" viewBox="0 0 155.44 404.27"><defs><style>.cls-1{fill:#93c000;}.cls-1,.cls-2,.cls-3,.cls-4,.cls-5,.cls-6,.cls-7,.cls-8,.cls-9,.cls-10,.cls-11,.cls-12,.cls-13,.cls-14,.cls-15{fill-rule:evenodd;}.cls-16,.cls-3{fill:#fff;}.cls-2,.cls-17{fill:#684d73;}.cls-18{fill:aqua;}.cls-19{fill:url(#_Áåçûìÿííûé_ãðàäèåíò_78);}.cls-20{fill:url(#_Áåçûìÿííûé_ãðàäèåíò_141-2);}.cls-21{isolation:isolate;}.cls-22{fill:url(#_Áåçûìÿííûé_ãðàäèåíò_141);}.cls-4{fill:url(#_Áåçûìÿííûé_ãðàäèåíò_36);}.cls-4,.cls-13{mix-blend-mode:multiply;}.cls-5{fill:#464013;}.cls-6{opacity:.3;}.cls-6,.cls-11{fill:#3a4013;}.cls-7{fill:#cab3da;}.cls-23{fill:#78952e;}.cls-24{fill:url(#_Áåçûìÿííûé_ãðàäèåíò_78-3);}.cls-25,.cls-10{fill:#556313;}.cls-8{fill:#939513;}.cls-9{fill:#b5d13d;}.cls-26{fill:url(#_Áåçûìÿííûé_ãðàäèåíò_67);}.cls-12{fill:#f4e600;}.cls-13{opacity:.5;}.cls-13,.cls-27{fill:#53345f;}.cls-28{fill:url(#_Áåçûìÿííûé_ãðàäèåíò_78-2);}.cls-14{fill:url(#_Áåçûìÿííûé_ãðàäèåíò_136-2);}.cls-15{fill:url(#_Áåçûìÿííûé_ãðàäèåíò_136);}.cls-29{fill:#485237;}</style><linearGradient id="_Áåçûìÿííûé_ãðàäèåíò_78" x1="6.19" y1="219.98" x2="63.78" y2="219.98" gradientUnits="userSpaceOnUse"><stop offset="0" stop-color="#486600"/><stop offset="1" stop-color="#819f00"/></linearGradient><linearGradient id="_Áåçûìÿííûé_ãðàäèåíò_67" x1="77.72" y1="200.06" x2="77.72" y2="34.74" gradientUnits="userSpaceOnUse"><stop offset="0" stop-color="#81ab00"/><stop offset="1" stop-color="#637500"/></linearGradient><linearGradient id="_Áåçûìÿííûé_ãðàäèåíò_78-2" x1="74.94" y1="398.99" x2="74.94" y2="203.04" xlink:href="#_Áåçûìÿííûé_ãðàäèåíò_78"/><linearGradient id="_Áåçûìÿííûé_ãðàäèåíò_136" x1="94.26" y1="161.07" x2="94.26" y2="108.8" gradientUnits="userSpaceOnUse"><stop offset="0" stop-color="#ffff18"/><stop offset="1" stop-color="#ff7400"/></linearGradient><linearGradient id="_Áåçûìÿííûé_ãðàäèåíò_136-2" x1="34.24" y1="166.93" x2="34.24" y2="126.07" xlink:href="#_Áåçûìÿííûé_ãðàäèåíò_136"/><linearGradient id="_Áåçûìÿííûé_ãðàäèåíò_78-3" x1="123.87" y1="323.61" x2="123.87" y2="214.85" xlink:href="#_Áåçûìÿííûé_ãðàäèåíò_78"/><linearGradient id="_Áåçûìÿííûé_ãðàäèåíò_36" x1="48.57" y1="301.4" x2="108.07" y2="301.4" gradientUnits="userSpaceOnUse"><stop offset="0" stop-color="#fff"/><stop offset="1" stop-color="#9579a7"/></linearGradient><linearGradient id="_Áåçûìÿííûé_ãðàäèåíò_141" x1="30.99" y1="95.08" x2="30.99" y2="23.55" gradientUnits="userSpaceOnUse"><stop offset="0" stop-color="#818300"/><stop offset="1" stop-color="#486618"/></linearGradient><linearGradient id="_Áåçûìÿííûé_ãðàäèåíò_141-2" x1="92.98" y1="87.24" x2="92.98" y2="3.63" xlink:href="#_Áåçûìÿííûé_ãðàäèåíò_141"/></defs><g class="cls-21"><g id="Capa_2"><g id="Capa_2-2"><g><path class="cls-19" d="M63.78,212.16l-2.42,27.06s-3.55,4.61-11.2,11.32c-6.54,5.73-11.97,6.39-11.97,6.39-18.66-5.66-27.04-39.84-27.04-39.84,0,0-4.08-1.05-4.61-2.24-.2-.46-.33-1.26-.33-2.44,0-1.84,.3-4.6,1.06-8.32,1.26-6.08,0-15.72,0-15.72,5.25,.41,7.04,8.48,7.04,8.48,1.78-3.17,2.89-5.93,3.6-8.1,.1-.25,.17-.51,.23-.78,.95-3.15,.98-4.95,.98-4.95,0,0,.02,.02,.03,.05,.38,.37,3.78,3.9,4.68,8.53,.91,4.8-2.07,12.52-2.22,12.93l5.69-4.48s1,4.35-.53,8.75c-1.51,4.4-5.76,8.23-5.76,8.23,2.31,8.96,19.34,17.86,19.34,17.86,8.02-2.44,14.48-15.19,16.35-17.71,1.89-2.51,7.09-5.03,7.09-5.03Z"/><path class="cls-26" d="M155.44,54.43c0,11.02-6.27,17.93-6.27,17.93-22.66,6.14-27.69,26.89-28.15,36.97-.03,.63,0,1.36,.08,2.17v.02c1.33,12.45,14.94,46.11,9.2,58.35-6.14,13.05-41.83,30.05-61.02,30.2-1.74,.02-3.5-.08-5.28-.3-17.76-2.01-36.19-14.11-37.33-19.84-.73-3.62,1.26-7.62,3.17-11.04,1.39-2.51,2.76-4.73,2.95-6.26,.46-3.62-3.62-34.11-4.45-39.36-.22-1.26-.3-2.69-.3-4.08v-.02c0-.35,.02-.71,.02-1.06,.08-3.98,.7-7.64,.7-7.64-8.18-11.54-26.21-13.63-26.21-13.63-7.34-17.2,3.57-22.01,3.57-22.01,6.91,20.75,24.63,29.15,24.63,29.15,41.52-28,81.26-12.8,81.26-12.8,4.91-.83,17.81-10.37,23.37-24.42,5.56-14.06,6.39-31.36,10.69-31.99,4.3-.63,9.38,8.65,9.38,19.65Z"/><path class="cls-25" d="M77.73,199.14l-.51,7.6s6.05,2.91,13.13-1.65l2.46-10.23s-10.24,3.57-15.07,4.28Z"/><path class="cls-29" d="M32.79,162.63s4.42,7.89,6.43,7.64c2.01-.25,3.35-3.71,3.35-3.71l-8.57-3.93h-1.21Z"/><path class="cls-6" d="M130.3,169.86c-6.14,13.05-41.83,30.05-61.02,30.2-1.74,.02-3.5-.08-5.28-.3,8.33-.38,24.13-1.07,44.44-14.15,35.47-22.86,8.75-31.01,8.75-31.01,0,0-16.55,16.72-41.03,5.57,0,0-15.21-12.48-23.07-11.44-7.87,1.06-7.59,17.5-10.51,21.55-2.9,4.05-12.13-1.21-12.13-1.21l-.6-.18c1.39-2.51,2.76-4.73,2.95-6.26,.46-3.62-3.62-34.11-4.45-39.36-.22-1.26-.3-2.69-.3-4.08,.43,1.38,2.92,3.57,14.52,3.25,16.8-.43,62.08-22.24,69.44-31.26,0,0,3.12,17.15,9.1,20.32v.02c1.33,12.45,14.94,46.11,9.2,58.35Z"/><path class="cls-28" d="M111.57,368.16c-.83,13.21-7.54,30.83-7.54,30.83h-6.51s-1.91-13.84-5.66-29.9l-.02-.05c-2.84-12.17-6.76-25.61-11.72-35.26l-7.55-.63s-10.87,21.75-15.9,36.25c-.7,1.99-1.28,3.83-1.71,5.48-3.57,13.63-4.61,24.1-4.61,24.1h-5.25s-6.71-38.79-6.92-48.22c-.17-7.93,5-26.88,10.39-44.42l1.66-5.33c.46-1.48,.93-2.92,1.38-4.35,6.29-19.7,10.06-32.29,10.28-36.27,.02-.22,0-.46-.02-.76-.17-5.03-3.4-20.6-2.82-27.61v-.05c.46-5.41,2.77-13.51,3.97-17.46,.45-1.44,.75-2.34,.75-2.34,0,0,12.33-6.06,13.63-8.18,0,0,10.64,1.26,13.45-.95,0,0,11.3,8.81,11.94,13.11,.4,2.76,.81,17.41,1.33,31.46,.03,.81,.05,1.63,.08,2.44,.27,6.89,.56,13.45,.9,18.19,.53,7.59,.81,15.39,1.15,22.58,.32,6.94,.65,13.33,1.26,18.43,.17,1.33,.37,3.07,.58,5.13,1.54,13.94,4.23,42.28,3.5,53.78Z"/><path class="cls-7" d="M91.87,369.09s9.57-14.84,20.97-18.53c0,0,.63,11.95-.63,20.68-1.26,8.73-8.18,27.76-8.18,27.76,0,0,8.89-1.42,14.78,4.17h-22.1l.79-3.07-5.64-31.01Z"/><path class="cls-7" d="M36.3,345.52s8.49-1.36,21.49,26.21l-7.44,27.26,.29,1.57-21.86,.55s3.38-5.35,15.25-4.32c0,0-7.52-30.72-7.73-51.27Z"/><path class="cls-7" d="M11.14,217.09s4.67,1.99,9.86-.05c0,0,10.38,14.01,19.34,17.86,0,0,6.23,15.8-2.15,31.05,0,0-19.71-15.41-27.04-48.86Z"/><path class="cls-15" d="M77.21,159.32s12.97,3.93,22.41,0c9.44-3.93,14.58-13.09,15.25-17.93,1.26-8.96-5.5-31.61-14.15-32.55-8.65-.94-37.41,14.37-23.51,50.48Z"/><path class="cls-14" d="M32.79,162.63s4.92,5.82,9.77,3.93c0,0,.71-24.84-13.81-40.49,0,0-8.54,23.98,4.04,36.56Z"/><path class="cls-1" d="M93.84,294.67c-1.48,10.51-5.64,20.05-14.82,24.12-11.54,5.13-25.95-5.78-27.41-22.13,6.29-19.7,10.06-32.29,10.28-36.27,.02-.22,0-.46-.02-.76-.17-5.03-3.4-20.6-2.82-27.61v-.05c.46-5.41,2.77-13.51,3.97-17.46,3.7-.9,14.21-2.77,21.99-.45,.46,.15,.91,.3,1.34,.48,1.59,.6,3.04,1.41,4.25,2.49,6.14,5.51-.75,32.6,2.19,48.74,1.44,7.9,2.47,18.84,1.05,28.9Z"/><path class="cls-7" d="M53.41,291.02s15.39,12.33,52.82,0l1.59,21.03s-.95-1.87-5.98,0c-5.04,1.87-21.7,21.74-21.7,21.74l-7.55-.63s-18.42-11.85-22.34-32.14l3.17-10Z"/><path class="cls-10" d="M46.99,171.17s3.88,.1,9.54-1.05c5.66-1.15,9.96-3.19,9.96-3.19l2.31,.88s-6.4,3.15-8.18,6.5c0,0-1.05,1.05-5.03,1.36s-8.6-4.51-8.6-4.51Z"/><path class="cls-5" d="M61.79,172.74s1.56-4.43,4.6-3.57l-4.6,3.57Z"/><path class="cls-5" d="M48.83,181.5s.8,1.83,2.78,2.78c1.99,.94,7.62,2.57,18.21-.26,10.59-2.83,18.79-13.12,18.79-13.12h2.2s-1.97-1.43-5.81,0l2.4,.42s-7.04,9.05-20.08,11.97c-15.94,3.56-18.5-1.78-18.5-1.78Z"/><path class="cls-16" d="M96.35,121.82s2.66,1.83,4.31,4.96l4.25-3.54s-2.78-4.8-5.61-5.13l-2.94,3.71Z"/><polygon class="cls-16" points="32.32 136.99 34.24 140.77 35.67 140.03 33.36 135.84 32.32 136.99"/><path class="cls-23" d="M73.48,143.91s-3.66-36.83,33.24-30.9c0,0-3.22-6.42-9.72-5.9-6.5,.52-24.5,10.17-23.52,36.8Z"/><path class="cls-23" d="M27.06,132.48s7.18-5.71,12.16,12.37c0,0-3.87-16.36-11-22.41l-1.16,10.04Z"/><path class="cls-29" d="M81.53,160.31s7.71,2.32,16.05,1.37c8.33-.94,15.15-14.4,15.15-14.4,0,0-9.74,16.99-31.2,13.02Z"/><path class="cls-11" d="M147.01,36.97c-2.66-.57-4.19,10.48-3.04,19.61,1.15,9.12,3.56,11.79,5.45,12.27,1.89,.48,5.57-8.96,4.97-16.58-.7-8.85-4.55-14.68-7.38-15.29Z"/><path class="cls-27" d="M68.18,241.12c-5.55,0-8.88-1.37-8.95-1.4l.16-.38c.14,.06,14.53,5.97,33.66-7.22l.24,.34c-10.14,6.99-18.98,8.66-25.11,8.66Z"/><path class="cls-27" d="M75.22,264.4c-9,0-13.4-3.79-13.46-3.85l.28-.31c.1,.09,9.79,8.41,30.08-.04l.16,.38c-6.86,2.86-12.53,3.81-17.05,3.81Z"/><path class="cls-27" d="M77.39,283.05c-14.99,0-19.43-6.1-19.66-6.44l.34-.24c.07,.11,7.71,10.54,36.41,4.16l.09,.41c-6.87,1.53-12.53,2.12-17.18,2.12Z"/><path class="cls-25" d="M130.03,295.41s-8.31,12.37-4.93,18.98l4.93-6.21,.5-12.76h-.5Z"/><path class="cls-24" d="M102.34,214.85c-2.71,1.4-5.54,7.69-3.24,21.11,2.31,13.42,11.01,22.96,17.19,31.35,6.19,8.39,13.84,23.59,13.73,28.1-.1,4.51-.94,13.42,0,17.82,.94,4.4,2.83,10.38,2.83,10.38,0,0,8.28-6.61,5.35-15.73l11.22,9.65s.73-7.44-2.52-13.11c-3.25-5.66-7.65-11.01-8.28-14.36-.63-3.36,.21-29.04-5.24-37.43-5.45-8.39-13.94-14.78-19.29-19.82-5.35-5.03-11.76-17.97-11.76-17.97Z"/><path class="cls-7" d="M130.03,295.41s4.19-5.03,8.6-5.35c0,0,1.99-28.62-1.89-38.37-3.88-9.75-5.77-12.16-5.77-12.16,0,0-15.75,11.73-15.58,26.57,0,0,10.44,16.41,14.64,29.31Z"/><path class="cls-13" d="M115.39,266.1s13.75,14.1,14.64,29.31c0,0-4.04-12.11-14.64-29.31Z"/><path class="cls-4" d="M84.53,330.89c5.35,16.52,7.34,38.2,7.34,38.2l-.02-.05c-2.84-12.17-6.76-25.61-11.72-35.26l-7.55-.63s-10.87,21.75-15.9,36.25l-1.44-2.86s8.38-21.35,6.66-30.78c-1.73-9.45-13.31-29.43-13.31-29.43l1.66-5.33s10.86,28.68,24.7,27.1c13.84-1.58,26.37-22.12,25.32-43.3-.72-14.53-3.69-51.43-3.69-51.43,2.29,10.23,7.62,16.67,7.62,16.67,.27,6.89,.56,13.45,.9,18.19,.53,7.59,.81,15.39,1.15,22.58,.32,6.94,.65,13.33,1.26,18.43,.17,1.33,.37,3.07,.58,5.13-12.63-2.03-23.54,16.52-23.54,16.52Z"/><path class="cls-13" d="M12.09,221.06s4.89-1.7,8.9-4.02c0,0-5.24,2.29-9.86,.05l.95,3.97Z"/><path class="cls-8" d="M21.58,204.56s-4.33,7.04-8.32,8.38c0,0-2.72,.43-5.98,0-.38-.05-.75-.23-1.1-.53,0-1.84,.3-4.6,1.06-8.32,1.26-6.08,0-15.72,0-15.72,0,0,4.65,3.8,6.01,10.94,0,0,2.84-4.27,4.63-10.56,.1-.25,.17-.51,.23-.78,.41-1.54,.76-3.2,.98-4.95,0,0,.02,.02,.03,.05,.53,.7,5.81,8.13,2.44,21.48Z"/><path class="cls-8" d="M11.14,212.95s2.7,.57,6.71,1.9,10.3-5.6,9.44-14.79l-5.71,4.5-10.44,8.39Z"/><path class="cls-5" d="M73.57,137.24s1.16-25.96,33.15-24.22l3.37-2.98s-33.24-5.35-36.51,27.2Z"/><path class="cls-5" d="M26.61,134.94l-3.92-5.56s14.08-4.1,17.25,17.91c0,0-3.05-17.99-12.88-14.81l-.45,2.45Z"/><polygon class="cls-3" points="48.57 356.99 48.57 365.48 50.23 366.63 51.61 361.07 48.57 356.99"/><polygon class="cls-2" points="28.78 401.12 28.78 403.16 50.23 402.14 50.64 400.56 28.78 401.12"/><rect class="cls-17" x="96.72" y="403.16" width="22.1" height="1.11"/><polygon class="cls-3" points="100.89 361.1 101.67 365.82 103.56 365.82 102.85 359.29 100.89 361.1"/><polygon class="cls-3" points="92.11 296.45 92.11 302.42 94.41 302.42 95.25 295.61 92.11 296.45"/><path class="cls-3" d="M122.71,249.31l1.58,3.25-.79,1.68-2.67-1.15s.3-1.89,1.88-3.77Z"/><polygon class="cls-3" points="32.06 232.29 35.26 233.85 35.26 235.96 32.06 233.85 32.06 232.29"/><path class="cls-9" d="M110.09,161.07s4.32,2.11,5.3-2.76l-5.3,2.76Z"/><path class="cls-9" d="M59.08,166.93s.26-3.45,1.63-4.31c1.36-.86,4.67,1.82,4.67,1.82,0,0-2.04,3.09-6.29,2.49Z"/><path class="cls-9" d="M81.86,287.3s.26-3.45,1.62-4.31c1.36-.86,4.67,1.82,4.67,1.82,0,0-2.04,3.09-6.29,2.49Z"/><path class="cls-9" d="M80.31,233.86s.71-1.34,2.07-2.19c1.36-.85,4.19-.29,4.19-.29,0,0-2.03,3.08-6.26,2.48Z"/><path class="cls-9" d="M73.38,106.1s2.44-4.72,6.49-6.29c4.05-1.57,6.62,.63,6.62,.63,0,0-4.68,4.4-13.11,5.66Z"/><path class="cls-6" d="M30.74,103.98c-1.28,3.12-1.99,6.49-1.99,6.49-8.18-11.54-26.21-13.63-26.21-13.63-7.34-17.2,3.57-22.01,3.57-22.01,6.91,20.75,24.63,29.15,24.63,29.15Z"/><path class="cls-12" d="M143.88,44.57s8.61,11.8,2.62,21.52c0,0-5.05-7.36-2.62-21.52Z"/><path class="cls-13" d="M63.76,212.17s-2.67,9.04,9.72,10.62c12.38,1.57,26.15-11.68,26.15-11.68,0,0-4.21-5.48-8.79-8.06l1.96-8.18s-8.04,3-15.59,4.38l.18,4.75s-6.61,4.9-13.63,8.18Z"/><path class="cls-22" d="M46.17,95.08c-.05-.6-4.92-59.81-32.02-69.98l.58-1.55c28.09,10.55,32.9,68.93,33.09,71.41l-1.65,.13Z"/><path class="cls-20" d="M79.11,87.24c-.16-2.91-3.47-71.37,27.3-83.61l.61,1.54c-29.67,11.8-26.3,81.28-26.26,81.98l-1.66,.09Z"/><path class="cls-12" d="M96.35,11.96s13.16,0,13.73-11.96c0,0-8.92,5.09-13.73,11.96Z"/><path class="cls-12" d="M8.97,24.32s10.32,6.88,15.22,6.38c0,0-4.95-11.41-15.22-6.38Z"/><path class="cls-18" d="M54.02,311.41l-.82-.13c.08-.47,1.9-11.46,7.31-17.13l.6,.57c-5.23,5.48-7.07,16.57-7.09,16.68Z"/><path class="cls-18" d="M94.12,318c-1.3-11.31-7.06-22.09-7.12-22.19l.73-.4c.06,.11,5.89,11.02,7.21,22.5l-.82,.09Z"/><path class="cls-18" d="M94.37,380.87l-.78-.29c.04-.1,3.78-9.76,18.44-9.76h.18v.83h-.18c-14.05,0-17.63,9.13-17.66,9.22Z"/><path class="cls-18" d="M55.68,378.48c-8.94-12.19-17.23-10.8-17.31-10.78l-.16-.82c.35-.07,8.86-1.54,18.13,11.11l-.67,.49Z"/><polygon class="cls-18" points="50.21 399.38 43.9 397.18 44.17 396.4 50.49 398.6 50.21 399.38"/><polygon class="cls-18" points="97.57 400.5 97.43 399.68 103.96 398.58 104.1 399.4 97.57 400.5"/><path class="cls-18" d="M119.46,271.87l-.77-.32c.27-.65,6.77-16,18.77-17.72l.12,.82c-11.53,1.66-18.06,17.07-18.12,17.22Z"/><path class="cls-18" d="M30.77,258.38l-.53-.64c.07-.06,7.52-6.41,5.92-24.97l.83-.07c1.64,19.04-5.9,25.43-6.22,25.69Z"/></g></g></g></g></svg>