<?xml version="1.0" encoding="UTF-8"?><svg xmlns="http://www.w3.org/2000/svg" xmlns:xlink="http://www.w3.org/1999/xlink" viewBox="0 0 278.36 381.74"><defs><style>.cls-1{fill:#1d1e4b;}.cls-2{fill:#272864;}.cls-2,.cls-3,.cls-4,.cls-5,.cls-6,.cls-7,.cls-8,.cls-9,.cls-10,.cls-11,.cls-12,.cls-13,.cls-14,.cls-15,.cls-16,.cls-17,.cls-18,.cls-19,.cls-20,.cls-21,.cls-22,.cls-23,.cls-24,.cls-25,.cls-26,.cls-27,.cls-28,.cls-29,.cls-30,.cls-31,.cls-32,.cls-33,.cls-34,.cls-35,.cls-36,.cls-37,.cls-38,.cls-39,.cls-40,.cls-41,.cls-42,.cls-43,.cls-44,.cls-45,.cls-46,.cls-47,.cls-48,.cls-49,.cls-50,.cls-51,.cls-52,.cls-53,.cls-54,.cls-55,.cls-56,.cls-57,.cls-58,.cls-59,.cls-60,.cls-61,.cls-62,.cls-63,.cls-64,.cls-65,.cls-66,.cls-67,.cls-68,.cls-69,.cls-70,.cls-71,.cls-72,.cls-73,.cls-74,.cls-75,.cls-76,.cls-77,.cls-78,.cls-79,.cls-80,.cls-81,.cls-82,.cls-83,.cls-84,.cls-85,.cls-86,.cls-87,.cls-88,.cls-89,.cls-90,.cls-91,.cls-92,.cls-93,.cls-94,.cls-95,.cls-96,.cls-97,.cls-98,.cls-99,.cls-100,.cls-101,.cls-102,.cls-103,.cls-104,.cls-105,.cls-106,.cls-107,.cls-108,.cls-109,.cls-110,.cls-111,.cls-112,.cls-113,.cls-114,.cls-115,.cls-116,.cls-117,.cls-118,.cls-119,.cls-120{fill-rule:evenodd;}.cls-3{fill:#090917;}.cls-4{fill:#24255c;}.cls-5{fill:#2a2c6d;}.cls-6{fill:#212255;}.cls-121{fill:#fff;}.cls-7{fill:#272863;}.cls-122{fill:#0e0e23;}.cls-123{fill:#1a1b44;}.cls-8{fill:#04040a;}.cls-124{fill:#202151;}.cls-125{fill:#191a40;}.cls-9{fill:#0a0a1a;}.cls-10{fill:#020205;}.cls-126{fill:#101028;}.cls-11{fill:#070712;}.cls-12{fill:#2e3076;}.cls-13{fill:#151635;}.cls-14,.cls-127{fill:#684d73;}.cls-128{fill:#161739;}.cls-129{fill:#18193f;}.cls-130,.cls-59{fill:#ff6b22;}.cls-15{fill:#2d2f74;}.cls-16{fill:#292b6b;}.cls-17{fill:#020306;}.cls-18{fill:#282a67;}.cls-19{fill:#0a0a19;}.cls-20{fill:#323480;}.cls-21{fill:#04040b;}.cls-131{fill:#131330;}.cls-22{fill:#202152;}.cls-23{fill:#36388b;}.cls-132{fill:#1c1d48;}.cls-24{fill:url(#_Áåçûìÿííûé_ãðàäèåíò_94-2);}.cls-24,.cls-28,.cls-41,.cls-76,.cls-102,.cls-108,.cls-115,.cls-117{mix-blend-mode:multiply;}.cls-133{fill:url(#_Áåçûìÿííûé_ãðàäèåíò_217);}.cls-133,.cls-134{mix-blend-mode:screen;}.cls-25{fill:#353788;}.cls-26{fill:#2c2e71;}.cls-27{fill:#2b2d70;}.cls-28{fill:url(#_Áåçûìÿííûé_ãðàäèåíò_36-5);}.cls-29{fill:#080815;}.cls-30{fill:#2a2b6c;}.cls-135{isolation:isolate;}.cls-31,.cls-102,.cls-136{fill:#53345f;}.cls-32{fill:#06060f;}.cls-33{fill:#333584;}.cls-137{fill:#1e1f4c;}.cls-34{fill:#212254;}.cls-35{fill:#070711;}.cls-36{fill:#000001;}.cls-138{fill:#1a1b43;}.cls-37{fill:#2f317a;}.cls-38{fill:#292a68;}.cls-39{fill:#323481;}.cls-40{fill:#010102;}.cls-41{fill:url(#_Áåçûìÿííûé_ãðàäèåíò_36);}.cls-42{fill:#23255b;}.cls-43{fill:#2b2c6e;}.cls-44{fill:#1a1a42;}.cls-45{fill:#05050e;}.cls-46{fill:#282966;}.cls-47{fill:#090916;}.cls-139{fill:#131431;}.cls-140{fill:#1e1f4d;}.cls-48{fill:#1f204f;}.cls-141{fill:#17183b;}.cls-49{fill:#010204;}.cls-50{fill:#343686;}.cls-51{fill:#292b6a;}.cls-52{fill:url(#_Áåçûìÿííûé_ãðàäèåíò_519);}.cls-53{fill:url(#_Áåçûìÿííûé_ãðàäèåíò_25);}.cls-54{fill:#30327c;}.cls-142{fill:#12122d;}.cls-55,.cls-143{fill:#cab3da;}.cls-56{fill:url(#_Áåçûìÿííûé_ãðàäèåíò_436-2);}.cls-57{fill:#030307;}.cls-58{fill:#252760;}.cls-144{fill:#0e0f24;}.cls-60{fill:#010101;}.cls-145{fill:#0f1027;}.cls-146{fill:#161738;}.cls-147{fill:url(#_Áåçûìÿííûé_ãðàäèåíò_93);}.cls-61{fill:#030409;}.cls-62{fill:#23245a;}.cls-63{fill:#24265e;}.cls-64{fill:#262862;}.cls-65{fill:#1e1f4e;}.cls-66{fill:#333583;}.cls-67{fill:#2c2e72;}.cls-68{fill:#070813;}.cls-69{fill:#2e2f75;}.cls-70{fill:#06060e;}.cls-71{fill:#222459;}.cls-148{fill:#12132e;}.cls-149{fill:#1d1e4a;}.cls-150{fill:#0d0e22;}.cls-72{fill:#1f2050;}.cls-151{fill:#222358;}.cls-73{fill:#0f0f26;}.cls-74{fill:#333482;}.cls-75{fill:#262761;}.cls-76{fill:url(#_Áåçûìÿííûé_ãðàäèåíò_36-4);}.cls-77{fill:#2e3077;}.cls-152{clip-path:url(#clippath);}.cls-78{fill:#1b1c46;}.cls-79{fill:#31337f;}.cls-80{fill:#1b1c45;}.cls-81{fill:#05050d;}.cls-153{fill:#101129;}.cls-154{fill:none;}.cls-155{fill:#11122c;}.cls-156{fill:#1c1d47;}.cls-82{fill:url(#_Áåçûìÿííûé_ãðàäèåíò_20);}.cls-83{fill:#2b2d6f;}.cls-84{fill:#05050c;}.cls-85{fill:#25265f;}.cls-86{fill:#1c1d49;}.cls-87{fill:#0b0c1e;}.cls-157{fill:#141432;}.cls-88{fill:#090a18;}.cls-158{fill:#161637;}.cls-159{fill:#17183a;}.cls-89{fill:#36388a;}.cls-90{fill:#31327d;}.cls-91{fill:#0b0c1d;}.cls-92{fill:url(#_Áåçûìÿííûé_ãðàäèåíò_436);}.cls-93{fill:#30317b;}.cls-160{fill:#202253;}.cls-94{fill:#24255d;}.cls-95{fill:#030308;}.cls-96{fill:#080814;}.cls-161{fill:#18193e;}.cls-162{fill:#141534;}.cls-97{fill:#010103;}.cls-98{fill:url(#_Áåçûìÿííûé_ãðàäèåíò_25-2);}.cls-99{fill:#0d0d21;}.cls-100{fill:#060710;}.cls-101{fill:#222356;}.cls-102{opacity:.5;}.cls-163{fill:#191a41;}.cls-164{fill:#10112a;}.cls-103{fill:#343687;}.cls-165{fill:#151636;}.cls-104{fill:#2d2e73;}.cls-105{fill:#18183d;}.cls-106{fill:#0c0d1f;}.cls-107{fill:#0d0d20;}.cls-108{fill:url(#_Áåçûìÿííûé_ãðàäèåíò_36-3);}.cls-109{fill:#020206;}.cls-110{fill:#0c0c1f;}.cls-111{fill:#0a0b1b;}.cls-112{fill:#272965;}.cls-113{fill:#2f3179;}.cls-114{fill:#11112b;}.cls-115{fill:url(#_Áåçûìÿííûé_ãðàäèåíò_36-2);}.cls-166{fill:#141533;}.cls-116{fill:#31337e;}.cls-167{fill:#0f0f25;}.cls-117{fill:url(#_Áåçûìÿííûé_ãðàäèåíò_94);}.cls-119{fill:#353789;}.cls-168{fill:#12132f;}.cls-120{fill:#0b0b1c;}</style><radialGradient id="_Áåçûìÿííûé_ãðàäèåíò_25" cx="2058.46" cy="152.6" fx="2058.46" fy="152.6" r="38.44" gradientTransform="translate(2114.36) rotate(-180) scale(1 -1)" gradientUnits="userSpaceOnUse"><stop offset="0" stop-color="#f4dbee"/><stop offset="1" stop-color="#d1bde5"/></radialGradient><linearGradient id="_Áåçûìÿííûé_ãðàäèåíò_94" x1="2014.26" y1="163.08" x2="2059.86" y2="163.08" gradientTransform="translate(2114.36) rotate(-180) scale(1 -1)" gradientUnits="userSpaceOnUse"><stop offset="0" stop-color="#9579a7"/><stop offset="1" stop-color="#fff"/></linearGradient><radialGradient id="_Áåçûìÿííûé_ãðàäèåíò_436" cx="2075.61" cy="286.24" fx="2075.61" fy="286.24" r="40.98" gradientTransform="translate(2114.36) rotate(-180) scale(1 -1)" gradientUnits="userSpaceOnUse"><stop offset="0" stop-color="#f4f1ff"/><stop offset="1" stop-color="#d1bde5"/></radialGradient><radialGradient id="_Áåçûìÿííûé_ãðàäèåíò_25-2" cx="1944.71" cy="189.53" fx="1944.71" fy="189.53" r="41.96" xlink:href="#_Áåçûìÿííûé_ãðàäèåíò_25"/><radialGradient id="_Áåçûìÿííûé_ãðàäèåíò_436-2" cx="1973.38" cy="293.65" fx="1973.38" fy="293.65" r="49.41" xlink:href="#_Áåçûìÿííûé_ãðàäèåíò_436"/><linearGradient id="_Áåçûìÿííûé_ãðàäèåíò_36" x1="1911.12" y1="249.87" x2="2056.13" y2="249.87" gradientTransform="translate(2114.36) rotate(-180) scale(1 -1)" gradientUnits="userSpaceOnUse"><stop offset="0" stop-color="#fff"/><stop offset="1" stop-color="#9579a7"/></linearGradient><linearGradient id="_Áåçûìÿííûé_ãðàäèåíò_519" x1="1986.7" y1="146.62" x2="1986.7" y2="0" gradientTransform="translate(2114.36) rotate(-180) scale(1 -1)" gradientUnits="userSpaceOnUse"><stop offset="0" stop-color="#d1bde5"/><stop offset="1" stop-color="#fff"/></linearGradient><linearGradient id="_Áåçûìÿííûé_ãðàäèåíò_93" x1="2001.34" y1="120.99" x2="2001.34" y2="3.88" gradientTransform="translate(2114.36) rotate(-180) scale(1 -1)" gradientUnits="userSpaceOnUse"><stop offset="0" stop-color="#007c7e"/><stop offset="1" stop-color="#0f183b"/></linearGradient><linearGradient id="_Áåçûìÿííûé_ãðàäèåíò_36-2" x1="1907.9" y1="103.31" x2="2057.39" y2="103.31" xlink:href="#_Áåçûìÿííûé_ãðàäèåíò_36"/><linearGradient id="_Áåçûìÿííûé_ãðàäèåíò_20" x1="1943.48" y1="138.99" x2="1943.48" y2="61.19" gradientTransform="translate(2114.36) rotate(-180) scale(1 -1)" gradientUnits="userSpaceOnUse"><stop offset="0" stop-color="#d1bde5"/><stop offset="1" stop-color="#f4dbee"/></linearGradient><linearGradient id="_Áåçûìÿííûé_ãðàäèåíò_36-3" x1="2040.16" y1="337.64" x2="2074.27" y2="337.64" xlink:href="#_Áåçûìÿííûé_ãðàäèåíò_36"/><linearGradient id="_Áåçûìÿííûé_ãðàäèåíò_36-4" x1="1941.19" y1="346.9" x2="1973.31" y2="346.9" xlink:href="#_Áåçûìÿííûé_ãðàäèåíò_36"/><clipPath id="clippath"><path class="cls-154" d="M49.58,95.12c.05,.27,.09,.54,.16,.8,3.08,6.49,15.12,24.88,45.15,28.46,36.94,4.4,52.04-23.33,52.04-23.33l7.05,1.29c1.41-4.38,2.9-8.34,4.42-11.9l-.02-.02S121.75,16.24,56.97,41.11c-7.84,20.57-9.23,42.9-7.39,54.01Z"/></clipPath><radialGradient id="_Áåçûìÿííûé_ãðàäèåíò_217" cx="932.15" cy="1696.32" fx="932.15" fy="1696.32" r="12.46" gradientTransform="translate(1796.2 -504.91) rotate(-158.82) scale(1.47 -.66)" gradientUnits="userSpaceOnUse"><stop offset="0" stop-color="#003cee"/><stop offset=".06" stop-color="#0035d5"/><stop offset=".2" stop-color="#00279d"/><stop offset=".34" stop-color="#001b6d"/><stop offset=".48" stop-color="#001146"/><stop offset=".62" stop-color="#000927"/><stop offset=".75" stop-color="#000411"/><stop offset=".88" stop-color="#000104"/><stop offset="1" stop-color="#000"/></radialGradient><linearGradient id="_Áåçûìÿííûé_ãðàäèåíò_36-5" x1="1887.53" y1="205.78" x2="1909.67" y2="205.78" xlink:href="#_Áåçûìÿííûé_ãðàäèåíò_36"/><linearGradient id="_Áåçûìÿííûé_ãðàäèåíò_94-2" x1="2093.33" y1="131.21" x2="2106.79" y2="131.21" xlink:href="#_Áåçûìÿííûé_ãðàäèåíò_94"/></defs><g class="cls-135"><g id="Capa_2"><g id="Capa_2-2"><g><path class="cls-143" d="M237.8,327.8c3.6,0,7.43-.43,11.55-1.38,22.62-5.21,32.19-30.03,28.08-50.03-4.2-20.45-23.71-41.71-64.89-34.29-72.2,13-84.51-13.2-84.62-13.47l-4.57,1.99c.54,1.23,14.04,30.07,90.07,16.38,37.61-6.77,55.21,11.26,59.13,30.39,3.63,17.71-4.63,39.64-24.32,44.18-24.3,5.6-37.6-8.71-51.69-23.86-5.58-6-11.34-12.2-17.84-17.09-23.11-17.39-46.79-10.87-47.79-10.58l1.37,4.79c.22-.06,22.36-6.08,43.42,9.77,6.14,4.62,11.76,10.66,17.19,16.5,12.24,13.16,24.83,26.7,44.9,26.7Z"/><path class="cls-55" d="M157.07,361.18s7.55,20.97,22.07,20.55l-22.07-20.55Z"/><path class="cls-53" d="M13.59,143.69c0,13.88,22.33,39.08,38.69,42.61,.73,.17,1.48,.27,2.21,.35,10.26,.98,20.68-6.13,26.66-11.17,3.17-2.66,5.1-4.75,5.1-4.75l11.95-30.83s-.43-.07-1.2-.15c-2.36-.25-7.88-.68-13.6,.15-7.54,1.1-30.66-2.51-40.89-9.11-10.23-6.61-12.9-11.64-15.72-12.27-2.84-.63-6.61,3.14-6.61,3.14,0,0-6.61,7.39-6.61,22.03Z"/><path class="cls-14" d="M20.2,121.67s5.35,0,6.13,3.62c.79,3.62-3.3,22.33-12.74,18.4-9.44-3.93,6.61-22.02,6.61-22.02h0Z"/><path class="cls-31" d="M22.24,123.64s-2.03,10.08-10.46,16.12c0,0-.31-13.45,10.46-16.12Z"/><path class="cls-59" d="M.17,114.59c.66,7.42,4.15,13.45,7.4,17.56,3.12,3.97,6.03,6.16,6.03,6.16,0,0,5.66-3.75,7.44-10.86,0,0-.07-1.34-.27-3.35-.45-4.43-1.51-12.08-3.75-15.4l-1.84,4.32s-1.26-7.54-11.02-10.69c0,0-5.13-.53-3.98,12.27Z"/><path class="cls-130" d="M54.54,135.91s2.62,9.95-2.89,26.71c-5.5,16.76-17.21,13.7-17.21,13.7,0,0,5.66,5.09,10.36,7.14,0,0,29.29,3.28,20.54-44.96l-10.8-2.59Z"/><path class="cls-117" d="M81.15,175.48c-.5,2.57-.93,5.28-1.28,8.15l15.74-13.38,4.48-29.86-2.86-.88c-.08,.08-.15,.17-.23,.25-2.36-.25-7.88-.68-13.6,.15,0,0,13.25,28.15-28.88,46.73t-.03,.02c10.26,.98,20.68-6.13,26.66-11.17Z"/><path class="cls-31" d="M40.09,329.2s9.15-8.07,34.1,4.09c0,0-14.84,8.91-34.1-4.09Z"/><path class="cls-31" d="M173.16,336.33s-16.66-6.19-32.18,9.44c0,0,6.13,5.66,17.14,3.7,11.01-1.97,15.04-13.13,15.04-13.13Z"/><path class="cls-92" d="M56.21,342.14h13.69s.96-3.19,2.67-8.18c4.3-12.65,13.28-36.85,23.04-50.28v-.02l-34.11-43.26s-1.29,2.89-3.27,7.47c-5.69,13.33-20.81,38.84-21.86,50.79-1.41,16.04,19.83,43.48,19.83,43.48Z"/><path class="cls-55" d="M61.5,240.4s7.45,25.48,31.99,42.78l2.12,.5,11.39,2.64s.02-.03,.03-.1c.02-.05,.03-.1,.07-.18,.02-.05,.03-.1,.07-.17,.02-.07,.05-.13,.08-.22,1.88-4.8,14.59-34.58,46.63-53.07,0,0-1.23-2.9-3.17-10.66-.17-.71-.35-1.48-.55-2.27-.86-3.67-1.84-8.23-2.89-13.84-2.31-12.27-6.36-32.35-9.16-46.16v-.02c-.85-4.15-1.58-7.74-2.12-10.37-.2-1-.38-1.88-.53-2.57-.28-1.43-.45-2.21-.45-2.21,0,0-26.11,2.52-36.8-5.98,0,0-.35,.33-.96,1.01-.08,.08-.15,.17-.23,.25-3.17,3.59-11.8,14.91-15.85,35.72-.5,2.57-.93,5.28-1.28,8.15-.12,1.01-.23,2.04-.33,3.1,0,0-11.72,20.68-16.73,45.8-.51,2.59-.96,5.21-1.31,7.87Z"/><path class="cls-98" d="M130.52,178.82v.03c.15,.88,.33,1.78,.51,2.71,2.9,14.52,9.89,30.28,19.67,40.37,5.99,6.19,13.01,10.24,20.78,10.61,17.35,.8,28.7-9.61,31.74-12.78,.1-.12,.2-.22,.28-.3,.08-.12,.17-.2,.23-.27,.2-.22,.3-.33,.3-.33,0,0,6.29-1.58,6.44-8.02,.17-6.46-2.04-16.52-2.04-16.52l-2.99-1.26s-.48-4.55-4.68-5.98c-4.22-1.41-14.51-1.1-26.29-8.65-10.36-6.62-24.77-19.7-29.37-24.78-.65-.71-1.1-1.26-1.31-1.63-1.78-2.94-5.13-5.18-5.13-5.18l-1.94-.1-1.28-.07-3.93-.2s-5.39,7.93-1,32.34Z"/><path class="cls-56" d="M107,286.32s16.68,30.68,20.45,38.69c3.77,8.02,17.93,23.11,26.43,27.67,.22,.12,.43,.23,.63,.32,8.15,4.02,13.71-.32,13.71-.32,0,0,.41-1.79,1.05-4.63,.83-3.77,2.04-9.36,3.12-14.99,1.46-7.49,2.69-15.01,2.56-18.28-.23-5.58-11.62-47.79-17.55-69.45-2.11-7.65-3.52-12.75-3.52-12.75-30.66,9.28-44.79,47.59-46.63,53.07-.03,.08-.07,.15-.08,.22-.03,.07-.05,.12-.07,.17-.03,.08-.05,.13-.07,.18-.02,.07-.03,.1-.03,.1Z"/><path class="cls-31" d="M129.37,146.28s-14.34,4.33-19.37,4.01c-5.03-.31-11.79-11.79-11.79-11.79,0,0,10.13,5.34,31.17,7.78Z"/><path class="cls-31" d="M138.67,146.86s-13.72,36.5,6.88,69.98c0,0-20.44-25.66-16.18-70.55l9.3,.58Z"/><path class="cls-31" d="M100.09,140.38s-15.31,25.61-20.55,46.36c0,0,.41-24.97,14.41-47.22l4.25-1.02,1.89,1.88Z"/><path class="cls-31" d="M156.03,240.4s-21.01,5.82-46.34,50.87l-2.68-4.95s14.78-47.41,46.86-53.74l2.16,7.82Z"/><path class="cls-31" d="M62.8,232.58s10.23,37.45,32.8,51.09l-1.82,2.65s-24.39-10.49-34.62-40.58l3.64-13.16Z"/><path class="cls-14" d="M204.04,218.86s6.29-1.58,6.44-8.02c.17-6.46-2.04-16.52-2.04-16.52l-2.99-1.26s-15.42,10.54-1.41,25.8Z"/><path class="cls-31" d="M207.42,214.3s-6.53-13.05,1.02-19.97c0,0,4.15,17.55-1.02,19.97Z"/><path class="cls-59" d="M205.27,200.3s2.51-8.5,10.6-10.17v4.09s11.44-6.14,18.84,1c0,0-4.91,16.91-28.19,17.2,0,0-2.77-5-1.24-12.12Z"/><path class="cls-130" d="M172.11,301.18s-.16,12.66-18.24,18.79c-18.09,6.13-29.96-2.01-29.96-2.01,0,0,4.06,9.05,7.58,13.45s29.76,3.83,42.58-7.82c0,0,1.43-6.47,.71-10.24-.72-3.77-2.67-12.18-2.67-12.18Z"/><path class="cls-130" d="M85.63,301.18s-12.82,6.74-26.47,8c-13.64,1.26-22.87-6.43-22.87-6.43,0,0,1.35,9,4.86,14.89,0,0,14.4,4.27,23.29,2.38,8.89-1.89,16.51-8.32,16.51-8.32l4.68-10.51Z"/><path class="cls-130" d="M171.44,176.39s-28.81,19.02-10.61,53.23c0,0-5.38-2.45-9.49-7.05-6.45-6.62-14.07-49.08,12.22-52.32l7.88,6.14Z"/><path class="cls-136" d="M95.41,283.74l.39-.14c-.1-.27-9.97-27.58-9.97-46.5,0-16.38,2.43-24.42,5.81-35.57,1.27-4.21,2.72-8.98,4.17-14.74,5.1-20.28,12-36.24,12.07-36.4l-.38-.17c-.07,.16-6.98,16.15-12.09,36.47-1.45,5.75-2.89,10.52-4.16,14.72-3.38,11.17-5.82,19.25-5.82,35.68,0,18.99,9.89,46.37,9.99,46.64Z"/><path class="cls-41" d="M71.46,333.96h1.11c4.3-12.65,13.28-36.85,23.04-50.28l11.39,2.64s16.68,30.68,20.45,38.69c3.77,8.02,17.93,23.11,26.43,27.67,.22,.12,.43,.23,.63,.32l14.76-4.95c.83-3.77,2.04-9.36,3.12-14.99l-.95-.66s-16.93,9.78-30.46,3.87c-13.53-5.91-25-46.76-22.49-52.61,9.36-21.83,28.75-33.5,38.91-38.33-2.11-7.65-3.52-12.75-3.52-12.75,0,0-1.23-2.9-3.17-10.66,5.99,6.19,13.01,10.24,20.78,10.61,17.35,.8,28.7-9.61,31.74-12.78-3.34,3.3-17.01,14.82-40.64,7.9-5.01-1.46-9.11-4.3-12.43-8-14.86-16.5-14.44-50.3-13-57.04,.25-1.13,.56-2.11,.95-2.97v-.02c2.41-5.43,7.01-5.98,7.01-5.98-.65-.71-1.1-1.26-1.31-1.63-1.78-2.94-5.13-5.18-5.13-5.18l-1.94-.1c-.18,.63-.45,1.48-.75,2.51-1.63,5.68-4.48,17.01-5.46,29.56v.03c-.61,7.7-.51,15.89,1,23.49,5.05,25.31,7.88,30.24,7.88,30.24,0,0-22.14,30.88-34.59,35.97-12.47,5.08-33.66-17.83-37.83-26.89-1.99-4.3-3.3-7.24-4.17-9.13-.51,2.59-.96,5.21-1.31,7.87,0,0-1.29,2.89-3.27,7.47,3.97,9.41,17.33,41.9,17.96,53.3,.73,13.41-4.73,32.78-4.73,32.78Z"/><path class="cls-102" d="M138.67,146.85s-12.1,18.17-34.81,23.4c-22.71,5.23-15.94-30.83-15.94-30.83l6.02,.09h3.29s41.43,7.33,41.43,7.33Z"/><path class="cls-52" d="M49.58,95.12c.05,.27,.09,.54,.16,.8,.82,3.63,3.13,8.14,6.62,12.85,0,0,.2,.29,.61,.79,6.55,8.59,16.92,17.76,29.11,23.76,19.79,9.71,51.18,17.85,75.6,10.39,24.4-7.46,45.76-46.1,44.74-61.02-.27-3.99-.77-9.34-1.93-15.39-3.13-16.46-11.09-38-32.31-51.04C156.15,6.4,132.03,.77,112.48,.07c-6.1-.21-11.74,.05-16.57,.82-3.27,.52-6.17,1.27-8.57,2.25l-1,.45c-.7,.3-1.32,.66-1.91,1.02-31.68,19.77-38,71.52-34.85,90.51Z"/><path class="cls-147" d="M53.52,93.09c.05,.25,.08,.5,.15,.76,2.89,6.09,14.18,23.34,42.35,26.7,34.65,4.13,48.81-21.88,48.81-21.88l6.61,1.21c1.33-4.11,2.72-7.82,4.14-11.16,7.92-18.76,16.56-26.06,17.37-28.89,.96-3.34-.03-24.41-20.5-40.37-13.57-10.57-28.68-14.33-39.93-15.5-5.72-.2-11.01,.05-15.54,.77-3.07,.49-5.79,1.19-8.04,2.11l-.94,.42c-.65,.29-1.24,.62-1.8,.96-12.33,7.7-20.55,20.55-25.76,34.23-7.35,19.3-8.66,40.24-6.93,50.66Z"/><path class="cls-115" d="M56.97,109.56c6.55,8.59,16.92,17.76,29.11,23.76,19.79,9.71,51.18,17.85,75.6,10.39,24.4-7.46,45.76-46.1,44.74-61.02-.27-3.99-.77-9.34-1.93-15.39-1.79-3.72-4.65-6.53-9.14-7.21-16.49-2.49-37.52,46.68-37.52,46.68l-7.35-3.17s-14.57,27.36-48.58,26.68c-29.75-.59-42.03-17.23-44.93-20.72Z"/><path class="cls-82" d="M173.32,137.74c-9.71,4.03-22.29-3.29-15.05-29.63,7.3-26.42,30.36-46.53,30.36-46.53-22.18-5.01-34.65,40.77-34.65,40.77-.25,2.04-.45,3.95-.57,5.76l-.02,.2c-2.88,38.39,18.09,30.22,19.93,29.43Z"/><path class="cls-31" d="M206.23,86.77c.8-9.56-2.64-17.41-7.72-18.99-5.08-1.58-26.22,16.33-32.09,42.82-5.86,26.49,13.15,23.84,19.72,15.27l3.72-4.62s-17.88,11.85-18.97-5.91c-1.24-20.28,21.18-37.96,27.74-32.31,6.55,5.65,2.16,20.28,2.16,20.28,0,0,4.92-10.2,5.45-16.54Z"/><path class="cls-14" d="M71.78,346.08l-.73-3.93,3.15-8.85s-21.45,2.09-34.11-4.1c0,0,4.23,8.6,14.08,14.26,0,0-12.15,1.26-15.52,12.58l33.13-9.96Z"/><path class="cls-14" d="M141.05,345.8l16.02,11.4v3.98s6.46,15.4,22.08,20.55c0,0,2.09-13.93-10.49-25.66l4.52-19.74s-4.65,6.77-13.53,10.59c-8.48,3.64-17.78-.73-18.59-1.13Z"/><polygon class="cls-55" points="71.78 346.08 73.04 348.29 39.07 358.14 38.65 356.04 71.78 346.08"/><path class="cls-108" d="M40.09,329.2s4.23,8.6,14.08,14.26c0,0,12.58,.73,17.61,2.62l-.73-3.93,3.15-8.85s-21.45,2.09-34.11-4.1Z"/><path class="cls-76" d="M141.05,345.8l16.02,11.4c6.27,.96,11.59-1.13,11.59-1.13l4.52-19.74s-4.65,6.77-13.53,10.59c-8.48,3.64-17.78-.73-18.59-1.13Z"/><path class="cls-121" d="M162.06,55.79s2.52-7.63,2.52-10.17c0,0-3.39-5.93-8.9-9.75l-9.11,11.87s12.33,5.72,15.49,8.05Z"/><path class="cls-121" d="M137.6,101.85s-3.89,5.89-8.18,8.71l-3.01-3.42s4.89-4.82,7.37-7.9l3.82,2.61Z"/><g class="cls-134"><g class="cls-152"><rect x="47.74" y="16.24" width="110.67" height="112.55"/><path class="cls-118" d="M50.74,18.86c-8.84,22.26,9.59,50.48,41.17,63.03,31.58,12.54,64.35,4.67,73.19-17.6,4.42-11.13,2.03-23.75-5.42-35.16-3.72-5.7-8.71-11.1-14.74-15.86v1.32H61.47V4.95c-4.81,3.67-8.52,8.34-10.73,13.91Z"/><path class="cls-36" d="M51.15,19.02c-8.78,22.1,9.52,50.12,40.87,62.57,31.35,12.45,63.89,4.63,72.67-17.47,4.39-11.05,2.01-23.58-5.39-34.91-3.7-5.66-8.65-11.02-14.64-15.75v1.11H61.8V5.21c-4.77,3.65-8.45,8.28-10.65,13.81Z"/><path class="cls-60" d="M51.56,19.18c-8.72,21.94,9.45,49.76,40.58,62.12,31.13,12.36,63.42,4.6,72.14-17.34,4.36-10.97,2-23.41-5.35-34.65-3.67-5.62-8.59-10.94-14.53-15.63v.91H62.14V5.48c-4.74,3.62-8.39,8.22-10.57,13.71Z"/><path class="cls-40" d="M51.98,19.35c-8.65,21.78,9.38,49.39,40.28,61.67,30.9,12.27,62.96,4.57,71.61-17.22,4.33-10.89,1.98-23.24-5.31-34.4-3.64-5.58-8.53-10.86-14.43-15.52v.71H62.47V5.74c-4.71,3.59-8.33,8.16-10.5,13.61Z"/><path class="cls-97" d="M52.39,19.51c-8.59,21.62,9.31,49.03,39.98,61.21,30.67,12.18,62.5,4.53,71.09-17.09,4.29-10.81,1.97-23.07-5.27-34.15-3.62-5.54-8.46-10.78-14.32-15.4v.5H62.81V6c-4.67,3.57-8.27,8.1-10.42,13.51Z"/><path class="cls-49" d="M52.8,19.67c-8.53,21.46,9.24,48.67,39.69,60.76,30.44,12.09,62.04,4.5,70.56-16.96,4.26-10.73,1.95-22.9-5.23-33.89-3.59-5.5-8.4-10.7-14.21-15.29v.3H63.14V6.27c-4.64,3.54-8.21,8.04-10.34,13.41Z"/><path class="cls-10" d="M53.21,19.84c-8.46,21.3,9.17,48.3,39.39,60.31,30.22,12,61.57,4.46,70.03-16.84,8.46-21.3-9.17-48.3-39.39-60.31V14.58H63.47V6.53c-4.6,3.51-8.15,7.98-10.26,13.31Z"/><path class="cls-109" d="M53.62,20c-8.4,21.14,9.1,47.94,39.09,59.85,29.99,11.91,61.11,4.43,69.51-16.71,8.4-21.14-9.1-47.94-39.09-59.85V14.58H63.81V6.79c-4.57,3.49-8.09,7.92-10.19,13.21Z"/><path class="cls-17" d="M54.03,20.16c-8.33,20.98,9.04,47.58,38.8,59.4,29.76,11.82,60.65,4.4,68.98-16.59,8.34-20.98-9.04-47.58-38.8-59.4V14.58h-58.87V7.06c-4.53,3.46-8.03,7.86-10.11,13.11Z"/><path class="cls-57" d="M54.44,20.33c-8.27,20.82,8.97,47.21,38.5,58.95,29.54,11.73,60.18,4.36,68.46-16.46,8.27-20.82-8.97-47.21-38.5-58.95V14.58h-58.42V7.32c-4.5,3.44-7.96,7.8-10.03,13.01Z"/><path class="cls-95" d="M54.86,20.49c-8.21,20.66,8.9,46.85,38.21,58.49,29.31,11.64,59.72,4.33,67.93-16.33,8.21-20.66-8.9-46.85-38.21-58.49V14.58h-57.97V7.58c-4.46,3.41-7.9,7.74-9.96,12.91Z"/><path class="cls-61" d="M55.27,20.65c-8.14,20.5,8.83,46.49,37.91,58.04,29.08,11.55,59.26,4.3,67.4-16.21,8.14-20.5-8.83-46.49-37.91-58.04V14.58h-57.52V7.85c-4.43,3.38-7.84,7.68-9.88,12.81Z"/><path class="cls-8" d="M55.68,20.82c-8.08,20.34,8.76,46.12,37.61,57.59,28.85,11.46,58.8,4.26,66.88-16.08,8.08-20.34-8.76-46.12-37.61-57.59V14.58h-57.07v-6.47c-4.39,3.36-7.78,7.62-9.8,12.71Z"/><path class="cls-21" d="M56.09,20.98c-8.02,20.18,8.69,45.76,37.32,57.13,28.63,11.37,58.33,4.23,66.35-15.95,8.02-20.18-8.69-45.76-37.32-57.13V14.58h-56.63v-6.21c-4.36,3.33-7.72,7.56-9.72,12.61Z"/><path class="cls-84" d="M56.5,21.14c-7.95,20.02,8.62,45.4,37.02,56.68s57.87,4.2,65.82-15.83c7.95-20.02-8.62-45.4-37.02-56.68V14.58h-56.18v-5.95c-4.32,3.3-7.66,7.5-9.65,12.51Z"/><path class="cls-81" d="M56.91,21.31c-7.89,19.86,8.55,45.03,36.73,56.23,28.17,11.19,57.41,4.16,65.3-15.7,7.89-19.86-8.55-45.03-36.73-56.23V14.58h-55.73v-5.68c-4.29,3.28-7.6,7.44-9.57,12.41Z"/><path class="cls-45" d="M57.32,21.47c-7.83,19.7,8.48,44.67,36.43,55.77,27.95,11.1,56.94,4.13,64.77-15.57,7.83-19.7-8.48-44.67-36.43-55.77V14.58h-55.28v-5.42c-4.26,3.25-7.54,7.38-9.49,12.31Z"/><path class="cls-70" d="M57.74,21.63c-7.76,19.54,8.41,44.31,36.13,55.32,27.72,11.01,56.48,4.1,64.24-15.45,7.76-19.54-8.41-44.31-36.13-55.32V14.58h-54.83v-5.16c-4.22,3.22-7.47,7.32-9.41,12.21Z"/><path class="cls-32" d="M58.15,21.8c-7.7,19.38,8.35,43.94,35.84,54.86,27.49,10.92,56.02,4.06,63.72-15.32,7.7-19.38-8.35-43.94-35.84-54.86V14.58h-54.38v-4.89c-4.19,3.2-7.41,7.26-9.34,12.11Z"/><path class="cls-100" d="M58.56,21.96c-7.64,19.22,8.28,43.58,35.54,54.41,27.26,10.83,55.55,4.03,63.19-15.19,7.64-19.22-8.28-43.58-35.54-54.41v7.82h-38.96V3.09c-11.44,2.75-20.42,9.25-24.23,18.87Z"/><path class="cls-35" d="M58.97,22.12c-7.57,19.06,8.21,43.22,35.24,53.96,27.04,10.74,55.09,3.99,62.66-15.07,7.57-19.06-8.21-43.22-35.24-53.96v7.53h-38.63V3.42c-11.34,2.73-20.25,9.18-24.03,18.71Z"/><path class="cls-11" d="M59.38,22.29c-7.51,18.9,8.14,42.86,34.95,53.5,26.81,10.65,54.63,3.96,62.14-14.94,7.51-18.9-8.14-42.86-34.95-53.5v7.24h-38.31V3.74c-11.24,2.7-20.08,9.1-23.83,18.55Z"/><path class="cls-68" d="M59.79,22.45c-7.44,18.74,8.07,42.49,34.65,53.05,26.58,10.56,54.17,3.93,61.61-14.81,7.44-18.74-8.07-42.49-34.65-53.05v6.95h-37.98V4.06c-11.15,2.68-19.91,9.02-23.63,18.39Z"/><path class="cls-96" d="M60.2,22.61c-7.38,18.58,8,42.13,34.36,52.6,26.35,10.47,53.7,3.89,61.08-14.69,7.38-18.58-8-42.13-34.36-52.6v6.66h-37.66V4.38c-11.05,2.66-19.74,8.95-23.43,18.24Z"/><path class="cls-29" d="M60.61,22.78c-7.32,18.42,7.93,41.77,34.06,52.14,26.13,10.38,53.24,3.86,60.56-14.56,7.32-18.42-7.93-41.77-34.06-52.14v6.37h-37.33V4.7c-10.96,2.63-19.57,8.87-23.22,18.08Z"/><path class="cls-47" d="M61.03,22.94c-7.25,18.26,7.86,41.4,33.76,51.69,25.9,10.29,52.78,3.83,60.03-14.43,7.25-18.26-7.86-41.4-33.76-51.69v6.08h-37.01V5.02c-10.86,2.61-19.4,8.79-23.02,17.92Z"/><path class="cls-3" d="M61.44,23.1c-7.19,18.1,7.79,41.04,33.47,51.24,25.67,10.2,52.31,3.79,59.5-14.31,7.19-18.1-7.79-41.04-33.47-51.24v5.79h-36.68V5.34c-10.77,2.59-19.23,8.71-22.82,17.76Z"/><path class="cls-88" d="M61.85,23.27c-7.13,17.94,7.73,40.68,33.17,50.78,25.45,10.11,51.85,3.76,58.98-14.18,7.13-17.94-7.73-40.68-33.17-50.78v5.5h-36.36V5.66c-10.67,2.57-19.06,8.64-22.62,17.61Z"/><path class="cls-19" d="M62.26,23.43c-7.06,17.78,7.66,40.31,32.87,50.33,25.22,10.02,51.39,3.73,58.45-14.05,7.06-17.78-7.66-40.31-32.87-50.33v5.21h-36.03V5.98c-10.58,2.54-18.89,8.56-22.42,17.45Z"/><path class="cls-9" d="M62.67,23.59c-7,17.62,7.59,39.95,32.58,49.88,24.99,9.93,50.92,3.69,57.92-13.93,7-17.62-7.59-39.95-32.58-49.88v4.92h-35.71V6.3c-10.48,2.52-18.72,8.48-22.21,17.29Z"/><path class="cls-111" d="M63.08,23.76c-6.94,17.46,7.52,39.59,32.28,49.42,24.76,9.84,50.46,3.66,57.4-13.8,6.94-17.46-7.52-39.59-32.28-49.42v4.63h-35.38V6.62c-10.39,2.5-18.55,8.41-22.01,17.14Z"/><path class="cls-120" d="M63.49,23.92c-6.87,17.3,7.45,39.22,31.99,48.97,24.54,9.75,50,3.63,56.87-13.67,6.87-17.3-7.45-39.22-31.99-48.97v4.34h-35.06V6.94c-10.29,2.47-18.37,8.33-21.81,16.98Z"/><path class="cls-91" d="M63.91,24.08c-6.81,17.14,7.38,38.86,31.69,48.52,24.31,9.66,49.54,3.59,56.34-13.55,6.81-17.14-7.38-38.86-31.69-48.52v4.05h-34.74V7.26c-10.2,2.45-18.2,8.25-21.61,16.82Z"/><path class="cls-87" d="M64.32,24.25c-6.74,16.98,7.31,38.5,31.39,48.06,24.08,9.57,49.07,3.56,55.82-13.42,6.74-16.98-7.31-38.5-31.39-48.06v3.76h-34.41V7.58c-10.1,2.43-18.03,8.18-21.41,16.66Z"/><path class="cls-110" d="M64.73,24.41c-6.68,16.82,7.24,38.13,31.1,47.61,23.86,9.48,48.61,3.52,55.29-13.29,6.68-16.82-7.24-38.13-31.1-47.61v3.47h-34.09V7.9c-10.01,2.41-17.86,8.1-21.2,16.51Z"/><path class="cls-106" d="M65.14,24.57c-6.62,16.66,7.17,37.77,30.8,47.16,23.63,9.39,48.15,3.49,54.76-13.17,6.62-16.66-7.17-37.77-30.8-47.16v3.18h-33.76v-6.36c-9.91,2.38-17.69,8.02-21,16.35Z"/><path class="cls-107" d="M65.55,24.74c-6.55,16.5,7.1,37.41,30.51,46.7,23.4,9.3,47.68,3.46,54.24-13.04,6.55-16.5-7.1-37.41-30.51-46.7v2.89h-33.44v-6.04c-9.82,2.36-17.52,7.94-20.8,16.19Z"/><path class="cls-99" d="M65.96,24.9c-6.49,16.34,7.04,37.04,30.21,46.25,23.17,9.21,47.22,3.42,53.71-12.91,6.49-16.34-7.04-37.04-30.21-46.25v2.6h-33.11v-5.72c-9.72,2.34-17.35,7.87-20.6,16.04Z"/><ellipse class="cls-150" cx="107.92" cy="41.57" rx="31.52" ry="44.71" transform="translate(29.45 126.52) rotate(-68.34)"/><ellipse class="cls-122" cx="107.92" cy="41.57" rx="31.21" ry="44.26" transform="translate(29.45 126.52) rotate(-68.34)"/><ellipse class="cls-144" cx="107.92" cy="41.57" rx="30.89" ry="43.82" transform="translate(29.45 126.52) rotate(-68.34)"/><ellipse class="cls-167" cx="107.92" cy="41.57" rx="30.58" ry="43.38" transform="translate(29.45 126.52) rotate(-68.34)"/><path class="cls-73" d="M68.02,25.72c-6.17,15.54,6.69,35.23,28.73,43.98,22.04,8.75,44.91,3.26,51.08-12.28,6.17-15.54-6.69-35.23-28.73-43.98-22.04-8.75-44.91-3.26-51.08,12.28Z"/><ellipse class="cls-145" cx="107.92" cy="41.57" rx="29.96" ry="42.49" transform="translate(29.45 126.52) rotate(-68.34)"/><ellipse class="cls-126" cx="107.92" cy="41.57" rx="29.65" ry="42.05" transform="translate(29.45 126.52) rotate(-68.34)"/><ellipse class="cls-153" cx="107.92" cy="41.57" rx="29.33" ry="41.61" transform="translate(29.45 126.52) rotate(-68.34)"/><ellipse class="cls-164" cx="107.92" cy="41.57" rx="29.02" ry="41.17" transform="translate(29.45 126.52) rotate(-68.34)"/><path class="cls-114" d="M70.08,26.54c-5.85,14.74,6.35,33.41,27.25,41.72,20.9,8.3,42.59,3.09,48.45-11.65,5.85-14.74-6.35-33.41-27.25-41.72-20.9-8.3-42.59-3.09-48.45,11.65Z"/><ellipse class="cls-155" cx="107.92" cy="41.57" rx="28.4" ry="40.28" transform="translate(29.45 126.52) rotate(-68.34)"/><ellipse class="cls-142" cx="107.92" cy="41.57" rx="28.09" ry="39.84" transform="translate(29.45 126.52) rotate(-68.34)"/><ellipse class="cls-148" cx="107.92" cy="41.57" rx="27.77" ry="39.4" transform="translate(29.45 126.52) rotate(-68.34)"/><ellipse class="cls-168" cx="107.92" cy="41.57" rx="27.46" ry="38.95" transform="translate(29.45 126.52) rotate(-68.34)"/><ellipse class="cls-131" cx="107.92" cy="41.57" rx="27.15" ry="38.51" transform="translate(29.45 126.52) rotate(-68.34)"/><ellipse class="cls-139" cx="107.92" cy="41.57" rx="26.84" ry="38.07" transform="translate(29.45 126.52) rotate(-68.34)"/><ellipse class="cls-157" cx="107.92" cy="41.57" rx="26.53" ry="37.62" transform="translate(29.45 126.52) rotate(-68.34)"/><ellipse class="cls-166" cx="107.92" cy="41.57" rx="26.21" ry="37.18" transform="translate(29.45 126.52) rotate(-68.34)"/><ellipse class="cls-162" cx="107.92" cy="41.57" rx="25.9" ry="36.74" transform="translate(29.45 126.52) rotate(-68.34)"/><path class="cls-13" d="M74.19,28.17c-5.22,13.13,5.66,29.78,24.29,37.18,18.63,7.4,37.96,2.75,43.18-10.38,5.22-13.13-5.66-29.78-24.29-37.18-18.63-7.4-37.96-2.75-43.18,10.38Z"/><ellipse class="cls-165" cx="107.92" cy="41.57" rx="25.28" ry="35.85" transform="translate(29.45 126.52) rotate(-68.34)"/><ellipse class="cls-158" cx="107.92" cy="41.57" rx="24.96" ry="35.41" transform="translate(29.45 126.52) rotate(-68.34)"/><ellipse class="cls-146" cx="107.92" cy="41.57" rx="24.65" ry="34.97" transform="translate(29.45 126.52) rotate(-68.34)"/><ellipse class="cls-128" cx="107.92" cy="41.57" rx="24.34" ry="34.53" transform="translate(29.45 126.52) rotate(-68.34)"/><ellipse class="cls-159" cx="107.92" cy="41.57" rx="24.03" ry="34.08" transform="translate(29.45 126.52) rotate(-68.34)"/><ellipse class="cls-141" cx="107.92" cy="41.57" rx="23.72" ry="33.64" transform="translate(29.45 126.52) rotate(-68.34)"/><path class="cls-105" d="M77.07,29.31c-4.77,12.01,5.17,27.24,22.21,34.01,17.04,6.77,34.72,2.52,39.49-9.5,4.77-12.01-5.17-27.24-22.21-34.01-17.04-6.77-34.72-2.52-39.49,9.5Z"/><ellipse class="cls-161" cx="107.92" cy="41.57" rx="23.09" ry="32.76" transform="translate(29.45 126.52) rotate(-68.34)"/><ellipse class="cls-129" cx="107.92" cy="41.57" rx="22.78" ry="32.31" transform="translate(29.45 126.52) rotate(-68.34)"/><ellipse class="cls-125" cx="107.92" cy="41.57" rx="22.47" ry="31.87" transform="translate(29.45 126.52) rotate(-68.34)"/><ellipse class="cls-163" cx="107.92" cy="41.57" rx="22.16" ry="31.43" transform="translate(29.45 126.52) rotate(-68.34)"/><path class="cls-44" d="M79.13,30.13c-4.45,11.21,4.83,25.42,20.73,31.74,15.9,6.32,32.41,2.35,36.86-8.86,4.45-11.21-4.83-25.42-20.73-31.74-15.9-6.32-32.41-2.35-36.86,8.86Z"/><ellipse class="cls-138" cx="107.92" cy="41.57" rx="21.53" ry="30.54" transform="translate(29.45 126.52) rotate(-68.34)"/><ellipse class="cls-123" cx="107.92" cy="41.57" rx="21.22" ry="30.1" transform="translate(29.45 126.52) rotate(-68.34)"/><path class="cls-80" d="M80.36,30.62c-4.26,10.73,4.62,24.33,19.84,30.38,15.22,6.05,31.02,2.25,35.28-8.48,4.26-10.73-4.62-24.33-19.84-30.38-15.22-6.05-31.02-2.25-35.28,8.48Z"/><path class="cls-78" d="M80.77,30.78c-4.2,10.57,4.55,23.97,19.55,29.93,14.99,5.96,30.55,2.22,34.75-8.36,4.2-10.57-4.55-23.97-19.55-29.93-15-5.96-30.56-2.22-34.75,8.36Z"/><ellipse class="cls-156" cx="107.92" cy="41.57" rx="20.28" ry="28.77" transform="translate(29.45 126.52) rotate(-68.34)"/><ellipse class="cls-132" cx="107.92" cy="41.57" rx="19.97" ry="28.33" transform="translate(29.45 126.52) rotate(-68.34)"/><path class="cls-86" d="M82.01,31.27c-4.01,10.09,4.35,22.88,18.66,28.57,14.31,5.69,29.17,2.11,33.17-7.98,4.01-10.09-4.35-22.88-18.66-28.57-14.31-5.69-29.17-2.11-33.17,7.98Z"/><ellipse class="cls-149" cx="107.92" cy="41.57" rx="19.35" ry="27.44" transform="translate(29.45 126.52) rotate(-68.34)"/><ellipse class="cls-1" cx="107.92" cy="41.57" rx="19.04" ry="27" transform="translate(29.45 126.52) rotate(-68.34)"/><ellipse class="cls-137" cx="107.92" cy="41.57" rx="18.72" ry="26.56" transform="translate(29.45 126.52) rotate(-68.34)"/><ellipse class="cls-140" cx="107.92" cy="41.57" rx="18.41" ry="26.12" transform="translate(29.45 126.52) rotate(-68.34)"/><path class="cls-65" d="M84.06,32.09c-3.69,9.29,4,21.06,17.18,26.3,13.18,5.23,26.85,1.95,30.54-7.34s-4-21.06-17.18-26.3c-13.18-5.23-26.85-1.95-30.54,7.34Z"/><path class="cls-48" d="M84.47,32.25c-3.63,9.13,3.93,20.7,16.88,25.85,12.95,5.14,26.39,1.91,30.02-7.22,3.63-9.13-3.93-20.7-16.88-25.85-12.95-5.14-26.39-1.91-30.01,7.22Z"/><path class="cls-72" d="M84.89,32.42c-3.56,8.97,3.86,20.34,16.59,25.39,12.72,5.05,25.93,1.88,29.49-7.09,3.56-8.97-3.86-20.34-16.59-25.39-12.72-5.05-25.93-1.88-29.49,7.09Z"/><ellipse class="cls-124" cx="107.92" cy="41.57" rx="17.16" ry="24.35" transform="translate(29.45 126.52) rotate(-68.34)"/><path class="cls-22" d="M85.71,32.75c-3.44,8.65,3.72,19.61,15.99,24.49,12.27,4.87,25,1.81,28.44-6.84,3.44-8.65-3.72-19.61-15.99-24.49-12.27-4.87-25-1.81-28.44,6.84Z"/><ellipse class="cls-160" cx="107.92" cy="41.57" rx="16.54" ry="23.46" transform="translate(29.45 126.52) rotate(-68.34)"/><path class="cls-34" d="M86.53,33.07c-3.31,8.33,3.59,18.89,15.4,23.58,11.81,4.69,24.07,1.75,27.38-6.58,3.31-8.33-3.59-18.89-15.4-23.58-11.81-4.69-24.07-1.75-27.38,6.58Z"/><path class="cls-6" d="M86.94,33.24c-3.24,8.17,3.52,18.52,15.1,23.12,11.59,4.6,23.61,1.71,26.86-6.46,3.24-8.17-3.52-18.52-15.1-23.12-11.59-4.6-23.61-1.71-26.86,6.46Z"/><path class="cls-101" d="M87.35,33.4c-3.18,8.01,3.45,18.16,14.81,22.67,11.36,4.51,23.15,1.68,26.33-6.33,3.18-8.01-3.45-18.16-14.81-22.67-11.36-4.51-23.15-1.68-26.33,6.33Z"/><ellipse class="cls-151" cx="107.92" cy="41.57" rx="15.29" ry="21.69" transform="translate(29.45 126.52) rotate(-68.33)"/><path class="cls-71" d="M88.18,33.73c-3.05,7.69,3.31,17.43,14.22,21.76,10.91,4.33,22.22,1.61,25.28-6.08,3.05-7.69-3.31-17.43-14.22-21.76-10.91-4.33-22.22-1.61-25.28,6.08Z"/><path class="cls-62" d="M88.59,33.89c-2.99,7.53,3.24,17.07,13.92,21.31,10.68,4.24,21.76,1.58,24.75-5.95,2.99-7.53-3.24-17.07-13.92-21.31-10.68-4.24-21.76-1.58-24.75,5.95Z"/><path class="cls-42" d="M89,34.05c-2.93,7.37,3.17,16.71,13.62,20.86,10.45,4.15,21.3,1.54,24.22-5.82,2.93-7.37-3.17-16.71-13.62-20.86-10.45-4.15-21.3-1.54-24.22,5.82Z"/><path class="cls-4" d="M89.41,34.22c-2.86,7.21,3.1,16.34,13.33,20.4,10.22,4.06,20.83,1.51,23.7-5.7,2.86-7.21-3.1-16.34-13.33-20.4-10.22-4.06-20.83-1.51-23.7,5.7Z"/><path class="cls-94" d="M89.82,34.38c-2.8,7.05,3.03,15.98,13.03,19.95,10,3.97,20.37,1.48,23.17-5.57,2.8-7.05-3.03-15.98-13.03-19.95-10-3.97-20.37-1.48-23.17,5.57Z"/><path class="cls-63" d="M90.23,34.54c-2.74,6.89,2.97,15.62,12.74,19.5,9.77,3.88,19.91,1.44,22.64-5.44,2.74-6.89-2.97-15.62-12.74-19.5-9.77-3.88-19.91-1.44-22.64,5.44Z"/><path class="cls-85" d="M90.64,34.71c-2.67,6.73,2.9,15.25,12.44,19.04,9.54,3.79,19.44,1.41,22.12-5.32,2.67-6.73-2.9-15.25-12.44-19.04-9.54-3.79-19.44-1.41-22.12,5.32Z"/><path class="cls-58" d="M91.06,34.87c-2.61,6.57,2.83,14.89,12.14,18.59,9.32,3.7,18.98,1.38,21.59-5.19,2.61-6.57-2.83-14.89-12.14-18.59-9.31-3.7-18.98-1.38-21.59,5.19Z"/><path class="cls-75" d="M91.47,35.03c-2.54,6.41,2.76,14.53,11.85,18.14,9.09,3.61,18.52,1.34,21.06-5.06,2.54-6.41-2.76-14.53-11.85-18.14-9.09-3.61-18.52-1.34-21.06,5.06Z"/><path class="cls-64" d="M91.88,35.2c-2.48,6.25,2.69,14.16,11.55,17.68,8.86,3.52,18.06,1.31,20.54-4.94,2.48-6.25-2.69-14.16-11.55-17.68-8.86-3.52-18.06-1.31-20.54,4.94Z"/><path class="cls-7" d="M92.29,35.36c-2.42,6.09,2.62,13.8,11.25,17.23,8.63,3.43,17.59,1.28,20.01-4.81,2.42-6.09-2.62-13.8-11.25-17.23-8.63-3.43-17.59-1.28-20.01,4.81Z"/><path class="cls-2" d="M92.7,35.52c-2.35,5.93,2.55,13.44,10.96,16.78,8.41,3.34,17.13,1.24,19.48-4.68,2.35-5.93-2.55-13.44-10.96-16.78-8.41-3.34-17.13-1.24-19.48,4.68Z"/><path class="cls-112" d="M93.11,35.69c-2.29,5.77,2.48,13.07,10.66,16.32,8.18,3.25,16.67,1.21,18.96-4.56,2.29-5.77-2.48-13.07-10.66-16.32-8.18-3.25-16.67-1.21-18.96,4.56Z"/><path class="cls-46" d="M93.52,35.85c-2.23,5.61,2.41,12.71,10.37,15.87,7.95,3.16,16.2,1.17,18.43-4.43,2.23-5.61-2.41-12.71-10.37-15.87-7.95-3.16-16.2-1.17-18.43,4.43Z"/><path class="cls-18" d="M93.94,36.01c-2.16,5.45,2.35,12.35,10.07,15.42,7.72,3.07,15.74,1.14,17.9-4.3,2.16-5.45-2.35-12.35-10.07-15.42-7.72-3.07-15.74-1.14-17.9,4.3Z"/><path class="cls-38" d="M94.35,36.18c-2.1,5.29,2.28,11.98,9.77,14.96,7.5,2.98,15.28,1.11,17.38-4.18,2.1-5.29-2.28-11.98-9.77-14.96-7.5-2.98-15.28-1.11-17.38,4.18Z"/><path class="cls-51" d="M94.76,36.34c-2.04,5.13,2.21,11.62,9.48,14.51,7.27,2.89,14.81,1.07,16.85-4.05,2.04-5.13-2.21-11.62-9.48-14.51-7.27-2.89-14.81-1.07-16.85,4.05Z"/><path class="cls-16" d="M95.17,36.5c-1.97,4.97,2.14,11.26,9.18,14.06,7.04,2.8,14.35,1.04,16.32-3.92,1.97-4.97-2.14-11.26-9.18-14.06-7.04-2.8-14.35-1.04-16.32,3.92Z"/><path class="cls-30" d="M95.58,36.67c-1.91,4.81,2.07,10.9,8.89,13.6,6.82,2.71,13.89,1.01,15.8-3.8,1.91-4.81-2.07-10.9-8.89-13.6-6.82-2.71-13.89-1.01-15.8,3.8Z"/><path class="cls-5" d="M95.99,36.83c-1.85,4.64,2,10.53,8.59,13.15,6.59,2.62,13.43,.97,15.27-3.67,1.85-4.64-2-10.53-8.59-13.15-6.59-2.62-13.43-.97-15.27,3.67Z"/><path class="cls-43" d="M96.4,36.99c-1.78,4.48,1.93,10.17,8.29,12.7,6.36,2.53,12.96,.94,14.74-3.54,1.78-4.48-1.93-10.17-8.29-12.7-6.36-2.53-12.96-.94-14.74,3.54Z"/><path class="cls-83" d="M96.82,37.16c-1.72,4.32,1.86,9.81,8,12.24,6.13,2.44,12.5,.91,14.22-3.42,1.72-4.32-1.86-9.81-8-12.24-6.13-2.44-12.5-.91-14.22,3.42Z"/><path class="cls-27" d="M97.23,37.32c-1.65,4.16,1.79,9.44,7.7,11.79,5.91,2.35,12.04,.87,13.69-3.29,1.65-4.16-1.79-9.44-7.7-11.79-5.91-2.35-12.04-.87-13.69,3.29Z"/><path class="cls-26" d="M97.64,37.48c-1.59,4,1.72,9.08,7.4,11.34,5.68,2.26,11.57,.84,13.16-3.17,1.59-4-1.72-9.08-7.4-11.34-5.68-2.26-11.57-.84-13.16,3.17Z"/><path class="cls-67" d="M98.05,37.65c-1.53,3.84,1.66,8.72,7.11,10.88,5.45,2.17,11.11,.81,12.64-3.04,1.53-3.84-1.66-8.72-7.11-10.88-5.45-2.17-11.11-.81-12.64,3.04Z"/><path class="cls-104" d="M98.46,37.81c-1.46,3.68,1.59,8.35,6.81,10.43,5.23,2.08,10.65,.77,12.11-2.91,1.46-3.68-1.59-8.35-6.81-10.43-5.23-2.08-10.65-.77-12.11,2.91Z"/><path class="cls-15" d="M98.87,37.97c-1.4,3.52,1.52,7.99,6.52,9.98s10.18,.74,11.58-2.79c1.4-3.52-1.52-7.99-6.52-9.98-5-1.99-10.18-.74-11.58,2.79Z"/><path class="cls-69" d="M99.28,38.14c-1.34,3.36,1.45,7.63,6.22,9.52,4.77,1.9,9.72,.7,11.06-2.66,1.34-3.36-1.45-7.63-6.22-9.52-4.77-1.9-9.72-.7-11.06,2.66Z"/><path class="cls-12" d="M99.7,38.3c-1.27,3.2,1.38,7.26,5.92,9.07,4.54,1.81,9.26,.67,10.53-2.53,1.27-3.2-1.38-7.26-5.92-9.07-4.54-1.81-9.26-.67-10.53,2.53Z"/><path class="cls-77" d="M100.11,38.46c-1.21,3.04,1.31,6.9,5.63,8.62,4.32,1.71,8.8,.64,10-2.41,1.21-3.04-1.31-6.9-5.63-8.62-4.32-1.71-8.8-.64-10,2.41Z"/><path class="cls-113" d="M100.52,38.63c-1.15,2.88,1.24,6.54,5.33,8.16,4.09,1.62,8.33,.6,9.48-2.28s-1.24-6.54-5.33-8.16-8.33-.6-9.48,2.28Z"/><path class="cls-37" d="M100.93,38.79c-1.08,2.72,1.17,6.17,5.03,7.71,3.86,1.53,7.87,.57,8.95-2.15s-1.17-6.17-5.03-7.71c-3.86-1.53-7.87-.57-8.95,2.15Z"/><path class="cls-93" d="M101.34,38.95c-1.02,2.56,1.1,5.81,4.74,7.25,3.64,1.44,7.41,.54,8.43-2.03,1.02-2.56-1.1-5.81-4.74-7.25-3.64-1.44-7.41-.54-8.43,2.03Z"/><path class="cls-54" d="M101.75,39.12c-.95,2.4,1.03,5.45,4.44,6.8,3.41,1.35,6.94,.5,7.9-1.9,.95-2.4-1.03-5.45-4.44-6.8s-6.94-.5-7.9,1.9Z"/><path class="cls-90" d="M102.16,39.28c-.89,2.24,.97,5.08,4.15,6.35,3.18,1.26,6.48,.47,7.37-1.77,.89-2.24-.97-5.08-4.15-6.35-3.18-1.26-6.48-.47-7.37,1.77Z"/><path class="cls-116" d="M102.57,39.45c-.83,2.08,.9,4.72,3.85,5.89,2.95,1.17,6.02,.44,6.85-1.65s-.9-4.72-3.85-5.89c-2.95-1.17-6.02-.44-6.85,1.65Z"/><path class="cls-79" d="M102.99,39.61c-.76,1.92,.83,4.36,3.55,5.44,2.73,1.08,5.56,.4,6.32-1.52,.76-1.92-.83-4.36-3.55-5.44-2.73-1.08-5.56-.4-6.32,1.52Z"/><path class="cls-20" d="M103.4,39.77c-.7,1.76,.76,3.99,3.26,4.99,2.5,.99,5.09,.37,5.79-1.39,.7-1.76-.76-3.99-3.26-4.99-2.5-.99-5.09-.37-5.79,1.39Z"/><path class="cls-39" d="M103.81,39.94c-.64,1.6,.69,3.63,2.96,4.53,2.27,.9,4.63,.34,5.27-1.27s-.69-3.63-2.96-4.53c-2.27-.9-4.63-.34-5.27,1.27Z"/><path class="cls-74" d="M104.22,40.1c-.57,1.44,.62,3.27,2.67,4.08,2.04,.81,4.17,.3,4.74-1.14,.57-1.44-.62-3.27-2.67-4.08s-4.17-.3-4.74,1.14Z"/><path class="cls-66" d="M104.63,40.26c-.51,1.28,.55,2.91,2.37,3.63,1.82,.72,3.7,.27,4.21-1.01,.51-1.28-.55-2.91-2.37-3.63-1.82-.72-3.7-.27-4.21,1.01Z"/><path class="cls-33" d="M105.04,40.43c-.45,1.12,.48,2.54,2.07,3.17,1.59,.63,3.24,.24,3.69-.89,.45-1.12-.48-2.54-2.07-3.17-1.59-.63-3.24-.24-3.69,.89Z"/><path class="cls-50" d="M105.45,40.59c-.38,.96,.41,2.18,1.78,2.72s2.78,.2,3.16-.76-.41-2.18-1.78-2.72-2.78-.2-3.16,.76Z"/><path class="cls-103" d="M105.87,40.75c-.32,.8,.34,1.82,1.48,2.27,1.14,.45,2.31,.17,2.63-.63,.32-.8-.34-1.82-1.48-2.27-1.14-.45-2.31-.17-2.63,.63Z"/><path class="cls-25" d="M106.28,40.92c-.25,.64,.28,1.45,1.18,1.81,.91,.36,1.85,.13,2.11-.51,.25-.64-.28-1.45-1.18-1.81-.91-.36-1.85-.13-2.11,.51Z"/><path class="cls-119" d="M106.69,41.08c-.19,.48,.21,1.09,.89,1.36s1.39,.1,1.58-.38c.19-.48-.21-1.09-.89-1.36s-1.39-.1-1.58,.38Z"/><path class="cls-89" d="M107.1,41.24c-.13,.32,.14,.73,.59,.91,.45,.18,.93,.07,1.05-.25,.13-.32-.14-.73-.59-.91-.45-.18-.93-.07-1.05,.25Z"/><path class="cls-23" d="M107.51,41.41c-.06,.16,.07,.36,.3,.45,.23,.09,.46,.03,.53-.13,.06-.16-.07-.36-.3-.45-.23-.09-.46-.03-.53,.13Z"/></g></g><path class="cls-133" d="M95.93,37.89c-1.64,4.24,4.68,10.64,14.11,14.29,9.44,3.66,18.42,3.18,20.06-1.05,1.64-4.24-4.68-10.64-14.11-14.29s-18.42-3.18-20.06,1.05Z"/><path class="cls-28" d="M226.83,205.96s-8.76,4.57-15.35,2.51c-6.59-2.05-5.78-9.33-5.78-9.33,0,0-2.75,5.18,.81,13.27,0,0,13.1,.08,20.32-6.45Z"/><path class="cls-24" d="M7.57,132.15c3.12,3.97,6.03,6.16,6.03,6.16,0,0,5.66-3.75,7.44-10.86,0,0-.07-1.34-.27-3.35,0,0-2.29,7.05-13.2,8.05Z"/><circle class="cls-127" cx="116.76" cy="181.55" r="10.89"/><path class="cls-59" d="M109.92,181.55c0,3.78,3.06,6.85,6.85,6.85s6.85-3.07,6.85-6.85-3.06-6.85-6.85-6.85-6.85,3.06-6.85,6.85Z"/><path class="cls-14" d="M160,167.48s-13.52,7.23-13.52-12.39c0,0,9.71,9.11,13.52,12.39Z"/><path class="cls-136" d="M89.41,293.85l.08-.41c-.37-.07-36.71-7.6-43.39-20.48l-.37,.19c6.77,13.05,42.18,20.39,43.68,20.69Z"/><path class="cls-136" d="M115.52,303.12c.02-.09,2.42-9.01,8.56-17.86,9.66-13.94,36.96-25.5,37.24-25.61l-.16-.38c-.28,.12-27.69,11.72-37.42,25.76-6.18,8.92-8.6,17.9-8.62,17.99l.4,.11Z"/><path class="cls-136" d="M188.29,229.66l.41-.07c-3.38-19.57,.12-30.04,3.65-35.37,3.8-5.75,8.43-6.92,8.48-6.93l-.1-.4c-.2,.05-4.84,1.22-8.73,7.1-3.57,5.4-7.11,15.97-3.71,35.67Z"/><path class="cls-136" d="M24.99,166.81c19.49-13.7,8.53-42.95,8.41-43.24l-.39,.15c.11,.29,10.96,29.24-8.26,42.76l.24,.34Z"/><path class="cls-121" d="M113.64,213.82s-.08,2.79,1.1,7.33l5.16-.54s.03-4.09-2.29-7.16l-3.96,.37Z"/><path class="cls-121" d="M190.12,187.09s-2.83-.08-5.14-1.55l-2.62,1.55s2.9,3.5,6.27,2.45l1.48-2.45Z"/><path class="cls-121" d="M161.7,300.13s2.14,3.44,2.14,7.12l-3.94,1.55-1.63-7.02,3.42-1.65Z"/><path class="cls-121" d="M27.41,119.11s1.81,1.69,2.28,4.99l3.07,1.85s-.36-1.61-1.18-3.11c-.82-1.49-4.17-3.73-4.17-3.73Z"/><path class="cls-121" d="M46.93,284.59s-4.85,7.47-5.47,11.66l-3.46-1.36s.84-6.5,4.82-11.53l4.11,1.24Z"/><path class="cls-121" d="M165.31,23.61s-16.89-14.39-29.55-18.56c0,0,46.36,10.38,29.55,18.56Z"/><polygon class="cls-121" points="174.78 76.74 168.1 72.04 163.34 79.45 170.02 83.35 174.78 76.74"/></g></g></g></g></svg>