<?xml version="1.0" encoding="UTF-8"?><svg id="Capa_2" xmlns="http://www.w3.org/2000/svg" xmlns:xlink="http://www.w3.org/1999/xlink" viewBox="0 0 376 376"><defs><style>.cls-1{fill:#fff;}.cls-2{opacity:.1;}.cls-2,.cls-3{fill:#0bd6d6;}.cls-3{opacity:.3;}.cls-4{fill:#10fcf5;}.cls-5{clip-path:url(#clippath);}.cls-6{fill:none;}.cls-7{fill:#fbff69;}.cls-8{fill:#204e84;}</style><clipPath id="clippath"><rect class="cls-6" width="376" height="376"/></clipPath></defs><g id="Fondo"><g class="cls-5"><g><circle class="cls-8" cx="43.17" cy="186" r="157.96" transform="translate(-146.71 206.12) rotate(-82.98)"/><path class="cls-3" d="M-.59,114.17c-28.33,23.74-59.8,32.84-70.27,20.33-10.48-12.51,4-41.89,32.33-65.63C-10.2,45.14,21.26,36.04,31.74,48.55c10.48,12.51-4,41.89-32.33,65.63Z"/><path class="cls-2" d="M112.65,226.89c25.26-31.44,58.93-46.33,75.19-33.26,16.27,13.07,8.97,49.15-16.29,80.59-25.26,31.44-58.93,46.33-75.19,33.26-16.26-13.07-8.97-49.15,16.29-80.59Z"/><path class="cls-3" d="M-11.32,240.03c17.89,25.5,23.81,52.19,13.23,59.61-10.58,7.42-33.66-7.23-51.55-32.73-17.89-25.5-23.81-52.19-13.23-59.61,10.58-7.42,33.66,7.23,51.55,32.73Z"/><path class="cls-3" d="M59.67,110.14c-36.87,2.58-67.69-8.52-68.83-24.8-1.14-16.28,27.83-31.57,64.7-34.15,36.87-2.58,67.69,8.52,68.83,24.79,1.14,16.28-27.83,31.57-64.7,34.15Z"/><path class="cls-4" d="M-107.66,233.06s-39.72,29.46-29.83,44.2c9.89,14.74,107.89-.1,219.07-66.29,121.08-72.08,177.56-128.05,165.84-139.45-17.43-16.96-83.86,12.72-83.86,12.72l-3.77-4.24s93.51-35.67,124.85-16.49c23.09,14.13,26.13,69.1-142.28,164.42-124.85,70.67-256.29,90.93-292.1,67.37-22.38-14.72,40.07-69.26,40.07-69.26l2.01,7.03Z"/><path class="cls-1" d="M-133.01,288.94s45.53,6.73,114.48-18.73c45.93-16.96,109.31-44.65,149.11-68.9,75.97-46.29,127.91-113.42,132.15-125.44,4.24-12.01-18.37-15.19-18.37-15.19,0,0,38.52-3.18,31.45,17.31-7.07,20.49-29.68,58.66-132.5,124.38C59.77,255.76-8.28,279.05-89.9,291.06c-24.51,3.61-43.11-2.12-43.11-2.12Z"/><path class="cls-7" d="M47.55,264.56s138.51-66.78,189.75-124.38c33.78-37.97,39.93-53.71,42.4-60.78,2.47-7.07-3.53-15.19-3.53-15.19,0,0,11.79,6.36,9.54,18.02-3.89,20.14-34.63,63.6-91.16,102.47-63.81,43.87-146.99,79.86-146.99,79.86Z"/></g></g></g></svg>