<?xml version="1.0" encoding="UTF-8"?><svg id="Capa_2" xmlns="http://www.w3.org/2000/svg" viewBox="0 0 180.35 178.92"><defs><style>.cls-1{opacity:.3;}.cls-1,.cls-2,.cls-3{fill:#9ce8e6;}.cls-2,.cls-4{opacity:.2;}.cls-5{fill:#0cc1bc;}.cls-6{fill:#0b8980;}.cls-7{opacity:.1;}.cls-4{fill:#fff200;}</style></defs><g id="Capa_2-2"><g><g class="cls-7"><path class="cls-3" d="M68.52,1.97c.15-.16,.32-.31,.48-.45l.47-1.17c-.34,.36-.55,1.19-.95,1.62Z"/><path class="cls-3" d="M171,101.88c-2.3-7.31,.46-12.58,2.34-19.64,2.14-8.02,.29-15.52-3.55-22.72-2.57-4.82-9.57-8.55-11.41-13.31-1.71-4.43,2.28-9.59,.93-14.38-1.78-6.32-8.16-10.99-14.15-12.81-4.57-1.39-9.42-.32-13.82-1.54-3.81-1.05-4.65-3.9-7.05-6.54C119.22,5.36,109.03,.19,101.29,1.22c-7.01,.93-10.13,5.13-17.22,1.89-4.04-1.85-11.05-5-15.06-1.59l-1.3,3.24c-3.07,2.97-3.86,4.48-8.4,4.32-4.16-.15-8.44-1.09-12.81-.78-6.28,.44-12.29,3.41-16.7,7.98-3.6,3.72-3.01,6.89-4.04,11.47-2.67,11.84-15.4,17.81-21.67,27.29-3.18,4.81-5.55,10.87-3.01,16.47,1.89,4.15,6.09,6.67,7.75,11.01,5.74,15.07-12.87,29.09-7.51,44.56,4.35,12.56,21.61,9.75,27.82,20.86,4.6,8.22,8.18,15.57,17.8,18.59,9.42,2.96,18.63,3.49,28.3,2.53,6.27-.62,14.02-2.01,20.3-.48,8.87,2.17,13.74,11.52,23.83,10.23,16.1-2.06,26.85-16.55,35.48-28.44,6.78-9.34,22.6-10.35,25.21-23.19,1.94-9.54-6.4-16.85-9.06-25.29Z"/></g><circle class="cls-1" cx="88.91" cy="89.75" r="72.91" transform="translate(-13.92 163.14) rotate(-80.78)"/><circle class="cls-6" cx="89.12" cy="88.82" r="65.85"/><path class="cls-5" d="M137.19,44.85c-4.73-5.89-11.93-9.12-18.67-11.91-13.9-5.75-28.44-4.81-42.86-2.09-12.89,2.43-26.25,6.04-35.47,16.64-8.98,10.32-11.76,22.88-5.53,35.46,4.13,8.34,9.22,11.81,18.46,12.84,7.5,.83,18.19-.9,24.75-4.76,17.47-10.29,15.31-38.61-5.57-41.75-6.79-1.02-16.24,4.49-13.99,12.47,2.6,9.24,16.62,.5,9.68-2.31-1.74-.71-2.68,1.75-2.6,1.77-5.63-1.33,2.31-11.27,7.71-2.65,3.49,5.57,4.43,12.52-.65,17.66-11.5,11.66-32.22-2.31-29.94-17.12,2.33-15.14,32.48-20.72,44.19-22.1,37.56-4.42,41.04,23.54,44.63,32.26,4.24,10.29,.84,20.96-7.52,30.06-9.59,10.44-27.78,21.97-41.53,20.76-40.21-3.54-52.6-19.66-56.12-17.68-2.01,1.13,.3,6.86,1.65,10.55,4.59,12.48,15.23,19.34,26.64,23.81,20.3,7.95,45.8,7.26,64.51-5.63,13.55-9.34,27.24-24.94,31.72-41.54,5.84-21.65-11.09-41.76-13.49-44.75Z"/><path class="cls-5" d="M116.32,68.4c-2.51-8.76-7.23-17.41-14.93-22.65-6.78-4.62-20.96-5.98-27.71-1.01-4.09,3.1,11.63-3.9,25.38,6.51,3.4,2.58,4.73,7.02,5.86,10.96,2.41,8.35,3.74,12.83-.44,21.21-7.23,14.51-19.43,17.32-34.14,18.56-13.38,1.13-27.26-.7-36.8-10.93-1.2-1.29-3.7-6.16-6.04-5.89-4.57,.54,.87,6.24,2.29,7.86,5.07,5.77,10.07,9.34,17.57,10.74,16.36,3.05,29.86,10.57,46.4,3.41,9.11-3.94,15.81-9.22,21.1-17.59,4.14-6.55,3.51-13.98,1.45-21.2Z"/><path class="cls-4" d="M89.21,154.29c36.37,0,65.85-29.48,65.85-65.85,0-30.62-20.9-56.36-49.21-63.73-.4,2.45-.03,5.39,1.4,8.78,5.29,12.65,16.34,22.84,21.9,35.33,11.67,26.19,8.63,56.89-23.01,65.22-12.82,3.37-28.58,1.28-39.09-6.61-12.1-9.08-10.07-23.21-7.78-36.49,2.27-13.21,12.93-34.15,6.01-47.43-1.83-3.52-8.84-11.2-16.76-6.86-15.32,12.06-25.16,30.77-25.16,51.78,0,36.37,29.48,65.85,65.85,65.85Z"/><path class="cls-2" d="M91.65,53.68c-.36,.25-5.58-3.66-5.58-3.66-13.23-7.91-31.17,.8-39.91,11.53-11.27,13.83-2.78,37.43,16.98,34.39,12.78-1.97,20.12-8.65,27.98-18.07,7.11-8.53,5.39-15.4,.53-24.19Z"/></g></g></svg>