<?xml version="1.0" encoding="UTF-8"?><svg id="Capa_2" xmlns="http://www.w3.org/2000/svg" viewBox="0 0 134.3 133.48"><defs><style>.cls-1,.cls-2{fill:#fff;}.cls-3{fill:#9ce8e6;}.cls-3,.cls-2{opacity:.3;}.cls-4,.cls-5{opacity:.5;}.cls-4,.cls-6{fill:#97fc68;}.cls-7{fill:#51b769;}.cls-5,.cls-8{fill:#10fcf5;}.cls-9{opacity:.4;}.cls-10{fill:#0bd6d6;}.cls-6{opacity:.6;}</style></defs><g id="Capa_2-2"><g><g><circle class="cls-7" cx="83.53" cy="72.61" r="46.33" transform="translate(.29 145.55) rotate(-82.23)"/><path class="cls-3" d="M76.72,26.82c25.29-3.89,48.94,13.46,52.82,38.75,3.27,21.29-8.51,41.42-27.41,49.57-.54-1.66-.59-3.74,.03-6.26,2.33-9.36,8.92-17.63,11.45-26.91,5.31-19.46-.08-40.48-22.97-42.89-9.28-.98-20.01,2.17-26.47,8.77-7.44,7.61-4.52,17.21-1.51,26.2,2.99,8.94,12.64,22.36,9.24,32.34-.9,2.64-4.95,8.73-10.92,6.56-11.94-6.75-20.78-18.71-23.03-33.31-3.89-25.29,13.46-48.94,38.75-52.82Z"/><path class="cls-6" d="M102.71,42.45c10.58,2.97,16.68,13.06,18.35,17.2,3.94,9.77,4.06,19.25-.94,28.33-4.68,8.5-12.21,14.28-22.56,18.35-10.16,4-18.61,3.2-25.59-4.04-14.13-14.64,25.75-21.24,26.93-34.94,1.14-13.2-8.35-10.58-8.82-17.11-.46-6.42,7.66-9.19,12.64-7.79Z"/><path class="cls-4" d="M63.1,45.75c9.27-2.97,15.49,6.26,17.36,14.17,.95,4.05,.88,9.17-3.47,11.31-4.51,2.22-4.91-1.76-8.39-2.82-6.61-2.01-5.28,5.23-6.95,8.96l-.82,3.97c.44,4.35-5.21,4.56-7.91,3.23-3.31-1.63-5.23-5.92-6.34-9.25-2.4-7.22-.14-12.05,4.44-17.4,3.58-4.19,6.59-10.41,12.09-12.18Z"/><path class="cls-2" d="M102.43,43.38c.86-2.11,1.74-3.48,4.34-3.25,1.67,.15,3.01,.92,4.46,1.69,.07,.04,.13,.08,.2,.12l3.11,2.67c2.26,3.44,3.3,8.4,3.25,12.5-.09,7.51-3.92,14.68-10.6,18.23-5.65,3-13.31,3.72-19.42,1.57-6.16-2.17-11.57-10.46-8.58-16.9,2.47-5.32,10.25-7.44,15.27-9.19,3.99-1.39,6.41-3.57,7.98-7.44Z"/></g><g class="cls-9"><path class="cls-10" d="M14.21,.67c4.68,.3,7.68,3.51,11.84,5.18,3.46,1.39,6.53,2.51,9.68,4.61,2.31,1.53,4.56,1.85,7.04,2.87,1.71,.7,3.39,1.62,5,2.51,2.29,1.27,3.87,2.81,5.72,4.51,1.48,1.36,4.44,2.78,5.22,4.67,.49,1.18,2.68,5.06,2.16,6.15-.65,1.35-4.25-1.3-5.64-.56-2.12,1.14-4,.55-6.05-.53-2.61-1.38-5.2-2.18-8.13-2.34-2.39-.13-4.45-.39-6.4,1.17-1.73,1.38-2.76,2.53-2.34,4.92,.59,3.39,2.44,4.76,5.11,6.45,2.35,1.49,3.86,3.87,5.67,5.94,4.43,5.06,9.92,9.22,14.69,13.95,4.85,4.8,9.1,10.2,14.01,14.94,5.35,5.16,10.83,10.15,16.08,15.43,4.12,4.15,8.58,8.2,13.41,11.45,3.8,2.55,6.93,5.78,10.47,8.7,2.67,2.2,5.68,3.88,8.57,5.77,1.61,1.05,4.01,3.69,5.91,3.86,3.12,.28,3.17-4.19,2.97-6.21-.46-4.57-4.56-11.95-7.3-15.53l1.31-1.75c2.89,1.69,5.62,5.98,6.66,7.93,1.67,3.12,2.07,6.46,3.09,9.83,1.26,4.15,1.71,8.66,.95,12.97-.43,2.41-2.26,5.79-5.02,5.95-2.63,.15-4.65-2.66-6.18-4.38-2.34-2.64-4.85-4.83-8.11-6.24-6.05-2.62-13.05-2.93-18.74-6.37-8.29-5.02-15.06-12.54-22.08-19.11-4.08-3.82-9.03-6.65-13.36-10.2-5.89-4.82-11.52-9.96-16.29-15.91-1.72-2.14-3.33-4.34-5.2-6.35-2.51-2.7-5.56-4.45-8.23-6.92-4.47-4.16-6.9-9.99-9.95-15.17-4.69-7.98-11.69-14.13-14.79-23.04-.5-1.42-1.09-3.05-2.09-4.21-1-1.17-2.28-2.1-2.97-3.53C-.02,10.04-.47,4.69,.69,2.77,3.28-1.56,10.31,.42,14.21,.67Z"/></g><path class="cls-8" d="M35.43,21.16c1.82,.46,3.51,1.12,5.35,1.63,2.09,.57,4.12,.33,6.19,.76,2.66,.55,9.28,6.16,3.5,5.11-3.94-.72-6.01-4.18-9.91-5.35-3.58-1.08-8.36-2.08-11.38,.42-4.14,3.42-3.26,8.32-.23,12.1,3.38,4.21,6.95,8.36,10.45,12.54,6.74,8.06,14.12,15.63,21.27,23.43,3.44,3.76,7.41,6.81,10.91,10.49,3.55,3.72,7.69,5.59,11.76,8.58,7.63,5.6,13.07,13.51,21.16,18.65,4.04,2.56,8.2,5.08,12.34,7.48,2.9,1.68,6.83,3.97,8.44,7.09l2.11,2.08c.55,.74,.67,2.01-.32,2.26-.68,.17-1.92-1.14-2.35-1.5-1.66-1.39-3.24-3.17-4.54-4.95-1.58-2.16-2.22-3.69-4.89-4.53-2.55-.81-5.06-1.42-7.36-2.8-5.98-3.62-10.82-9.17-15.77-14.19-3.08-3.13-7.46-3.6-11.03-6.33-3.76-2.87-7.45-6.05-10.88-9.3-7.19-6.82-14.41-12.82-20.3-21.11-7.01-9.86-17.95-16.19-24.16-26.61-2.34-3.93-4.03-10.32-.5-14.06,2.57-2.71,6.81-2.69,10.12-1.86Z"/><path class="cls-5" d="M62.81,83.26c-2.37-.47-3.66-3.65-5.03-5.39-1.59-2.04-3.58-3.69-5.23-5.71-3.48-4.27-7-8.67-11.6-11.73-3.44-2.28-7.06-4.49-9.63-7.75-3.49-4.43-6.17-9.45-9.09-14.24-2.63-4.33-4.63-8.97-7.4-13.17-2.16-3.27-4.71-6.04-6.72-9.47-1.76-2.98-2.53-9.52,2.36-9.48,5.67,.04,10.41,4.8,15.8,5.79,2.7,.5,5.53,.84,8.04,2.13,.87,.44,3.64,2.23,3.86,3.14,.63,2.57-7.5-.48-8.99-.84-3.75-.91-8.23-3.18-12.17-2.31-4.66,1.03-.72,5.92,.33,8.41,1.41,3.35,3.11,6.69,4.98,9.87,.96,1.63,2.17,3.09,2.89,4.8,.67,1.6,1.06,3.32,1.99,4.89,2.11,3.58,4.19,7.22,6.48,10.63,2.19,3.25,5.16,5.03,8.18,7.27,2.53,1.88,3.97,4.15,6.03,6.45,1.95,2.19,4.22,4.05,6.15,6.36,2.02,2.43,4.08,4.72,6.37,6.74,1.76,1.56,5.51,3.74,5.02,6.34-.53-.49-1.12-.58-1.52-.71l-1.08-2.02Z"/><path class="cls-8" d="M129.64,126.91l-.4-.23c-2.77-1.41,.52-3.17,1.08-4.86,.51-1.54-.16-3.83,1.11-4.96,.84,1.62,1.1,10.87-1.79,10.06Z"/><path class="cls-1" d="M7.61,5.95l.11,.17c1.2,1.37,2.95,5.71-.14,3.56-2.02-1.41-2.45-6.34,.02-3.73Z"/><path class="cls-1" d="M51.89,25.59l.17,.11c1.64,.78,4.98,4.06,1.29,3.32-2.41-.49-4.78-4.84-1.47-3.43Z"/><path class="cls-1" d="M15.35,9.87l.18,.1c1.7,.63,5.31,3.62,1.57,3.2-2.45-.28-5.17-4.41-1.76-3.29Z"/><path class="cls-1" d="M36.34,19.54l.11,.06c1.06,.29,3.03,2.39,.54,2.64-1.63,.16-2.8-3.13-.65-2.7Z"/><path class="cls-1" d="M38.99,58.7l.11,.06c1.06,.29,3.03,2.39,.54,2.64-1.63,.16-2.8-3.13-.65-2.7Z"/><path class="cls-1" d="M36.9,44.95l.11,.06c1.06,.29,3.03,2.39,.54,2.64-1.63,.16-2.8-3.13-.65-2.7Z"/><path class="cls-1" d="M35.84,40.69l.11,.06c1.06,.29,3.03,2.39,.54,2.64-1.63,.16-2.8-3.13-.65-2.7Z"/><path class="cls-1" d="M75.17,95.69l.11,.06c1.06,.29,3.03,2.39,.54,2.64-1.63,.16-2.8-3.13-.65-2.7Z"/><path class="cls-1" d="M69.66,86.17l.11,.06c1.06,.29,3.03,2.39,.54,2.64-1.63,.16-2.8-3.13-.65-2.7Z"/><path class="cls-1" d="M91.88,97.37l.11,.06c1.06,.29,3.03,2.39,.54,2.64-1.63,.16-2.8-3.13-.65-2.7Z"/><path class="cls-1" d="M96.02,113.49l.11,.06c1.06,.29,3.03,2.39,.54,2.64-1.63,.16-2.8-3.13-.65-2.7Z"/><path class="cls-1" d="M77.15,91.91l.11,.06c1.06,.29,3.03,2.39,.54,2.64-1.63,.16-2.8-3.13-.65-2.7Z"/><path class="cls-1" d="M58.01,67.29l.11,.06c1.06,.29,3.03,2.39,.54,2.64-1.63,.16-2.8-3.13-.65-2.7Z"/><path class="cls-1" d="M12.04,1.77l.11,.06c1.06,.29,3.03,2.39,.54,2.64-1.63,.16-2.8-3.13-.65-2.7Z"/><path class="cls-1" d="M112.83,115.01l.11,.06c1.06,.29,3.03,2.39,.54,2.64-1.63,.16-2.8-3.13-.65-2.7Z"/><path class="cls-1" d="M108.8,115.8l.04,.12c.58,.93,.59,3.81-1.4,2.3-1.3-.99,.08-4.2,1.36-2.42Z"/><path class="cls-1" d="M130.1,127.85l.04,.12c.58,.93,.59,3.81-1.4,2.3-1.3-.99,.08-4.2,1.36-2.42Z"/><path class="cls-1" d="M132.95,122.76l.04,.12c.58,.93,.59,3.81-1.4,2.3-1.3-.99,.08-4.2,1.36-2.42Z"/><path class="cls-1" d="M58.65,71.74l.11,.06c1.06,.29,3.03,2.39,.54,2.64-1.63,.16-2.8-3.13-.65-2.7Z"/></g></g></svg>