<?xml version="1.0" encoding="UTF-8"?><svg xmlns="http://www.w3.org/2000/svg" xmlns:xlink="http://www.w3.org/1999/xlink" viewBox="0 0 507.78 319.41"><defs><style>.cls-1{fill:#f08929;}.cls-2{fill:#cfd1d3;mix-blend-mode:multiply;}.cls-2,.cls-3{opacity:.6;}.cls-4{fill:#c03b35;}.cls-5{fill:#28293e;}.cls-6{isolation:isolate;}.cls-7{fill:url(#linear-gradient-2);}.cls-7,.cls-8,.cls-9{mix-blend-mode:overlay;}.cls-7,.cls-9{opacity:.2;}.cls-10{stroke-width:5px;}.cls-10,.cls-11{fill:#d0493f;stroke:#f1eccc;stroke-miterlimit:10;}.cls-12{fill:#aa2b22;}.cls-13{fill:#ea5b2b;}.cls-14{fill:#702c86;}.cls-3,.cls-15{fill:#c75f9f;}.cls-16{fill:none;}.cls-17{mix-blend-mode:screen;}.cls-17,.cls-15{opacity:.3;}.cls-8{fill:#fff;opacity:.5;}.cls-18{fill:#f6b92e;}.cls-9{fill:url(#linear-gradient);}.cls-11{stroke-width:3px;}</style><linearGradient id="linear-gradient" x1="268.74" y1="23.36" x2="268.74" y2="298.72" gradientUnits="userSpaceOnUse"><stop offset="0" stop-color="#fff"/><stop offset=".67" stop-color="#f7b76c"/><stop offset="1" stop-color="#f39322"/></linearGradient><linearGradient id="linear-gradient-2" x1="266.23" y1="155.46" x2="209.8" y2="-94.05" xlink:href="#linear-gradient"/></defs><g class="cls-6"><g id="Capa_2"><g id="Capa_2-2"><g><g><g><g class="cls-17"><path class="cls-18" d="M110.5,224.35s15.69,55.21,83.99,81.22c68.31,26.01,146.63,14.69,194.29-28.29,53.62-48.37,53.26-165.96,15.68-212.18C365.5,17.18,313.06-4.44,243.06,.75,169.19,6.23,58.89,87.45,110.5,224.35Z"/><path class="cls-5" d="M110.5,224.35s15.69,55.21,83.99,81.22c68.31,26.01,146.63,14.69,194.29-28.29,53.62-48.37,53.26-165.96,15.68-212.18C365.5,17.18,313.06-4.44,243.06,.75,169.19,6.23,58.89,87.45,110.5,224.35Z"/></g><g><path class="cls-13" d="M152.03,257.46c19.03,20.41,50.23,31.73,75.02,37.01,29.28,6.24,65.74,6.14,92.54-3.55,24.91-6.25,51.85-29.98,64.81-44.31,22.17-24.53,25.69-50.27,28.67-84.19,5.49-62.66-52.48-132.94-118.38-138.37-62.62-5.16-139.78,17.7-160.61,80.55-14.72,44.41-16.6,115.79,17.96,152.86Z"/><path class="cls-1" d="M343.28,280.61c-.61-1.47-1.31-2.93-2.19-4.36-2.16-3.49-6.07-5.6-8.31-9.07-2.28-3.53-1.98-6.4-3.33-10.11-3.45-9.48-7.7-6.24-14.88-11.77-7.24-5.57-4.35-20.65-13.49-23.45-6.98-2.14-13.1,1.82-20.58-2.61-6.2-3.67-10.55-6.51-18.32-5.81-10.24,.92-13.4,9.56-21.69,13.59-6.79,3.3-14.82,1.12-21.84,4.02-16.59,6.86-11.26,23.07-22.54,32.95-5.72,5.02-9.17,6.41-9.86,14.42-.07,.84-.13,1.71-.19,2.6,13.67,6.37,28.18,10.73,40.99,13.46,29.28,6.24,65.74,6.14,92.54-3.55,7.87-1.97,15.93-5.69,23.69-10.3Z"/><path class="cls-1" d="M391.26,182.25c-11.24,4.84-26.63,2.74-33.12,14.93-2.92,5.47-1.58,11.39-3.5,16.05-3.27,7.91-5.36,9.85-.9,18.52,1.16,2.26,3.19,3.64,3.73,6.25,1.16,5.6-2.33,10.04,1.22,15.6,2.48,3.89,6.46,6.16,11.1,7.33,5.79-5.13,10.81-10.14,14.6-14.34,16.87-18.66,22.93-38.04,26.18-61.17-4.47-4.84-9.58-7.38-19.31-3.19Z"/><path class="cls-1" d="M199.81,159.9c-3.07-4.88-.45-11.13-2.27-16.2-2.24-6.24-6.34-6.71-12-9.72-5.23-2.78-6.52-9.27-11.24-11.48-9.9-4.64-24.05,3.26-34.55-.46-3.49-1.24-6.78-2.08-9.91-2.41-10.47,44.19-8.7,104.71,22.18,137.83,.79,.84,1.62,1.65,2.45,2.46,.26-.26,.53-.47,.79-.74,2.33-2.34,4.96-6.03,7.71-7.69,3.44-2.08,6.92-1.21,10.58-2.65,7.18-2.84,8.97-8.47,11.79-14.97,4.97-11.48,23.72-14.41,22.75-28.35-.48-6.89-2.23-10.51,0-17.44,1.65-5.13,5.08-10.41,3.01-16.22-2.1-5.87-8.36-7.29-11.31-11.96Z"/><path class="cls-1" d="M332.81,151.43c-1.22-2.25-4.16-3.84-5-6.3-.91-2.66,.2-7.09,.03-9.92-.38-6.25-1.82-13.78-8.45-16.37-5.62-2.2-11.4,.63-16.94-2.45-6.19-3.44-8.62-8.51-16.88-7.93-4.49,.32-7.75,1.79-11.66,2.74-3.08-.1-6.25,.21-9.32,.92-4.51,.15-8.97,.56-12.68,3.54-2.83,2.27-3.97,5.13-4.38,8.24-1.32,2.48-2.11,5.31-2.15,8.51-.08,7.51-.34,11.12-3.68,18.28-2.76,5.9-6,12.44-4.75,19.21,1.13,6.12,6.94,10.37,10.06,15.89,5.07,8.97,11.77,13.25,22.34,13.54,4.92,.13,9.75-2.26,14.28-2.15,3.77,.09,6.04,2.07,9.69,3.02,10.25,2.67,17.51-4.63,23.95-11.46,9.85-10.44,24.11-21.46,15.54-37.32Z"/><path class="cls-1" d="M344.83,41c-.77,.32-1.51,.67-2.18,1.05-7.88,4.47-7.75,9.62-9.86,17.1-2.96,10.47-21.85,9.16-15.52,22.54,1.57,3.31,10.7,7.14,12.01,11.27,.98,3.09-2.47,8-2.88,11.08-.64,4.69-1.33,15.2,3.52,17.84,5.79,3.14,13.17-1.16,19.6,4.35,5.7,4.88,4.42,11.26,13.71,10.44,5.42-.48,10.69-4.84,16.2-4.31,9.18,.88,15.79,7.63,25.73,2.18,1.76-.97,3.64-2.37,5.51-4.04-8.06-35.63-33.31-69.78-65.84-89.5Z"/><path class="cls-1" d="M331.17,33.76c-11.62-5.26-23.91-8.68-36.5-9.72-25.09-2.07-52.49,.43-77.73,8.08-2.54,.78-5.04,1.62-7.53,2.5-.18,.07-.37,.11-.55,.2-30.65,11-57.1,30.24-70.61,59.25,5.33,2.38,9.26-.55,13.31,5.23,3.35,4.78,2.64,10.22,9.28,12.01,5.72,1.54,12.41-.73,17.65-1.99,5.55-1.33,10.42,1.04,15.52-.84,10.68-3.93,12.11-29.93,26.2-27.34,11.44,2.1,8.45,18.24,23.65,11.34,5.76-2.61,10.06-8.45,16.48-9.47,6.79-1.07,13.3,3.33,20.13,2.92,18.99-1.14,10.7-20.78,24.99-27.33,6.56-3,14.36,1.21,20.26-3.82,5.77-4.92,6.03-14.47,5.46-21.02Z"/><path class="cls-12" d="M292.58,34.73c0-3.86-.72-7.54-1.97-10.96-19.9-1.24-41.07,.31-61.33,5.04-.36,1.92-.57,3.89-.57,5.92,0,17.64,14.3,31.93,31.94,31.93s31.93-14.3,31.93-31.93Z"/><path class="cls-4" d="M242.23,26.27c-.67,.15-1.36,.27-2.03,.43-.36,1.92-.57,3.89-.57,5.92,0,17.64,14.3,31.93,31.93,31.93,.17,0,.33-.02,.5-.02,11.99-4.6,20.51-16.19,20.51-29.8,0-3.86-.72-7.54-1.97-10.96-15.7-.98-32.18-.19-48.39,2.5Z"/><path class="cls-12" d="M351.73,45.45c-7.49,7.1-12.18,17.12-12.18,28.26,0,21.53,17.45,38.98,38.98,38.98,8.76,0,16.82-2.93,23.33-7.81-10.85-23.36-28.62-44.56-50.13-59.43Z"/><path class="cls-4" d="M358.7,50.61c-3.63,5.91-5.77,12.84-5.77,20.28,0,21.53,17.45,38.98,38.98,38.98,.4,0,.78-.04,1.17-.05,3.15-1.28,6.1-2.93,8.77-4.94-9.66-20.79-24.79-39.84-43.16-54.27Z"/><circle class="cls-12" cx="287.89" cy="154.01" r="31.94" transform="translate(126.74 437.97) rotate(-88.57)"/><path class="cls-4" d="M267.93,160.35c0,9.78,4.41,18.53,11.34,24.38,2.75,.77,5.63,1.21,8.62,1.21,17.64,0,31.93-14.3,31.93-31.94,0-9.78-4.41-18.53-11.34-24.38-2.74-.77-5.63-1.21-8.62-1.21-17.64,0-31.94,14.3-31.94,31.94Z"/><path class="cls-12" d="M145.59,134.29c-6.84,0-13.34,1.39-19.26,3.91-4.43,30.8-2.82,65.92,9.32,93.71,3.21,.66,6.54,1,9.95,1,27.23,0,49.31-22.08,49.31-49.31s-22.08-49.31-49.31-49.31Z"/><path class="cls-4" d="M184.33,196.28c0-27.24-22.08-49.31-49.31-49.31-3.38,0-6.68,.35-9.87,.99-2.8,28.29-.39,59.06,10.48,83.95,3.21,.66,6.54,1,9.95,1,12.23,0,23.4-4.48,32.02-11.85,4.25-7.29,6.72-15.73,6.72-24.78Z"/><path class="cls-12" d="M150.88,73.86c1.26,13.35,12.49,23.8,26.17,23.8,14.52,0,26.3-11.78,26.3-26.3,0-12.04-8.1-22.16-19.14-25.28-12.85,7.33-24.26,16.54-33.34,27.78Z"/><path class="cls-12" d="M263.94,234.79c-28.79,0-52.13,23.34-52.13,52.13,0,1.27,.1,2.51,.19,3.75,5.17,1.51,10.23,2.77,15.05,3.79,27.93,5.95,62.38,6.11,88.76-2.3,.17-1.73,.26-3.48,.26-5.25,0-28.79-23.34-52.13-52.13-52.13Z"/><path class="cls-4" d="M315.8,292.17c.17-1.73,.26-3.48,.26-5.25,0-18.51-9.68-34.73-24.22-43.98-3.88-.92-7.9-1.46-12.06-1.46-28.79,0-52.13,23.34-52.13,52.13,0,.33,.04,.65,.05,.98,27.81,5.81,61.92,5.92,88.1-2.43Z"/><path class="cls-12" d="M406.35,206.44c-4.21-3.96-9.85-6.4-16.08-6.4-12.97,0-23.48,10.51-23.48,23.48,0,11.03,7.61,20.26,17.87,22.78,11.34-12.64,17.74-25.61,21.7-39.86Z"/><path class="cls-4" d="M406.35,206.44c-3.62-3.41-8.31-5.68-13.52-6.25-8.84,3.37-15.12,11.9-15.12,21.92,0,8.27,4.28,15.53,10.74,19.7,9-11.23,14.41-22.8,17.9-35.37Z"/><path class="cls-4" d="M194.2,71.48c0-10.1-6.16-18.76-14.93-22.43-10.83,6.8-20.49,15.03-28.38,24.81,.93,9.8,7.23,18.02,15.92,21.7,1.01,.13,2.04,.22,3.09,.22,13.42,0,24.3-10.88,24.3-24.3Z"/><path class="cls-2" d="M353.42,46.64c7.06,17.01,10.44,34.98,8.91,52.37-2.97,33.92-6.49,59.66-28.67,84.19-12.95,14.33-39.89,38.06-64.8,44.31-26.8,9.69-63.26,9.79-92.54,3.55-14.6-3.11-31.41-8.34-46.66-16.26,4.41,16.3,11.62,31.13,22.36,42.65,19.03,20.41,50.23,31.73,75.02,37.01,29.28,6.24,65.74,6.14,92.54-3.55,24.91-6.25,51.85-29.98,64.81-44.31,22.17-24.53,25.69-50.27,28.67-84.19,3.75-42.7-22-88.93-59.64-115.77Z"/><path class="cls-8" d="M239.05,47.88s-41.33,.94-70.45,50.72c-29.12,49.78-15.97,87.35-1.88,90.17,14.09,2.82,10.33-44.14,31-70.44,20.66-26.3,55.02-35.84,61.32-49.86,6.3-14.01-1.21-23.41-19.99-20.59Z"/></g><path class="cls-16" d="M353.91,35.9c-13.43,1.52-17.76,17.12-20.45,28.18-1.83,7.53-5.02,7.76-9.65,13.54-3.5,4.38-6.52,13.18-2.33,17.47,4.98,5.1,11.78,1.69,13.4,10.55,1.12,6.15-4.25,15.34,3.49,18.35,5.64,2.19,13.18-2.33,19.95,.14,8.16,2.97,9.97,11.03,20.43,9.02,5.07-.97,8.58-4.64,13.27-5.67,12.2-2.67,31.36-3.75,25.28-23.25"/><path class="cls-9" d="M125.53,144.35c-.2,1.74-.38,3.48-.54,5.24-.02,.21-.04,.41-.06,.62-.16,1.82-.3,3.64-.42,5.47,0,.11-.02,.22-.02,.32-.5,7.96-.56,16.04-.14,24.08,0,.04,0,.09,0,.13,.1,1.93,.23,3.86,.4,5.79,0,.12,.02,.25,.03,.37,.16,1.9,.35,3.8,.58,5.69,0,.07,.02,.15,.03,.22,1.02,8.59,2.66,17,5,25.04,0,0,0,.01,0,.02,.29,1.01,.59,2.02,.91,3.02,.14,.46,.3,.91,.45,1.36,.06,.18,.12,.37,.18,.55,0,.02,.01,.03,.02,.05,.4,1.19,.82,2.37,1.25,3.55,.19,.52,.39,1.03,.58,1.55,.53,1.37,1.09,2.73,1.67,4.07,.18,.42,.35,.84,.54,1.26,.78,1.75,1.6,3.47,2.46,5.15,.02,.04,.04,.08,.06,.12,.83,1.6,1.7,3.16,2.61,4.7,.28,.48,.58,.95,.87,1.42,.68,1.1,1.37,2.19,2.09,3.26,.35,.52,.71,1.04,1.07,1.55,.74,1.04,1.5,2.06,2.28,3.07,.34,.45,.68,.9,1.04,1.34,1.14,1.4,2.31,2.78,3.54,4.1,15.33,16.45,38.56,26.98,59.97,33.22h0s.01,0,.02,0c2.4,.7,4.76,1.33,7.1,1.93,.4,.1,.8,.2,1.21,.3,2.28,.56,4.53,1.1,6.72,1.56,.22,.04,.44,.08,.66,.13h0c.07,.01,.13,.02,.2,.04,1.51,.31,3.04,.62,4.58,.9,.68,.12,1.38,.23,2.06,.34,1.16,.2,2.31,.4,3.49,.58,.89,.13,1.8,.25,2.7,.37,.98,.13,1.96,.28,2.94,.39,1.04,.13,2.08,.23,3.12,.34,.86,.09,1.73,.19,2.6,.27,1.14,.1,2.28,.19,3.43,.28,.77,.06,1.55,.13,2.33,.18,.01,0,.02,0,.04,0,1.23,.08,2.46,.14,3.69,.2,.66,.03,1.31,.07,1.96,.09,.05,0,.1,0,.15,0,1.31,.05,2.63,.08,3.94,.1,.54,.01,1.08,.03,1.63,.03h.24c1.38,.01,2.76,0,4.14-.01,.44,0,.89,0,1.34-.01,.1,0,.21,0,.31-.01,1.44-.03,2.88-.08,4.32-.14,.35-.01,.71-.02,1.07-.04,.12,0,.24-.01,.37-.02,1.5-.08,2.99-.17,4.48-.28,.28-.02,.55-.04,.83-.06,.13-.01,.26-.02,.4-.04,1.54-.12,3.07-.27,4.6-.44,.21-.02,.41-.04,.62-.06,.14-.01,.28-.03,.41-.05,1.57-.18,3.13-.38,4.68-.6,.15-.02,.3-.04,.45-.06,.13-.02,.26-.04,.39-.06,1.6-.24,3.18-.5,4.75-.78,.1-.02,.2-.03,.3-.05,.12-.02,.24-.05,.37-.07,1.61-.3,3.2-.62,4.78-.97,.06-.01,.12-.02,.18-.04,.1-.02,.19-.05,.29-.07,1.62-.37,3.23-.76,4.8-1.18,.03,0,.06-.01,.09-.02,.07-.02,.13-.04,.19-.06,1.63-.44,3.24-.91,4.82-1.41,0,0,0,0,.01,0h0c1.27-.41,2.55-.81,3.78-1.26,24.91-6.25,51.85-29.98,64.81-44.31,.09-.1,.17-.2,.26-.3h0s.03-.04,.05-.06c1.38-1.54,2.69-3.09,3.93-4.65,.13-.16,.24-.32,.37-.48,1.12-1.42,2.2-2.85,3.21-4.29,.14-.2,.26-.39,.39-.59,.98-1.41,1.91-2.82,2.79-4.25,.12-.19,.22-.38,.33-.57,.41-.67,.8-1.35,1.19-2.02,.1-.17,.2-.33,.29-.49,.34-.61,.68-1.22,1.01-1.82,.08-.16,.16-.33,.25-.49,.25-.47,.48-.95,.73-1.42,.13-.26,.27-.52,.4-.78,.38-.77,.75-1.54,1.11-2.31,.06-.13,.11-.26,.17-.38,.15-.33,.29-.66,.43-.99,.13-.29,.26-.58,.38-.87,.4-.95,.81-1.9,1.18-2.86,.04-.09,.06-.18,.1-.27,.08-.2,.16-.41,.23-.62,.1-.27,.21-.55,.31-.83,.43-1.15,.84-2.31,1.23-3.48,.02-.06,.04-.11,.06-.17,.03-.09,.05-.17,.08-.26,.07-.21,.13-.42,.2-.62,.45-1.4,.88-2.82,1.27-4.24,0-.01,0-.02,.01-.03h0c3.7-13.31,5.27-27.72,6.71-44.03,.15-1.74,.24-3.49,.29-5.25,.01-.46,.02-.91,.04-1.37,.02-1.59,.02-3.18-.03-4.78,0-.18,0-.35,0-.53-.07-1.74-.19-3.49-.34-5.24-.04-.47-.09-.93-.14-1.4-.15-1.48-.33-2.96-.54-4.44-.05-.32-.08-.63-.13-.95-.26-1.72-.57-3.43-.91-5.14-.1-.48-.2-.97-.31-1.45-.29-1.38-.61-2.75-.95-4.12-.11-.43-.21-.86-.32-1.29-.44-1.67-.92-3.32-1.43-4.98-.16-.51-.32-1.02-.49-1.53-.41-1.26-.84-2.52-1.28-3.77-.19-.53-.38-1.06-.57-1.6-.59-1.59-1.21-3.16-1.87-4.74-.23-.56-.48-1.11-.72-1.67-.49-1.12-.99-2.24-1.51-3.36-.3-.63-.59-1.27-.89-1.89-.39-.79-.78-1.57-1.18-2.35-.01-.04-.03-.07-.05-.11-.33-.66-.66-1.31-1-1.96-.32-.62-.67-1.23-1-1.84-.06-.11-.12-.21-.17-.32-.04-.07-.07-.13-.11-.19-.44-.8-.89-1.6-1.35-2.4-.41-.71-.82-1.42-1.25-2.13-.38-.63-.77-1.26-1.16-1.89-.03-.05-.07-.11-.1-.16-.24-.37-.47-.75-.7-1.12-.62-.98-1.26-1.96-1.91-2.93-.55-.82-1.09-1.62-1.65-2.43-.54-.77-1.08-1.54-1.63-2.3-.23-.32-.47-.65-.71-.97-.12-.16-.23-.31-.35-.47-.19-.26-.38-.51-.58-.77-.69-.92-1.38-1.84-2.1-2.74-.09-.11-.17-.21-.26-.31-.04-.05-.08-.1-.12-.15-.01-.01-.02-.02-.03-.04-.13-.16-.26-.32-.39-.49-.51-.64-1.02-1.28-1.55-1.91-.67-.8-1.34-1.6-2.02-2.39-.44-.51-.89-1.01-1.34-1.52-.3-.34-.59-.68-.9-1.02-.81-.9-1.64-1.78-2.48-2.66-.39-.41-.77-.82-1.17-1.22-.23-.24-.46-.48-.69-.72-.67-.68-1.35-1.36-2.03-2.03-.2-.2-.41-.39-.61-.59-.36-.35-.73-.69-1.09-1.03-1.25-1.19-2.51-2.35-3.8-3.49-.03-.03-.06-.05-.1-.08-.31-.28-.62-.55-.94-.83-.26-.23-.52-.47-.78-.7-.11-.09-.21-.18-.31-.27-.81-.69-1.62-1.36-2.44-2.02-.27-.22-.54-.44-.81-.66-.36-.29-.73-.58-1.09-.87-.91-.72-1.83-1.43-2.76-2.13-.54-.4-1.08-.8-1.63-1.19-17.86-13.02-38.47-21.7-59.94-23.47-1.35-.11-2.7-.19-4.06-.28h0s-.02,0-.03,0c-7.38-.46-14.92-.53-22.54-.2-.16,0-.33,.01-.5,.02-2.47,.11-4.95,.26-7.42,.46-.02,0-.03,0-.05,0-7.62,.61-15.27,1.63-22.82,3.08-.21,.04-.43,.08-.64,.12-2.44,.48-4.87,.99-7.28,1.55-.01,0-.03,0-.04,0h0c-17.73,4.14-34.73,10.71-49.57,19.96-.13,.08-.26,.16-.38,.24-1.33,.83-2.63,1.69-3.92,2.56-.09,.06-.17,.12-.26,.18-.19,.13-.39,.26-.58,.4-1.27,.88-2.53,1.78-3.76,2.7-.28,.21-.56,.43-.84,.64-1.17,.89-2.32,1.8-3.46,2.73-.32,.27-.64,.54-.97,.81-1.08,.91-2.16,1.83-3.2,2.77-.34,.31-.67,.63-1.01,.94-.02,.02-.04,.04-.06,.06-.37,.34-.74,.68-1.1,1.03-.62,.59-1.23,1.18-1.84,1.79-.23,.23-.45,.46-.68,.69-.41,.42-.82,.84-1.22,1.27-.65,.68-1.3,1.36-1.93,2.06-.11,.12-.22,.25-.33,.37-.43,.48-.85,.98-1.27,1.47-8.17,9.5-14.66,20.5-18.85,33.13-3.33,10.05-6,21.5-7.74,33.6h0s0,.03,0,.05c-.26,1.83-.5,3.68-.72,5.54-.02,.19-.04,.37-.07,.56Z"/></g><path class="cls-7" d="M125.53,144.35c-.2,1.74-.38,3.48-.54,5.24-.02,.21-.04,.41-.06,.62-.16,1.82-.3,3.64-.42,5.47,0,.11-.02,.22-.02,.32-.5,7.96-.56,16.04-.14,24.08,0,.04,0,.09,0,.13,.1,1.93,.23,3.86,.4,5.79,0,.12,.02,.25,.03,.37,.16,1.9,.35,3.8,.58,5.69,0,.07,.02,.15,.03,.22,1.02,8.59,2.66,17,5,25.04,0,0,0,.01,0,.02,.29,1.01,.59,2.02,.91,3.02,.14,.46,.3,.91,.45,1.36,.06,.18,.12,.37,.18,.55,0,.02,.01,.03,.02,.05,.4,1.19,.82,2.37,1.25,3.55,.19,.52,.39,1.03,.58,1.55,.53,1.37,1.09,2.73,1.67,4.07,.18,.42,.35,.84,.54,1.26,.78,1.75,1.6,3.47,2.46,5.15,.02,.04,.04,.08,.06,.12,.83,1.6,1.7,3.16,2.61,4.7,.28,.48,.58,.95,.87,1.42,.68,1.1,1.37,2.19,2.09,3.26,.35,.52,.71,1.04,1.07,1.55,.74,1.04,1.5,2.06,2.28,3.07,.34,.45,.68,.9,1.04,1.34,1.14,1.4,2.31,2.78,3.54,4.1,15.33,16.45,38.56,26.98,59.97,33.22h0s.01,0,.02,0c2.4,.7,4.76,1.33,7.1,1.93,.4,.1,.8,.2,1.21,.3,2.28,.56,4.53,1.1,6.72,1.56,.22,.04,.44,.08,.66,.13h0c.07,.01,.13,.02,.2,.04,1.51,.31,3.04,.62,4.58,.9,.68,.12,1.38,.23,2.06,.34,1.16,.2,2.31,.4,3.49,.58,.89,.13,1.8,.25,2.7,.37,.98,.13,1.96,.28,2.94,.39,1.04,.13,2.08,.23,3.12,.34,.86,.09,1.73,.19,2.6,.27,1.14,.1,2.28,.19,3.43,.28,.77,.06,1.55,.13,2.33,.18,.01,0,.02,0,.04,0,1.23,.08,2.46,.14,3.69,.2,.66,.03,1.31,.07,1.96,.09,.05,0,.1,0,.15,0,1.31,.05,2.63,.08,3.94,.1,.54,.01,1.08,.03,1.63,.03h.24c1.38,.01,2.76,0,4.14-.01,.44,0,.89,0,1.34-.01,.1,0,.21,0,.31-.01,1.44-.03,2.88-.08,4.32-.14,.35-.01,.71-.02,1.07-.04,.12,0,.24-.01,.37-.02,1.5-.08,2.99-.17,4.48-.28,.28-.02,.55-.04,.83-.06,.13-.01,.26-.02,.4-.04,1.54-.12,3.07-.27,4.6-.44,.21-.02,.41-.04,.62-.06,.14-.01,.28-.03,.41-.05,1.57-.18,3.13-.38,4.68-.6,.15-.02,.3-.04,.45-.06,.13-.02,.26-.04,.39-.06,1.6-.24,3.18-.5,4.75-.78,.1-.02,.2-.03,.3-.05,.12-.02,.24-.05,.37-.07,1.61-.3,3.2-.62,4.78-.97,.06-.01,.12-.02,.18-.04,.1-.02,.19-.05,.29-.07,1.62-.37,3.23-.76,4.8-1.18,.03,0,.06-.01,.09-.02,.07-.02,.13-.04,.19-.06,1.63-.44,3.24-.91,4.82-1.41,0,0,0,0,.01,0h0c1.27-.41,2.55-.81,3.78-1.26,24.91-6.25,51.85-29.98,64.81-44.31,.09-.1,.17-.2,.26-.3h0s.03-.04,.05-.06c1.38-1.54,2.69-3.09,3.93-4.65,.13-.16,.24-.32,.37-.48,1.12-1.42,2.2-2.85,3.21-4.29,.14-.2,.26-.39,.39-.59,.98-1.41,1.91-2.82,2.79-4.25,.12-.19,.22-.38,.33-.57,.41-.67,.8-1.35,1.19-2.02,.1-.17,.2-.33,.29-.49,.34-.61,.68-1.22,1.01-1.82,.08-.16,.16-.33,.25-.49,.25-.47,.48-.95,.73-1.42,.13-.26,.27-.52,.4-.78,.38-.77,.75-1.54,1.11-2.31,.06-.13,.11-.26,.17-.38,.15-.33,.29-.66,.43-.99,.13-.29,.26-.58,.38-.87,.4-.95,.81-1.9,1.18-2.86,.04-.09,.06-.18,.1-.27,.08-.2,.16-.41,.23-.62,.1-.27,.21-.55,.31-.83,.43-1.15,.84-2.31,1.23-3.48,.02-.06,.04-.11,.06-.17,.03-.09,.05-.17,.08-.26,.07-.21,.13-.42,.2-.62,.45-1.4,.88-2.82,1.27-4.24,0-.01,0-.02,.01-.03h0c3.7-13.31,5.27-27.72,6.71-44.03,.15-1.74,.24-3.49,.29-5.25,.01-.46,.02-.91,.04-1.37,.02-1.59,.02-3.18-.03-4.78,0-.18,0-.35,0-.53-.07-1.74-.19-3.49-.34-5.24-.04-.47-.09-.93-.14-1.4-.15-1.48-.33-2.96-.54-4.44-.05-.32-.08-.63-.13-.95-.26-1.72-.57-3.43-.91-5.14-.1-.48-.2-.97-.31-1.45-.29-1.38-.61-2.75-.95-4.12-.11-.43-.21-.86-.32-1.29-.44-1.67-.92-3.32-1.43-4.98-.16-.51-.32-1.02-.49-1.53-.41-1.26-.84-2.52-1.28-3.77-.19-.53-.38-1.06-.57-1.6-.59-1.59-1.21-3.16-1.87-4.74-.23-.56-.48-1.11-.72-1.67-.49-1.12-.99-2.24-1.51-3.36-.3-.63-.59-1.27-.89-1.89-.39-.79-.78-1.57-1.18-2.35-.01-.04-.03-.07-.05-.11-.33-.66-.66-1.31-1-1.96-.32-.62-.67-1.23-1-1.84-.06-.11-.12-.21-.17-.32-.04-.07-.07-.13-.11-.19-.44-.8-.89-1.6-1.35-2.4-.41-.71-.82-1.42-1.25-2.13-.38-.63-.77-1.26-1.16-1.89-.03-.05-.07-.11-.1-.16-.24-.37-.47-.75-.7-1.12-.62-.98-1.26-1.96-1.91-2.93-.55-.82-1.09-1.62-1.65-2.43-.54-.77-1.08-1.54-1.63-2.3-.23-.32-.47-.65-.71-.97-.12-.16-.23-.31-.35-.47-.19-.26-.38-.51-.58-.77-.69-.92-1.38-1.84-2.1-2.74-.09-.11-.17-.21-.26-.31-.04-.05-.08-.1-.12-.15-.01-.01-.02-.02-.03-.04-.13-.16-.26-.32-.39-.49-.51-.64-1.02-1.28-1.55-1.91-.67-.8-1.34-1.6-2.02-2.39-.44-.51-.89-1.01-1.34-1.52-.3-.34-.59-.68-.9-1.02-.81-.9-1.64-1.78-2.48-2.66-.39-.41-.77-.82-1.17-1.22-.23-.24-.46-.48-.69-.72-.67-.68-1.35-1.36-2.03-2.03-.2-.2-.41-.39-.61-.59-.36-.35-.73-.69-1.09-1.03-1.25-1.19-2.51-2.35-3.8-3.49-.03-.03-.06-.05-.1-.08-.31-.28-.62-.55-.94-.83-.26-.23-.52-.47-.78-.7-.11-.09-.21-.18-.31-.27-.81-.69-1.62-1.36-2.44-2.02-.27-.22-.54-.44-.81-.66-.36-.29-.73-.58-1.09-.87-.91-.72-1.83-1.43-2.76-2.13-.54-.4-1.08-.8-1.63-1.19-17.86-13.02-38.47-21.7-59.94-23.47-1.35-.11-2.7-.19-4.06-.28h0s-.02,0-.03,0c-7.38-.46-14.92-.53-22.54-.2-.16,0-.33,.01-.5,.02-2.47,.11-4.95,.26-7.42,.46-.02,0-.03,0-.05,0-7.62,.61-15.27,1.63-22.82,3.08-.21,.04-.43,.08-.64,.12-2.44,.48-4.87,.99-7.28,1.55-.01,0-.03,0-.04,0h0c-17.73,4.14-34.73,10.71-49.57,19.96-.13,.08-.26,.16-.38,.24-1.33,.83-2.63,1.69-3.92,2.56-.09,.06-.17,.12-.26,.18-.19,.13-.39,.26-.58,.4-1.27,.88-2.53,1.78-3.76,2.7-.28,.21-.56,.43-.84,.64-1.17,.89-2.32,1.8-3.46,2.73-.32,.27-.64,.54-.97,.81-1.08,.91-2.16,1.83-3.2,2.77-.34,.31-.67,.63-1.01,.94-.02,.02-.04,.04-.06,.06-.37,.34-.74,.68-1.1,1.03-.62,.59-1.23,1.18-1.84,1.79-.23,.23-.45,.46-.68,.69-.41,.42-.82,.84-1.22,1.27-.65,.68-1.3,1.36-1.93,2.06-.11,.12-.22,.25-.33,.37-.43,.48-.85,.98-1.27,1.47-8.17,9.5-14.66,20.5-18.85,33.13-3.33,10.05-6,21.5-7.74,33.6h0s0,.03,0,.05c-.26,1.83-.5,3.68-.72,5.54-.02,.19-.04,.37-.07,.56Z"/></g><g><path class="cls-14" d="M141.03,58.56s-48.26-11.43-60.96,8.89c-12.7,20.32,44.64,79.6,157.48,127.63,123.82,52.7,194.8,59.56,212.72,40.64,11.43-12.06-37.46-53.97-37.46-53.97l3.17-8.89s81.28,48.89,50.8,83.18c-30.48,34.29-158.51,7.82-236.85-31.11C125.15,172.86,23.49,94.33,41.33,61.1c18.41-34.29,104.14-8.89,104.14-8.89l-4.44,6.35Z"/><path class="cls-14" d="M87.69,36.97c-5.08,1.27-74.75-3.93-63.5,33.02,8.89,29.21,68.68,97.6,183.51,153.67,135.25,66.04,189.82,63.56,229.23,64.77,82.55,2.54,45.08-55.24,45.08-55.24,0,0,54.4,55.1,5.08,68.58-95.25,26.04-233.35-27.99-297.81-62.86C111.82,196.99,26.73,136.03,5.14,87.77c-15.54-34.74,7.19-51.05,27.94-57.15,21.59-6.35,54.61,6.35,54.61,6.35Z"/><path class="cls-3" d="M99.28,119.36c-5.86-8.37-13.89-13.51-20.02-21.92-5.21-7.15-14.87-13.24-16.95-21.76-2.76-11.27,3.45-16.59,12.68-20.29,4.24-1.7,8.07-3.54,12.7-4.48,2.28-.46,15.56-.13,8.25-4.94-3.11-2.05-11.49,.66-14.64,1.13-4.79,.7-9.42,1.28-14.57,1.3l-3.17,1.27c-9.46,2.34-16.4,11.82-15.25,21.6,1.24,10.53,5.01,19.4,14.02,25.22,17.45,11.28,26.28,32.8,45.08,43.18,2.58,1.43,4.44,2.83,7.49,2.6,2.07-11.07-10.13-15.08-15.62-22.92Z"/><path class="cls-3" d="M59.59,132.38c-3.02-2.87-5.43-6.05-7.91-9.19-3.86-4.88-8.86-6.49-12.76-11.32-10.84-13.39-20.54-33.4-23.02-49.5-1.02-6.62,.13-15.14,5.61-19.21,5.34-3.96,13.27-4.75,18.49-8.89-2.52-1.96-7.24-1.4-10.1,.16l-4.45,2.54c-11.03,.56-17.39,15.75-17.81,24.76-.48,10.14,7.25,18.96,10.83,28.57,4.15,11.15,5.37,18.96,14.45,27.46,8.2,7.68,14.96,14.49,23.62,21.56,2.47,2.01,12.25,9.5,11.97,1.77-.09-2.55-7.07-6.95-8.92-8.72Z"/><path class="cls-15" d="M457.61,236.36c-9.42,12.34-25.38,16.46-40.95,16.24-15.58-.22-30.52-5.11-45.72-6.66-15.81-1.62-30.67-3.01-45.66-6.72-15.49-3.84-30.53-7.8-45.03-14.95-5.56-2.74-14.75-9.75-20.75-9.97-14.24-.53,3.84,5.62,6.67,8.78l3.81,1.91c5.59,11.37,30.47,14.94,41.9,16.93,18.73,3.27,37.16,7.95,56.25,10.74,16.08,2.35,31.54,6.93,47.57,8.57,12.62,1.29,31.6-.73,41.67-8.86,4.26-3.44,10.92-9.42,10.77-14.95-.33-11.46-6.77-5.98-10.53-1.05Z"/></g><g><path class="cls-10" d="M79.52,212.87c-2.12,2.42-3.88,3.58-5.26,3.48-1.38-.1-2.4-.99-3.04-2.67-.64-1.68-.89-3.72-.74-6.11,.15-2.4,.69-4.68,1.63-6.85,2.27-4.89,5.43-9.36,9.49-13.41,4.05-4.05,8.6-7.34,13.63-9.86,3.8-1.93,7.41-3.26,10.82-4,3.41-.74,6.57-1.06,9.49-.96,5.88,.15,10.75,1.67,14.6,4.56,3.85,2.89,6.62,6.71,8.3,11.45,1.68,4.74,2.17,9.91,1.48,15.49-.69,5.58-2.62,11.14-5.78,16.67-3.16,5.53-7.65,10.56-13.45,15.08-5.81,4.52-13.01,8.07-21.6,10.63-.74,.2-1.26,.32-1.56,.37-.3,0-.51,.04-.63,.11-.12,.07-.22,.21-.3,.41-.07,.2-.16,.52-.26,.96-.1,.25-.17,.54-.22,.89-.4,1.48-.77,2.77-1.11,3.85-.49,2.03-1.01,4.03-1.56,6-.54,1.98-1.33,4.72-2.37,8.23-.64,2.03-1.69,3.55-3.15,4.56-1.46,1.01-3.03,1.37-4.71,1.07-1.68-.3-3.11-1.37-4.3-3.22-1.19-1.85-1.83-4.63-1.93-8.34-.05-3.56,.45-8.09,1.48-13.6,1.04-5.51,2.49-11.3,4.37-17.38,1.88-6.08,4.04-11.77,6.48-17.08,2.45-5.31,5.08-9.57,7.89-12.78,1.19-1.33,2.56-2.25,4.11-2.74,1.56-.49,3.03-.59,4.41-.3,1.38,.3,2.42,.99,3.11,2.07,.69,1.09,.76,2.57,.22,4.45-1.53,4.84-2.72,8.52-3.56,11.04-.69,2.03-1.32,3.95-1.89,5.78-.57,1.83-1.2,4.05-1.89,6.67-.35,1.29,.07,1.83,1.26,1.63,1.19-.2,2.79-.99,4.82-2.37,2.82-1.88,5.53-4.2,8.15-6.97,2.62-2.77,4.71-5.8,6.26-9.11,1.56-3.31,2.16-6.69,1.82-10.15-.3-2.72-1.41-4.94-3.33-6.67-1.93-1.73-4.79-2.59-8.6-2.59-4.2-.05-9.03,1.63-14.49,5.04-5.46,3.41-11.5,8.97-18.12,16.67Z"/><path class="cls-10" d="M147.26,195.45c2.02-4.79,4.2-8.13,6.52-10,2.32-1.88,4.47-2.69,6.45-2.45,1.98,.25,3.47,1.2,4.48,2.85,1.01,1.66,1.25,3.64,.7,5.97-1.38,5.39-3.14,12.72-5.26,22.01-2.12,9.29-4.3,18.85-6.52,28.68-2.87,12.94-5.16,23.1-6.89,30.46-.45,1.73-1.31,3.04-2.59,3.93-1.29,.89-2.68,1.19-4.19,.89-1.51-.3-2.85-1.36-4.04-3.19-1.19-1.83-1.9-4.62-2.15-8.37-.25-5.29,.12-11.46,1.11-18.53,.99-7.06,2.27-14.18,3.85-21.34,1.58-7.16,3.16-13.54,4.74-19.12,1.58-5.58,2.84-9.51,3.78-11.78Z"/><path class="cls-10" d="M170.38,272.22c-3.51-.15-6.22-1.33-8.15-3.56-1.93-2.22-3.19-5.1-3.78-8.63-.59-3.53-.58-7.4,.04-11.6,.62-4.2,1.73-8.4,3.33-12.6,1.61-4.2,3.63-8.05,6.08-11.56,2.45-3.51,5.22-6.34,8.34-8.49,3.11-2.15,6.45-3.3,10-3.45,1.38,0,2.47,.16,3.26,.48,.79,.32,1.46,.66,2,1,.64,.44,1.32,.74,2.04,.89,.72,.15,1.72-.07,3-.67,2.52-1.19,4.77-1.75,6.74-1.7,1.48,.1,2.67,.67,3.56,1.7,.89,1.04,1.16,2.59,.82,4.67-.94,4.79-2.21,10.52-3.82,17.19-1.61,6.67-3.2,13.22-4.78,19.64-1.14,4.45-2.12,8.42-2.96,11.93-.54,2.12-1.59,3.66-3.15,4.59-1.56,.94-3.15,1.22-4.78,.85s-2.92-1.47-3.85-3.3c-.2-.44-.37-.84-.52-1.19-.25-.69-.47-1.07-.67-1.15-.2-.07-.54,.11-1.04,.56-.15,.1-.32,.22-.52,.37-4.1,2.87-7.83,4.2-11.19,4Zm13.04-40.76c-.84,.84-2,2.42-3.48,4.74-1.48,2.32-2.94,4.92-4.37,7.78-1.43,2.87-2.53,5.55-3.3,8.04-.77,2.49-.9,4.33-.41,5.52,.4,.79,1.16,.58,2.3-.63,1.14-1.21,2.42-3,3.85-5.37,1.43-2.37,2.84-4.93,4.22-7.67,1.38-2.74,2.54-5.25,3.48-7.52,.94-2.27,1.51-3.9,1.7-4.89,.15-1.38-.19-2.01-1-1.89-.81,.12-1.81,.75-3,1.89Z"/><path class="cls-10" d="M237,213.09c5.33-1.53,9.45-.9,12.34,1.89,2.89,2.79,4.06,7.65,3.52,14.56-.34,3.36-1.01,6.85-2,10.49-.99,3.63-2.05,7.23-3.19,10.78-1.24,3.8-2.26,7.32-3.08,10.56-.81,3.24-1.15,5.97-1,8.19,.1,1.58-.42,2.83-1.56,3.74-1.14,.91-2.56,1.41-4.26,1.48s-3.37-.42-5-1.48-2.92-2.78-3.85-5.15c-.89-2.72-1.22-5.58-1-8.6,.22-3.01,.79-6.08,1.7-9.19,.91-3.11,1.89-6.2,2.93-9.26,.94-2.62,1.75-5.11,2.45-7.49,.44-1.53,.67-2.77,.67-3.71s-.27-1.33-.81-1.19c-.54,.15-1.41,1.09-2.59,2.82-1.29,1.93-2.59,4.66-3.93,8.19-1.33,3.53-2.61,7.23-3.82,11.08-1.21,3.85-2.24,7.24-3.07,10.15-.49,1.68-.89,3.01-1.19,4-.05,.25-.12,.52-.22,.82-.35,1.28-.77,2.47-1.26,3.56-.49,1.09-1.2,1.96-2.11,2.63-.91,.67-2.21,1-3.89,1-1.53,0-2.96-.74-4.3-2.22-1.33-1.48-2.2-3.61-2.59-6.37-.25-2.07-.11-5.16,.41-9.26,.52-4.1,1.33-8.61,2.45-13.52,1.11-4.92,2.47-9.61,4.08-14.08,1.61-4.47,3.37-8.11,5.3-10.93,1.28-1.78,2.59-2.89,3.93-3.33,1.33-.45,2.61-.51,3.82-.19,1.21,.32,2.26,.75,3.15,1.3,1.14,.59,2.03,.86,2.67,.81,.64-.05,1.31-.3,2-.74,.74-.4,1.85-.84,3.33-1.33Z"/><path class="cls-10" d="M267.38,272.07c-4.2-.84-7.36-2.57-9.49-5.19-2.12-2.62-3.36-5.8-3.71-9.56-.34-3.75,.06-7.74,1.22-11.97,1.16-4.22,2.91-8.35,5.26-12.38,2.35-4.03,5.16-7.62,8.45-10.78,3.28-3.16,6.87-5.56,10.75-7.19,3.88-1.63,7.94-2.15,12.19-1.56,3.51,.59,6.16,2.16,7.97,4.71,1.8,2.55,2.69,5.57,2.67,9.08-.03,3.51-.99,7.04-2.89,10.6s-4.8,6.67-8.71,9.34c-3.9,2.67-8.82,4.4-14.75,5.19-2.72,.4-4.47,1.09-5.26,2.07-.79,.99-.96,1.94-.52,2.85,.45,.91,1.23,1.42,2.37,1.52,.94,.05,2.11-.15,3.52-.59,1.41-.45,2.71-1.11,3.89-2,2.77-2.02,4.95-2.99,6.56-2.89,1.61,.1,2.63,.89,3.08,2.37s.3,3.27-.44,5.37c-.74,2.1-2.05,4.13-3.93,6.08-1.88,1.95-4.34,3.43-7.37,4.45-3.04,1.01-6.66,1.17-10.86,.48Zm10.23-37.05c-1.88,1.93-2.8,3.05-2.78,3.37,.02,.32,1.27-.11,3.74-1.3,2.57-1.14,4.62-2.3,6.15-3.48,2.07-1.73,3.17-2.91,3.3-3.56,.12-.64-.38-.84-1.52-.59-1.14,.25-2.53,.85-4.19,1.82-1.66,.96-3.22,2.21-4.71,3.74Z"/><path class="cls-10" d="M312.66,281.12c-.54,2.02-1.53,3.54-2.96,4.56-1.43,1.01-2.99,1.37-4.67,1.07-1.68-.3-3.16-1.37-4.45-3.22-1.28-1.85-2.05-4.61-2.3-8.26-.15-3.26,.42-8.39,1.7-15.38,1.29-6.99,3.04-14.76,5.26-23.31,2.22-8.55,4.67-16.77,7.34-24.68-2.47-.1-5.11-.22-7.93-.37-2.37-.25-3.98-1.09-4.82-2.52-.84-1.43-.85-3-.04-4.71,.81-1.71,2.56-3.1,5.22-4.19,1.78-.64,3.75-1.1,5.93-1.37,2.17-.27,4.42-.38,6.74-.33,2.32-5.43,4.49-9.39,6.52-11.86,1.53-1.78,3.22-2.79,5.08-3.04,1.85-.25,3.35,.21,4.48,1.37,1.14,1.16,1.41,3,.81,5.52-.79,3.06-1.58,6.15-2.37,9.26,.3,.05,.59,.1,.89,.15,2.82,.54,4.97,1.51,6.45,2.89,1.48,1.38,2.28,2.83,2.41,4.33,.12,1.51-.46,2.8-1.74,3.89-1.29,1.09-3.26,1.63-5.93,1.63-.79-.05-1.58-.07-2.37-.07-.99,0-1.98-.02-2.96-.07-3.01,12.4-5.98,24.85-8.89,37.35-2.42,10.47-4.89,20.92-7.41,31.35Z"/></g><g><path class="cls-11" d="M95.63,132.19c-1.64,1.37-2.87,2.05-3.67,2.04-.81,0-1.27-.45-1.38-1.32-.12-.88,.06-1.96,.52-3.25,.47-1.29,1.15-2.53,2.05-3.73,2.12-2.7,4.7-5.2,7.74-7.51,3.04-2.31,6.25-4.22,9.64-5.74,2.56-1.16,4.91-2,7.05-2.51,2.14-.51,4.07-.79,5.78-.84,3.46-.12,6.11,.52,7.95,1.94,1.83,1.41,2.87,3.36,3.13,5.84,.25,2.48-.27,5.23-1.56,8.24-1.29,3.01-3.31,6.05-6.05,9.12-2.75,3.07-6.2,5.91-10.35,8.53-4.16,2.62-8.99,4.76-14.49,6.43-.47,.13-.8,.22-.98,.25-.18,.01-.31,.04-.39,.08-.08,.04-.16,.12-.24,.23-.08,.11-.18,.28-.31,.52-.1,.14-.19,.3-.27,.48-.47,.81-.89,1.51-1.27,2.1-.61,1.1-1.23,2.19-1.87,3.27-.63,1.08-1.53,2.57-2.7,4.48-.7,1.11-1.56,1.96-2.59,2.55-1.02,.59-2.01,.84-2.96,.74-.95-.1-1.63-.63-2.04-1.58-.41-.95-.36-2.42,.17-4.4,.53-1.9,1.54-4.34,3.02-7.33,1.48-2.98,3.26-6.14,5.33-9.45,2.07-3.32,4.25-6.44,6.53-9.37,2.29-2.93,4.52-5.3,6.69-7.11,.91-.76,1.87-1.29,2.87-1.61,1-.32,1.89-.42,2.66-.31,.77,.11,1.28,.45,1.52,1,.24,.56,.05,1.35-.57,2.37-1.67,2.64-2.95,4.65-3.85,6.03-.73,1.11-1.41,2.16-2.03,3.16-.63,1-1.35,2.21-2.17,3.63-.41,.7-.24,.98,.49,.83s1.81-.63,3.23-1.44c1.97-1.1,3.94-2.44,5.93-4.01,1.99-1.57,3.7-3.27,5.15-5.09,1.44-1.83,2.33-3.66,2.67-5.5,.25-1.44-.06-2.6-.93-3.46-.87-.86-2.44-1.22-4.69-1.09-2.48,.12-5.61,1.18-9.39,3.19-3.78,2.01-8.23,5.19-13.37,9.55Z"/><path class="cls-11" d="M119.17,158.9c.17-1.67,.71-3.58,1.62-5.73,.9-2.14,1.88-4.15,2.94-6.02,1.05-1.87,1.9-3.25,2.54-4.14,1.15-1.55,2.33-2.6,3.56-3.15,1.23-.55,2.3-.7,3.23-.46,.92,.25,1.55,.77,1.87,1.57,.33,.8,.18,1.78-.45,2.93-.97,1.72-1.75,3.09-2.35,4.11-.6,1.02-1.1,1.87-1.5,2.54-.4,.67-.79,1.35-1.18,2.04-.39,.69-.89,1.57-1.49,2.64-.6,1.07-1.43,2.56-2.48,4.47-.74,1.24-1.62,2.04-2.63,2.41-1.02,.37-1.9,.29-2.65-.24-.75-.53-1.09-1.52-1-2.98Zm17.95-29.46c1.76-.1,3.04,.17,3.84,.83,.8,.65,1.11,1.46,.92,2.4-.19,.95-.87,1.8-2.05,2.56-1.17,.76-2.86,1.2-5.06,1.33-1.74,.02-2.96-.28-3.66-.92-.71-.63-.94-1.4-.71-2.3,.23-.9,.92-1.72,2.05-2.48,1.13-.75,2.69-1.23,4.68-1.42Z"/><path class="cls-11" d="M133.12,161.71c-1.33-.18-2.14-.71-2.43-1.59-.29-.88-.19-1.94,.28-3.17s1.21-2.44,2.19-3.62c2.28-2.76,4.73-5.42,7.34-7.99,2.61-2.57,5.18-5,7.7-7.31,.6-.55,1.19-1.1,1.77-1.62,.13-.14,.17-.2,.12-.2s-.17,.05-.37,.14c-.2,.09-.46,.18-.77,.28-1.07,.3-2.28,.37-3.63,.21-1.35-.16-2.34-.51-2.95-1.08-.53-.64-.72-1.36-.58-2.15,.15-.79,.59-1.49,1.33-2.1,.74-.61,1.74-.95,2.99-.99,2.09-.07,4.13-.31,6.09-.72,1.97-.41,3.77-.86,5.41-1.35,1.29-.07,2.17,.23,2.63,.9,.46,.67,.6,1.51,.41,2.51-.19,1-.6,1.96-1.21,2.88-1.56,2.27-3.31,4.47-5.25,6.6-1.94,2.13-3.91,4.22-5.93,6.29-1.94,1.98-3.82,3.99-5.66,6.02-.25,.27-.36,.44-.32,.49,.04,.05,.16,.04,.35-.02,.73-.22,1.55-.39,2.48-.49,.92-.11,1.79-.09,2.6,.04,.81,.14,1.38,.43,1.71,.88,.34,.5,.57,1.09,.67,1.78s0,1.37-.28,2.06c-.29,.69-.87,1.29-1.74,1.8-.87,.5-2.1,.82-3.69,.93-1.03,.09-2.09,.16-3.18,.22-1.8,.13-3.44,.24-4.94,.32s-2.55,.11-3.17,.07Z"/><path class="cls-11" d="M155.07,160.44c-1.33-.18-2.14-.71-2.43-1.59-.29-.88-.19-1.94,.28-3.17,.48-1.24,1.21-2.44,2.19-3.62,2.28-2.76,4.73-5.42,7.34-7.99,2.61-2.57,5.18-5,7.7-7.31,.6-.55,1.19-1.1,1.77-1.62,.13-.14,.17-.2,.12-.2s-.16,.05-.36,.14c-.2,.09-.46,.18-.77,.28-1.07,.3-2.28,.37-3.63,.21-1.35-.16-2.33-.51-2.95-1.08-.53-.64-.72-1.36-.58-2.15,.15-.79,.59-1.49,1.33-2.1,.74-.61,1.74-.95,2.99-.99,2.1-.07,4.13-.31,6.09-.72s3.77-.86,5.41-1.35c1.29-.07,2.17,.23,2.63,.9,.46,.67,.6,1.51,.41,2.51-.19,1-.6,1.96-1.21,2.88-1.56,2.27-3.31,4.47-5.25,6.6-1.94,2.13-3.91,4.22-5.93,6.29-1.94,1.98-3.82,3.99-5.66,6.02-.25,.27-.36,.44-.31,.49,.04,.05,.16,.04,.35-.02,.73-.22,1.56-.39,2.48-.49,.92-.11,1.79-.09,2.6,.04,.81,.14,1.38,.43,1.71,.88,.34,.5,.57,1.09,.67,1.77,.1,.68,0,1.37-.28,2.06-.29,.69-.87,1.29-1.74,1.8s-2.1,.82-3.69,.93c-1.03,.09-2.09,.16-3.18,.22-1.8,.13-3.44,.24-4.94,.32s-2.55,.11-3.18,.07Z"/><path class="cls-11" d="M182.3,158.4c-2.06,.04-3.48-.5-4.28-1.62-.79-1.12-1.09-2.62-.89-4.49,.2-1.87,.82-3.94,1.85-6.21,1.03-2.27,2.35-4.56,3.96-6.86,1.61-2.3,3.42-4.43,5.42-6.4,2-1.96,4.1-3.57,6.28-4.83s4.35-1.99,6.48-2.19c.82-.05,1.44,0,1.86,.15s.76,.3,1.03,.47c.31,.22,.67,.35,1.07,.41s1.03-.1,1.89-.46c1.68-.72,3.11-1.1,4.27-1.14,.86,0,1.48,.26,1.84,.79s.28,1.35-.25,2.47c-1.31,2.6-2.97,5.71-4.97,9.33-2,3.63-3.98,7.18-5.92,10.68-1.37,2.42-2.59,4.58-3.63,6.49-.66,1.16-1.52,2.01-2.59,2.57-1.07,.56-2.06,.76-2.97,.62s-1.5-.69-1.77-1.63c-.05-.23-.09-.44-.12-.62-.04-.36-.11-.56-.22-.59-.1-.03-.34,.08-.7,.33-.1,.06-.23,.13-.37,.22-2.88,1.67-5.31,2.52-7.27,2.53Zm14.15-22.26c-.63,.48-1.57,1.36-2.81,2.66-1.24,1.29-2.52,2.73-3.82,4.32-1.3,1.58-2.38,3.06-3.22,4.42-.85,1.36-1.22,2.35-1.11,2.97,.11,.41,.6,.27,1.46-.42,.86-.69,1.91-1.69,3.13-3.01,1.22-1.32,2.46-2.74,3.71-4.25,1.25-1.52,2.33-2.9,3.25-4.15,.91-1.25,1.51-2.14,1.78-2.68,.3-.74,.21-1.07-.3-.98-.5,.09-1.2,.47-2.08,1.11Z"/></g></g></g></g></g></svg>