<?xml version="1.0" encoding="UTF-8"?><svg xmlns="http://www.w3.org/2000/svg" xmlns:xlink="http://www.w3.org/1999/xlink" viewBox="0 0 167.53 159.83"><defs><style>.cls-1{fill:url(#linear-gradient-2);}.cls-1,.cls-2,.cls-3,.cls-4,.cls-5,.cls-6,.cls-7,.cls-8,.cls-9,.cls-10,.cls-11{mix-blend-mode:multiply;}.cls-1,.cls-2,.cls-3,.cls-4,.cls-5,.cls-7,.cls-8,.cls-12,.cls-9,.cls-10,.cls-11{opacity:.4;}.cls-13{isolation:isolate;}.cls-2{fill:url(#linear-gradient-8);}.cls-14{fill:#93a3ad;}.cls-15{fill:url(#linear-gradient-12);}.cls-15,.cls-16,.cls-17{mix-blend-mode:overlay;}.cls-15,.cls-17{opacity:.2;}.cls-3{fill:url(#linear-gradient-4);}.cls-4{fill:url(#linear-gradient-3);}.cls-5{fill:url(#linear-gradient-5);}.cls-6{fill:#d1d3d4;opacity:.6;}.cls-16{fill:#fff;opacity:.5;}.cls-17{fill:url(#linear-gradient-11);}.cls-7{fill:url(#linear-gradient-7);}.cls-18{fill:#8b859b;}.cls-8{fill:url(#linear-gradient-9);}.cls-12{fill:#28293e;mix-blend-mode:screen;}.cls-9{fill:url(#linear-gradient);}.cls-10{fill:url(#linear-gradient-6);}.cls-11{fill:url(#linear-gradient-10);}</style><linearGradient id="linear-gradient" x1="15.94" y1="10.67" x2="37.91" y2="10.67" gradientUnits="userSpaceOnUse"><stop offset=".53" stop-color="#fff"/><stop offset=".85" stop-color="#6c6c7b"/><stop offset="1" stop-color="#28293e"/></linearGradient><linearGradient id="linear-gradient-2" x1="0" y1="79.46" x2="7.59" y2="79.46" xlink:href="#linear-gradient"/><linearGradient id="linear-gradient-3" x1="146.68" y1="29.17" x2="158.28" y2="29.17" xlink:href="#linear-gradient"/><linearGradient id="linear-gradient-4" x1="140.53" y1="133.59" x2="155.09" y2="133.59" xlink:href="#linear-gradient"/><linearGradient id="linear-gradient-5" x1="13.69" y1="137.38" x2="25.33" y2="137.38" xlink:href="#linear-gradient"/><linearGradient id="linear-gradient-6" x1="30.73" y1="144.46" x2="38.67" y2="144.46" xlink:href="#linear-gradient"/><linearGradient id="linear-gradient-7" x1="123.2" y1="146.4" x2="130.95" y2="146.4" xlink:href="#linear-gradient"/><linearGradient id="linear-gradient-8" x1="152.93" y1="118.7" x2="160.25" y2="118.7" xlink:href="#linear-gradient"/><linearGradient id="linear-gradient-9" x1="13.7" y1="29.51" x2="21.37" y2="29.51" xlink:href="#linear-gradient"/><linearGradient id="linear-gradient-10" x1="131.03" y1="14.57" x2="140.71" y2="14.57" xlink:href="#linear-gradient"/><linearGradient id="linear-gradient-11" x1="84.72" y1="10.43" x2="84.72" y2="147.28" gradientUnits="userSpaceOnUse"><stop offset="0" stop-color="#fff"/><stop offset=".66" stop-color="#f9b96c"/><stop offset="1" stop-color="#f7941e"/></linearGradient><linearGradient id="linear-gradient-12" x1="109.41" y1="123.31" x2="41.51" y2="11.11" xlink:href="#linear-gradient-11"/></defs><g class="cls-13"><g id="Capa_2"><g id="Capa_2-2"><g><g><path class="cls-12" d="M49.87,6.36S20.91,13.87,7.27,46.57C-6.37,79.27-.44,116.77,22.11,139.59c25.37,25.67,87.04,25.5,111.28,7.51,25.13-18.65,36.47-43.76,33.75-77.27-2.87-35.37-45.47-88.17-117.26-63.46Z"/><g><path class="cls-14" d="M26.72,126.77c9.46,10.14,24.96,15.77,37.29,18.39,14.55,3.1,32.67,3.05,45.99-1.77,12.38-3.11,25.77-14.9,32.21-22.02,11.02-12.19,12.77-24.99,14.25-41.84,2.73-31.14-26.08-66.07-58.84-68.77-31.12-2.56-69.47,8.79-79.82,40.03-7.31,22.07-8.25,57.54,8.93,75.97Z"/><g><path class="cls-18" d="M141.61,122.02c-3.45,.65-6.98,.91-10.46,.77-25-1.03-27.81-28.26-27.02-47.77,.31-7.74-3.86-13.58-9.19-18.69-4.98-4.76-8.97-9.2-7.47-16.48,1.24-6.06,6.35-11.12,10.61-15.26,4.08-3.96,9.62-6.97,15.08-10.09-2.62-1.04-5.29-1.88-8.01-2.52-8.81,5.15-17.04,13.23-21.59,22.29-4.59,9.16-1.07,18.04,5.92,24.65,5.1,4.82,8.82,8.81,9.04,16.17,.21,6.95-.49,13.63,.52,20.58,2.87,19.76,15.95,33.04,36,32.72,2.55-2.27,4.78-4.47,6.56-6.39Z"/><path class="cls-18" d="M118.12,95.89c5.43,14.68,20.31,17.79,33.18,11,1.11-2.8,1.96-5.7,2.63-8.71-1.75,1.44-3.57,2.74-5.45,3.88-6.92,4.17-14.85,4.26-20.9-1.42-6.58-6.18-5.32-15.29-5.19-23.39,.08-5.38-1.36-10.08-4.25-14.55-4.11-6.34-9.32-11.16-7.16-19.46,2.12-8.15,12.38-14.49,18.65-19.12-1.45-1.15-2.94-2.23-4.47-3.26-2.39,1.68-4.84,3.3-7.01,5.04-6,4.79-13.59,12.2-13.43,20.61,.15,7.83,4.28,12.96,8.63,19.1,6.41,9.04,1.12,20.4,4.78,30.29Z"/><path class="cls-18" d="M143.78,62.19c3.51,3.5,7.61,2.92,11.27,.54-.51-2.09-1.13-4.17-1.87-6.22-2.76,2.57-5.47,3.68-5.94-.32-.36-3.13,.48-6.01,1.95-8.68-1-1.88-2.1-3.73-3.28-5.53-1.48,2.05-2.67,4.23-3.27,6.54-1.06,4.04-2.24,10.31,1.13,13.68Z"/><path class="cls-18" d="M127.5,65.31c1.54,3.19,3.96,5.05,4.6,8.76,.59,3.43,1.61,6.35,3.75,9.12,2.9,3.75,8.46,4.57,12.52,2.21,3.72-2.17,6.25-5.25,8.24-8.76,.1-3.84-.27-7.71-1.04-11.56-1.28,3.11-2.44,6.29-4,9.23-1.93,3.63-7.6,10.28-12,4.6-1.7-2.19-1.92-5.42-2.38-8.05-.95-5.48-5.91-8.79-6.56-14.73-.9-8.22,5.39-14.64,11.23-19.74-1.07-1.34-2.17-2.65-3.33-3.93-9.88,8.8-18.09,18.2-11.04,32.87Z"/><path class="cls-18" d="M47.64,113.84c8.7-9.05,18.06-30.04,7.52-40.7-4.57-4.63-14.3-4.35-17.04-10.71-1.83-4.23,3.45-10.29,5.59-13.56,2.11-3.22,3.78-6.98,4.04-10.88,.46-6.9-1.92-11.91-5.75-15.88-1.59,.93-3.13,1.93-4.62,2.99,8.28,8.12,3.57,17.47-1.86,26.14-3.14,5.01-4.57,10.68-1.16,15.89,2.94,4.51,9.25,5.92,13.81,8.07,10.75,5.06,4.7,19.32,.51,26.98-4.52,8.26-10.52,12.85-18.59,17.41-1.97,1.12-4.12,2.31-6.29,3.63,.91,1.24,1.88,2.43,2.93,3.54,.24,.26,.5,.5,.75,.75,.2-.12,.4-.24,.59-.36,6.89-4.05,13.97-7.49,19.57-13.32Z"/><path class="cls-18" d="M71.92,74.23c-4.41-8.74-14.05-12.69-12.45-23.76,1.19-8.21,5.8-14.2,4.15-22.85-.78-4.06-2.64-8.53-5.29-12.64-1.8,.56-3.57,1.18-5.31,1.86,4.32,6.89,6.23,15.78,4.38,21.98-1.71,5.74-4.94,11.66-3.75,17.87,1.13,5.9,5.01,9.89,8.96,14.17,18.21,19.72,4.27,52.46-16.47,68.74,2.08,.88,4.18,1.68,6.28,2.39,19.16-16.67,30.45-46.03,19.49-67.76Z"/><path class="cls-18" d="M21.9,114.57c8.9-5.61,17.74-18.71,13.52-29.46-2.23-5.67-8.7-8.21-10.82-14.04-2.73-7.5,3.63-17.38,4.39-24.88,.43-4.19,.09-8.44-1.59-12.14-1.45,1.67-2.8,3.43-4.03,5.28,1.59,6.19-1.65,13.44-3.29,19.25-2.71,9.59-1.28,16.53,5.71,23.5,5.43,5.42,6.03,9.64,2.84,16.6-2.35,5.14-6.41,9.05-11.13,12.02-.08,.05-.16,.09-.24,.14,.65,1.77,1.37,3.48,2.18,5.14,.82-.45,1.64-.91,2.44-1.42Z"/><path class="cls-18" d="M91.33,99.55c-.72-3.14-5.53-2.27-5.49,.83,.16,11.76-7.05,20.29-11.03,30.8-1.56,4.11-3.51,9.96-6.38,14.81,1.89,.31,3.82,.56,5.78,.76,1.56-2.9,2.84-5.88,3.9-8.52,3.4-8.49,8.48-16.66,11.29-25.39,4.21,11.68,10.66,22.54,19.45,30.95,.39-.13,.78-.25,1.16-.38,1.59-.4,3.19-.94,4.79-1.6-12.24-10.6-19.82-26.44-23.45-42.25Z"/><path class="cls-18" d="M92.44,135.29c-1.53-2.62-4.94-1.1-5.2,1.49-.35,3.64-1.24,7.11-2.37,10.5,1.95,0,3.9-.06,5.83-.19,.27-.88,.51-1.76,.74-2.65,.52,.83,1.06,1.65,1.59,2.47,2.09-.19,4.15-.44,6.17-.77-2.43-3.53-4.64-7.24-6.77-10.85Z"/><path class="cls-18" d="M74.64,25.46c.16,2.13,2.33,3.44,4.25,2.35,5.86-3.31,10.17-8.33,14.54-13.35,1.15-1.32,2.37-2.54,3.62-3.73-2.49-.19-5.02-.29-7.58-.3-3.1,3.5-6.06,7.08-9.69,9.98-.34-3.15-.8-6.31-1.42-9.45-1.85,.18-3.7,.41-5.55,.7,.93,4.59,1.48,9.25,1.83,13.8Z"/></g><path class="cls-6" d="M126.81,22c3.51,8.46,5.19,17.39,4.43,26.03-1.48,16.86-3.23,29.65-14.25,41.84-6.44,7.12-19.83,18.91-32.21,22.02-13.32,4.82-31.44,4.87-45.99,1.77-7.26-1.55-15.61-4.14-23.19-8.08,2.19,8.1,5.78,15.47,11.11,21.2,9.46,10.14,24.96,15.77,37.29,18.39,14.55,3.1,32.67,3.05,45.99-1.77,12.38-3.11,25.77-14.9,32.21-22.02,11.02-12.19,12.77-24.99,14.25-41.84,1.86-21.22-10.93-44.2-29.64-57.54Z"/><path class="cls-16" d="M69.97,24.01s-20.54,.47-35.01,25.21c-14.47,24.74-7.94,43.41-.93,44.81,7,1.4,5.13-21.94,15.4-35.01,10.27-13.07,27.34-17.81,30.48-24.78,3.13-6.96-.6-11.63-9.94-10.23Z"/></g><g><path class="cls-18" d="M.92,82.5c.68,1.33,2.1,2.49,4,1.57,1.56-.75,2.29-2.33,2.46-3.77,.12-1.07,.46-2.48-.07-3.48-.46-.87-.98-1.8-2.09-2.15-1.36-.43-2.65,.21-3.48,1.07-.87,.9-1.06,1.88-1.19,3.01-.07,.69-.03,1.37,.01,2.07,.02,.25-.02,.61,.05,.86,.08,.27,.18,.55,.32,.82Z"/><path class="cls-18" d="M156.33,25.98c1.93,2.08,2.13,5.5,.05,7.56-2.43,2.41-5.42,.65-7.51-1.33-.72-.69-1.16-1.6-1.6-2.48-2.95-6.01,5.88-7.17,9.06-3.75Z"/><path class="cls-18" d="M19.92,6.51c-2.95,2.1-5.13,8.67-3.32,12.01,2.21,4.1,9.19,.96,12.62,.17,4.12-.96,6.89-4.55,8.05-8.36,1.49-4.89,.57-6.06-4.25-7.79"/><path class="cls-14" d="M33.2,1.72c-2.91-1.38-7.15-1.23-10.49,.11-4.04,1.62-7.87,12.72-2.85,14.96,2.77,1.24,7.24-.59,9.87-1.47,3.32-1.12,5.33-2.29,6.37-5.54,1.34-4.19-.21-6.78-2.89-8.06Z"/><path class="cls-9" d="M35.55,3.6c-.59-.8-1.39-1.43-2.34-1.88-2.91-1.38-7.15-1.23-10.49,.11-1.92,.77-3.78,3.69-4.68,6.78-1.86,2.89-2.82,7.35-1.43,9.91,2.21,4.1,9.19,.96,12.62,.17,4.12-.96,6.89-4.55,8.05-8.36,1.17-3.86,.84-5.4-1.72-6.73Z"/><path class="cls-18" d="M153.15,135.89c1.72-1.91,2.21-6.78,.44-8.81-2.16-2.49-6.5,.75-8.74,1.83-2.7,1.29-4.06,4.2-4.27,7.01-.27,3.61,.54,4.27,4.13,4.73"/><path class="cls-14" d="M145.64,140.86c2.22,.51,5.13-.25,7.23-1.69,2.54-1.74,3.48-10-.33-10.78-2.11-.43-4.91,1.52-6.59,2.54-2.12,1.28-3.33,2.4-3.55,4.81-.28,3.1,1.19,4.65,3.24,5.12Z"/><path class="cls-14" d="M156.58,25.1c-2.83-2.23-8.17-2.05-7.77,1.4,.32,2.73,2.08,6.66,5.43,6.15,1.56-.24,3.62-1.87,3.93-3.39,.37-1.79-.38-3.2-1.6-4.16Z"/><path class="cls-18" d="M15.78,140.75c-2.05-1.97-2.44-5.37-.47-7.55,2.29-2.54,5.38-.95,7.57,.92,.76,.65,1.25,1.53,1.73,2.39,3.28,5.83-5.47,7.48-8.83,4.25Z"/><path class="cls-14" d="M15.57,141.64c2.95,2.07,8.27,1.6,7.68-1.83-.47-2.71-2.45-6.54-5.77-5.84-1.55,.32-3.51,2.07-3.74,3.6-.27,1.81,.56,3.18,1.83,4.07Z"/><path class="cls-18" d="M32.16,146.76c-1.4-1.34-1.66-3.66-.32-5.15,1.56-1.74,3.67-.65,5.16,.63,.52,.44,.85,1.04,1.18,1.63,2.24,3.98-3.73,5.1-6.03,2.9Z"/><path class="cls-14" d="M32.02,147.37c2.01,1.41,5.64,1.09,5.24-1.25-.32-1.85-1.67-4.46-3.93-3.98-1.05,.22-2.39,1.42-2.55,2.46-.19,1.24,.38,2.17,1.25,2.78Z"/><path class="cls-18" d="M128.61,149.27c-1.7,.93-3.99,.49-5.01-1.23-1.19-2.01,.47-3.69,2.13-4.74,.57-.36,1.25-.5,1.91-.64,4.46-.95,3.76,5.08,.97,6.61Z"/><path class="cls-14" d="M129.15,149.58c1.95-1.5,2.72-5.06,.37-5.37-1.86-.25-4.76,.26-4.98,2.57-.1,1.07,.64,2.71,1.59,3.17,1.12,.54,2.18,.28,3.02-.37Z"/><path class="cls-18" d="M159.21,120.94c-1.08,1.61-3.32,2.28-5.01,1.22-1.98-1.24-1.28-3.5-.29-5.19,.34-.58,.88-1.02,1.39-1.45,3.53-2.9,5.68,2.78,3.91,5.42Z"/><path class="cls-14" d="M159.84,120.97c1.04-2.23,.08-5.74-2.15-4.94-1.76,.64-4.1,2.42-3.23,4.57,.4,1,1.81,2.11,2.87,2.08,1.25-.04,2.06-.75,2.52-1.72Z"/><path class="cls-18" d="M15.65,26.75c1.56-1.14,3.89-1,5.13,.57,1.44,1.84,0,3.73-1.51,4.98-.52,.43-1.17,.66-1.81,.88-4.3,1.52-4.38-4.56-1.82-6.43Z"/><path class="cls-14" d="M15.07,26.51c-1.74,1.74-2.04,5.37,.33,5.37,1.88,0,4.68-.87,4.6-3.19-.04-1.08-.98-2.6-1.98-2.94-1.18-.4-2.2,0-2.95,.75Z"/><path class="cls-14" d="M.35,82.36c.57,1.24,1.77,2.31,3.37,1.46,1.31-.7,1.93-2.16,2.07-3.49,.1-.99,.39-2.29-.06-3.23-.39-.8-.82-1.67-1.76-2-1.15-.4-2.23,.19-2.94,.99-.73,.83-.9,1.75-1,2.79-.06,.64-.03,1.27,0,1.91,.01,.23-.02,.57,.04,.8,.06,.25,.15,.51,.27,.76Z"/><path class="cls-18" d="M133.4,11.23c-1.43,.44-2.81,1.65-2.23,3.68,.48,1.66,1.91,2.65,3.3,3.06,1.03,.3,2.36,.87,3.44,.51,.93-.31,1.94-.66,2.48-1.69,.65-1.27,.24-2.64-.47-3.61-.74-1.01-1.68-1.36-2.77-1.68-.66-.19-1.34-.26-2.04-.34-.25-.03-.6-.13-.85-.1-.28,.03-.57,.09-.86,.18Z"/><path class="cls-14" d="M133.62,10.7c-1.32,.36-2.58,1.36-2.01,3.08,.47,1.41,1.8,2.27,3.09,2.63,.96,.27,2.2,.77,3.19,.48,.86-.25,1.78-.53,2.26-1.4,.59-1.06,.19-2.23-.48-3.06-.7-.86-1.57-1.18-2.58-1.46-.62-.17-1.25-.24-1.89-.31-.23-.03-.56-.12-.79-.1-.26,.02-.53,.06-.8,.14Z"/></g><path class="cls-1" d="M5.21,74.67c-.99-.31-1.93-.06-2.7,.43-.57,.18-1.09,.55-1.48,1-.73,.83-.9,1.75-1,2.79-.06,.64-.03,1.27,0,1.91,.01,.23-.02,.57,.04,.8,.06,.25,.15,.51,.27,.76,.4,.88,1.13,1.65,2.07,1.74,.68,.36,1.52,.43,2.49-.04,1.56-.75,2.29-2.33,2.46-3.77,.12-1.07,.46-2.48-.07-3.48-.46-.87-.98-1.8-2.09-2.15Z"/><path class="cls-4" d="M148.87,32.21c2.09,1.98,5.08,3.75,7.51,1.33,.96-.95,1.41-2.19,1.46-3.45,.16-.28,.29-.56,.35-.84,.37-1.79-.38-3.2-1.6-4.16-1.99-1.57-5.2-1.94-6.8-.83-2.39,.54-4.04,2.34-2.51,5.47,.43,.88,.87,1.79,1.6,2.48Z"/><path class="cls-3" d="M153.6,127.08c-2.16-2.49-6.5,.75-8.74,1.83-2.7,1.29-4.06,4.2-4.27,7.01-.27,3.61,.54,4.27,4.13,4.73l.1-.05c.26,.11,.54,.21,.83,.27,2.22,.51,5.13-.25,7.23-1.69,1.83-1.25,2.82-5.87,1.81-8.66-.05-1.35-.38-2.62-1.09-3.43Z"/><path class="cls-5" d="M22.88,134.11c-2.19-1.86-5.28-3.46-7.57-.92-.9,1-1.29,2.26-1.27,3.52-.15,.28-.26,.57-.3,.85-.27,1.81,.56,3.18,1.83,4.07,2.07,1.45,5.3,1.65,6.84,.45,2.35-.67,3.9-2.56,2.2-5.59-.48-.86-.97-1.74-1.73-2.39Z"/><path class="cls-10" d="M37,142.24c-1.5-1.27-3.6-2.36-5.16-.63-.62,.68-.88,1.54-.86,2.4-.1,.19-.18,.39-.21,.58-.19,1.24,.38,2.17,1.25,2.78,1.41,.99,3.61,1.12,4.66,.31,1.6-.46,2.66-1.75,1.5-3.82-.33-.58-.66-1.19-1.18-1.63Z"/><path class="cls-7" d="M127.64,142.65c-.66,.14-1.33,.28-1.91,.64-1.66,1.05-3.32,2.73-2.13,4.74,.47,.8,1.21,1.3,2.04,1.54,.15,.15,.32,.28,.49,.37,1.12,.54,2.18,.28,3.02-.37,1.35-1.04,2.1-3.04,1.68-4.29,.07-1.7-.84-3.14-3.19-2.64Z"/><path class="cls-2" d="M159.32,116.33c-.73-1.5-2.19-2.32-4.02-.81-.52,.43-1.05,.86-1.39,1.45-.99,1.7-1.69,3.96,.29,5.19,.78,.49,1.67,.59,2.51,.43,.21,.07,.42,.11,.61,.11,1.25-.04,2.06-.75,2.52-1.72,.73-1.56,.47-3.75-.51-4.64Z"/><path class="cls-8" d="M17.47,33.18c.63-.22,1.28-.45,1.81-.88,1.51-1.25,2.94-3.14,1.51-4.98-.57-.72-1.37-1.13-2.22-1.26-.18-.13-.35-.24-.54-.31-1.18-.4-2.2,0-2.95,.75-1.22,1.22-1.73,3.37-1.11,4.54,.18,1.66,1.26,2.93,3.5,2.14Z"/><path class="cls-11" d="M140.42,14.05c-.08-.6-.36-1.16-.74-1.62-.7-.86-1.57-1.18-2.58-1.46-.62-.17-1.25-.24-1.89-.31-.23-.03-.56-.12-.79-.1-.26,.02-.53,.06-.8,.14-.93,.25-1.82,.83-2.06,1.75-.47,.61-.69,1.43-.39,2.46,.48,1.66,1.91,2.65,3.3,3.06,1.03,.3,2.36,.87,3.44,.51,.93-.31,1.94-.66,2.48-1.69,.47-.92,.38-1.9,.03-2.73Z"/><path class="cls-17" d="M16.65,109c.2,.62,.42,1.24,.64,1.85h0s0,0,0,.01c.03,.07,.06,.15,.08,.22,.09,.25,.19,.5,.28,.75,.21,.53,.42,1.06,.64,1.59,0,.03,.02,.05,.03,.07,.05,.13,.11,.26,.17,.39,.09,.2,.17,.4,.26,.6,.23,.5,.46,1,.7,1.49,0,0,0,0,0,0h0c.17,.36,.34,.72,.52,1.07,0,.01,.01,.02,.02,.04,.41,.8,.85,1.59,1.31,2.36,.14,.23,.28,.46,.43,.7,.34,.55,.69,1.09,1.04,1.63,.17,.26,.35,.51,.53,.76,.37,.52,.75,1.03,1.14,1.53,.17,.22,.34,.45,.51,.66,.08,.1,.16,.21,.24,.31,.49,.59,1,1.17,1.52,1.74,.24,.26,.5,.5,.75,.75h0c5.09,5.17,11.74,9.12,18.68,12.07h0s.01,0,.02,0c2.08,.89,4.17,1.67,6.26,2.38h0c3.98,1.35,7.92,2.4,11.58,3.18,2.34,.5,4.78,.91,7.27,1.23,0,0,.01,0,.02,0,.96,.12,1.92,.24,2.89,.34,0,0,.01,0,.02,0h0c5.41,.55,11.01,.7,16.48,.36h0c1.83-.11,3.66-.28,5.45-.51h0c4.92-.62,9.63-1.67,13.85-3.19,.79-.2,1.59-.43,2.38-.7,.03-.01,.07-.03,.1-.04,.76-.26,1.52-.54,2.29-.85,0,0,0,0,.01,0h0c8.1-3.31,16.18-9.54,22.11-15.07,0,0,0,0,.02-.01,.58-.55,1.14-1.08,1.68-1.61,.02-.02,.04-.04,.06-.06,.53-.51,1.03-1.02,1.51-1.51,.02-.02,.04-.04,.06-.06,.48-.5,.94-.98,1.37-1.44,0,0,0,0,.02-.02h0c.19-.21,.41-.43,.59-.64,6.57-7.27,9.83-14.76,11.72-23.2h0c1.28-5.71,1.93-11.84,2.53-18.65,.07-.87,.12-1.74,.15-2.61,0-.23,.01-.46,.02-.68,.01-.77,0-1.55-.01-2.33,0-.06,0-.12,0-.18,0-.04,0-.09,0-.13-.03-.87-.09-1.73-.17-2.6,0-.05,0-.1-.01-.15-.02-.18-.04-.36-.06-.54-.08-.74-.16-1.47-.27-2.21-.02-.16-.04-.32-.06-.47-.13-.85-.28-1.71-.45-2.56-.05-.24-.1-.48-.15-.72-.14-.68-.3-1.36-.47-2.04-.05-.22-.11-.43-.16-.65-.22-.83-.45-1.65-.71-2.47-.08-.26-.16-.51-.24-.76-.2-.63-.42-1.25-.64-1.87-.09-.27-.19-.53-.28-.8-.29-.79-.6-1.57-.93-2.35-.11-.28-.24-.56-.36-.83-.24-.56-.49-1.11-.74-1.67-.15-.31-.29-.63-.45-.94-.35-.74-.72-1.47-1.1-2.19-.04-.08-.09-.17-.13-.26h0c-.04-.07-.08-.14-.12-.2-.08-.15-.17-.31-.26-.46-.26-.48-.53-.96-.81-1.44-.13-.23-.26-.46-.39-.69,0,0,0,0,0,0-.07-.12-.15-.24-.22-.36-.32-.53-.64-1.05-.97-1.57-.17-.27-.33-.53-.5-.8,0,0,0,0,0,0h0c-.15-.23-.31-.45-.46-.67-.27-.4-.54-.8-.81-1.2-.27-.39-.54-.77-.81-1.15-.27-.36-.54-.73-.81-1.09-.47-.63-.96-1.25-1.45-1.87-.25-.32-.5-.63-.76-.94-.33-.4-.67-.8-1.01-1.19-.23-.27-.47-.54-.71-.81-.18-.2-.35-.41-.53-.61,0,0,0-.01-.02-.02h0c-.45-.49-.9-.97-1.36-1.45-.21-.22-.42-.45-.64-.67-.39-.4-.79-.8-1.2-1.19-.21-.21-.43-.42-.65-.62-.79-.75-1.6-1.49-2.42-2.2-.13-.12-.27-.24-.41-.36-.44-.38-.89-.75-1.34-1.12-.22-.18-.44-.35-.66-.53-.79-.63-1.59-1.24-2.4-1.84-.03-.02-.06-.05-.09-.07-.73-.53-1.47-1.05-2.22-1.55,0,0,0,0,0,0h0c-3.79-2.54-7.8-4.69-11.97-6.35h0c-2.61-1.04-5.29-1.88-8.01-2.52h0c-2.48-.58-5-1.01-7.55-1.22-1.37-.11-2.76-.19-4.16-.25-.12,0-.23-.01-.35-.01-1.2-.05-2.41-.07-3.63-.08h-.01c-3.66-.02-7.38,.16-11.1,.53h0s-.02,0-.02,0c-.91,.09-1.82,.19-2.74,.31-.02,0-.05,0-.07,0-5.83,.74-11.63,1.96-17.2,3.71h0s-.1,.03-.15,.05c-6.59,2.08-12.85,4.89-18.47,8.5-.02,.02-.05,.03-.08,.05-.76,.49-1.5,1-2.24,1.51-.01,0-.02,.02-.03,.02h0c-3.69,2.6-7.04,5.58-9.97,8.94h0s0,0,0,0c-.71,.82-1.4,1.65-2.05,2.52-.02,.03-.05,.06-.07,.09-.66,.87-1.29,1.75-1.9,2.66,0,0,0,0,0,0h0c-2.3,3.48-4.2,7.29-5.58,11.47-5.3,16-7.25,39.06-1.36,57.54,.07,.22,.14,.44,.22,.66Z"/></g><path class="cls-15" d="M16.65,109c.2,.62,.42,1.24,.64,1.85h0s0,0,0,.01c.03,.07,.06,.15,.08,.22,.09,.25,.19,.5,.28,.75,.21,.53,.42,1.06,.64,1.59,0,.03,.02,.05,.03,.07,.05,.13,.11,.26,.17,.39,.09,.2,.17,.4,.26,.6,.23,.5,.46,1,.7,1.49,0,0,0,0,0,0h0c.17,.36,.34,.72,.52,1.07,0,.01,.01,.02,.02,.04,.41,.8,.85,1.59,1.31,2.36,.14,.23,.28,.46,.43,.7,.34,.55,.69,1.09,1.04,1.63,.17,.26,.35,.51,.53,.76,.37,.52,.75,1.03,1.14,1.53,.17,.22,.34,.45,.51,.66,.08,.1,.16,.21,.24,.31,.49,.59,1,1.17,1.52,1.74,.24,.26,.5,.5,.75,.75h0c5.09,5.17,11.74,9.12,18.68,12.07h0s.01,0,.02,0c2.08,.89,4.17,1.67,6.26,2.38h0c3.98,1.35,7.92,2.4,11.58,3.18,2.34,.5,4.78,.91,7.27,1.23,0,0,.01,0,.02,0,.96,.12,1.92,.24,2.89,.34,0,0,.01,0,.02,0h0c5.41,.55,11.01,.7,16.48,.36h0c1.83-.11,3.66-.28,5.45-.51h0c4.92-.62,9.63-1.67,13.85-3.19,.79-.2,1.59-.43,2.38-.7,.03-.01,.07-.03,.1-.04,.76-.26,1.52-.54,2.29-.85,0,0,0,0,.01,0h0c8.1-3.31,16.18-9.54,22.11-15.07,0,0,0,0,.02-.01,.58-.55,1.14-1.08,1.68-1.61,.02-.02,.04-.04,.06-.06,.53-.51,1.03-1.02,1.51-1.51,.02-.02,.04-.04,.06-.06,.48-.5,.94-.98,1.37-1.44,0,0,0,0,.02-.02h0c.19-.21,.41-.43,.59-.64,6.57-7.27,9.83-14.76,11.72-23.2h0c1.28-5.71,1.93-11.84,2.53-18.65,.07-.87,.12-1.74,.15-2.61,0-.23,.01-.46,.02-.68,.01-.77,0-1.55-.01-2.33,0-.06,0-.12,0-.18,0-.04,0-.09,0-.13-.03-.87-.09-1.73-.17-2.6,0-.05,0-.1-.01-.15-.02-.18-.04-.36-.06-.54-.08-.74-.16-1.47-.27-2.21-.02-.16-.04-.32-.06-.47-.13-.85-.28-1.71-.45-2.56-.05-.24-.1-.48-.15-.72-.14-.68-.3-1.36-.47-2.04-.05-.22-.11-.43-.16-.65-.22-.83-.45-1.65-.71-2.47-.08-.26-.16-.51-.24-.76-.2-.63-.42-1.25-.64-1.87-.09-.27-.19-.53-.28-.8-.29-.79-.6-1.57-.93-2.35-.11-.28-.24-.56-.36-.83-.24-.56-.49-1.11-.74-1.67-.15-.31-.29-.63-.45-.94-.35-.74-.72-1.47-1.1-2.19-.04-.08-.09-.17-.13-.26h0c-.04-.07-.08-.14-.12-.2-.08-.15-.17-.31-.26-.46-.26-.48-.53-.96-.81-1.44-.13-.23-.26-.46-.39-.69,0,0,0,0,0,0-.07-.12-.15-.24-.22-.36-.32-.53-.64-1.05-.97-1.57-.17-.27-.33-.53-.5-.8,0,0,0,0,0,0h0c-.15-.23-.31-.45-.46-.67-.27-.4-.54-.8-.81-1.2-.27-.39-.54-.77-.81-1.15-.27-.36-.54-.73-.81-1.09-.47-.63-.96-1.25-1.45-1.87-.25-.32-.5-.63-.76-.94-.33-.4-.67-.8-1.01-1.19-.23-.27-.47-.54-.71-.81-.18-.2-.35-.41-.53-.61,0,0,0-.01-.02-.02h0c-.45-.49-.9-.97-1.36-1.45-.21-.22-.42-.45-.64-.67-.39-.4-.79-.8-1.2-1.19-.21-.21-.43-.42-.65-.62-.79-.75-1.6-1.49-2.42-2.2-.13-.12-.27-.24-.41-.36-.44-.38-.89-.75-1.34-1.12-.22-.18-.44-.35-.66-.53-.79-.63-1.59-1.24-2.4-1.84-.03-.02-.06-.05-.09-.07-.73-.53-1.47-1.05-2.22-1.55,0,0,0,0,0,0h0c-3.79-2.54-7.8-4.69-11.97-6.35h0c-2.61-1.04-5.29-1.88-8.01-2.52h0c-2.48-.58-5-1.01-7.55-1.22-1.37-.11-2.76-.19-4.16-.25-.12,0-.23-.01-.35-.01-1.2-.05-2.41-.07-3.63-.08h-.01c-3.66-.02-7.38,.16-11.1,.53h0s-.02,0-.02,0c-.91,.09-1.82,.19-2.74,.31-.02,0-.05,0-.07,0-5.83,.74-11.63,1.96-17.2,3.71h0s-.1,.03-.15,.05c-6.59,2.08-12.85,4.89-18.47,8.5-.02,.02-.05,.03-.08,.05-.76,.49-1.5,1-2.24,1.51-.01,0-.02,.02-.03,.02h0c-3.69,2.6-7.04,5.58-9.97,8.94h0s0,0,0,0c-.71,.82-1.4,1.65-2.05,2.52-.02,.03-.05,.06-.07,.09-.66,.87-1.29,1.75-1.9,2.66,0,0,0,0,0,0h0c-2.3,3.48-4.2,7.29-5.58,11.47-5.3,16-7.25,39.06-1.36,57.54,.07,.22,.14,.44,.22,.66Z"/></g></g></g></g></svg>