<?xml version="1.0" encoding="UTF-8"?><svg id="Capa_2" xmlns="http://www.w3.org/2000/svg" viewBox="0 0 166.35 164.98"><defs><style>.cls-1,.cls-2{fill:#fff;}.cls-3{fill:#7d0d98;}.cls-4,.cls-2{opacity:.2;}.cls-5{opacity:.3;}.cls-5,.cls-6{fill:#eb53c0;}.cls-7{fill:#ff71f8;opacity:.5;}</style></defs><g id="Capa_2-2"><g><circle class="cls-3" cx="83.25" cy="82.44" r="82.44"/><path class="cls-6" d="M157.81,87.32c-8.67-3.27-36.23,2.42-37.63-9.09-.72-5.94,5.5-12.99,3.08-19-2.62-6.52-12.92-6.48-18.69-7.58-5.49-1.05-17.38-4.26-16.65-12.31,.56-6.2,9.15-5.92,13.44-6.61,10.11-1.61,18.7-3.5,28.13-7.79,2.96-1.35,5.44-3.2,7.82-5.14-5.49-4.78-11.62-8.84-18.24-12.04-1.12,2.19-5.25,.64-7.34,3.47-2.81,3.8,2.12,6.49-4.43,9.31-3.49,1.5-9.92,1.86-13.29-.42-4.39-2.97-3.63-6.01-9.94-6.25-.35-.01-5.39,.48-5.53,.56-2.44,1.28-1.65,3.02-3.29,4.43-4.66,4.02-5.68-1.13-11.08-1.1-5.9,.03-6.51,5.01-8.7,8.85-2.82,4.94-7.6,7.64-13.46,7.74-5.11,.09-8.39-2.47-11.03-6.64-1.19-1.87-1.44-5.09-2.44-7.37C11.82,35.21,1.18,56.76,.83,80.8c2.65-2.24,4.58-4.88,4.72-8.27l1.66-5.53c3.08-11.55,16.33-21.84,24.34-9.86,3.42,5.12,4.8,11.25,12.02,11.97,8.48,.84,14.74-6.7,21.32-10.56,8.19-4.81,16.9-4.01,23.62,2.64,4.52,4.48,11.17,14.93,6.53,21.31-9.16,12.6-26.05-9.57-36.97-1.79-14.41,10.26,13.29,17.42,18.28,21.71,15.43,13.28-5.76,25.75-19.94,26-4.32,.08-9.53-1.72-13.83-.58-6.03,1.6-12.68,7.58-18.34,10.53-.27,.14-.53,.28-.8,.41,9.93,10.46,22.57,18.32,36.81,22.45,.99-9.05,13.5-3.28,18.86-2.92,12.93,.86,3.59-16.68,14.4-20.49,3.6-1.27,10.94-.66,11.64,3.32,.84,4.77-9.15,8.87-3.92,12.33,6.24,4.13,5.1-5.4,8.85-6.26,2.37-.55,2.33,2.89,5.01,2.79,2.54-.1,2.5-2.16,4.55-3.19,4.81-2.42,10.77-3.55,14.41,.19,17.27-13.53,29.01-33.79,31.25-56.84-2.42-.77-4.86-1.82-7.48-2.81Z"/><path class="cls-5" d="M43.26,72.19c-2.08-1.15-3.94,.26-6.12,.2-4.74-.12-8.8-2.1-10.77-6.45-1.89-4.19-6.49-5.92-10.65-2.64-3.71,2.94-2.83,8.9-3.85,12.95-.71,2.86-4.37,11.43-8,10.31l.26,.26c-2.69,1.91-1.57,5.69,.77,7.28,3.04,2.07,5.98-.57,7.29-3.36,2.34-5,2.88-11.53,6.69-15.79,2.66-2.98,7.37,.64,10.77,1.36,3.59,.75,9.42,1.44,12.63-.12,2.18-1.06,3.64-2.52,.97-4Z"/><path class="cls-5" d="M134.34,57.68c-.26-5.14-2.27-8.18-6.25-11.27-1.81-1.41-3.75-2.37-5.87-3.23-2.04-.83-4.59-.78-6.45-1.73-2.36-1.21-2.39-3.24,0-4.45,1.95-.98,4.58-.29,6.65-.19,1.74,.08,8.95-.48,5.67-3.29-1.64-1.4-7.3-.71-9.22-.33-5.62,1.11-12.19,.49-17.75,2.11,.03,.36-.16,.31-.3,.47l-3.09,1.03c-2.34,.51-2.59,3.43-1.22,5.11,1.59,1.94,4.84,1.98,7.09,2.17,5.54,.46,10.37,.38,15.58,2.58,4.41,1.86,8.98,5.74,9.75,10.77,.36,2.38-2.63,11.84-.52,12.39,4.22,1.09,6.05-9.72,5.93-12.14Z"/><path class="cls-5" d="M65.58,12.5c-.78-1.47-4.83-1.26-6.26-1.23-3.6,.08-6.02,1.84-9.02,3.61-2.51,1.48-7.27,5.09-10.28,4.6-.34-1.29,4.15-6.68-.3-4.6l-3.61,2.32c-4.9,.73-2.47,7.83,.77,9.28,5.68,2.54,9.37-.85,12.83-4.7,1.8-2,3.75-3.84,5.99-5.29,2.56-1.66,3.74-1.26,6.45-1.09,1.41,.09,4.71-.48,3.43-2.91Z"/><path class="cls-5" d="M155.94,71.93c-.85-4.66-7.12-8.44-9.99-11.92-2.79-3.38-7.61-3.75-6.92,1.77,.43,.22,.3-.2,.47-.22l-.52,1.29c-.23,2.61-1.82,5.26-3.62,7.02-1.45,1.43-4.47,2.09-5.61,3.61-1.59,2.13-.22,4.67,2.01,5.43,3.35,1.14,6.16-1.4,9.21-2.13,4.43-1.07,16.67,4.5,14.97-4.84Z"/><path class="cls-2" d="M102.18,61.3c-7.24-10-21.86-15.36-34.03-15.21-5.34,.07-12.18,2.08-16.82,4.83-4.34,2.57-6.96,4.81-11.14,.6-6.42-6.47-14.91-12.99-24.19-7.48-3.25,1.93-5.74,4.97-8.17,7.8-1.6,1.87-2.05,2.32-2.13,4.83-.04,1.31,.82,5.44,1.81,2.32v-1.29c5.11-7.39,16.92-15.39,25.08-7.03,1.54,1.57,1.87,3.74,3.07,5.47,1.37,1.98,3.26,3.21,5.36,4.2,6.28,2.95,12.07,1.03,17.28-3.09,9-7.12,23.61-5.73,32.22,1.48,7.77,6.51,18.91,25.48,6.43,32.56-5.27,2.99-12.27,1.69-17.78,0-4.9-1.51-10.14-6.85-15.47-4.25-1.44,.7-3.6,2.45-2.01,4.12,1.88,1.96,3.41-1.05,4.85-1.48,4.04-1.21,10.89,3.66,14.7,4.83,4.22,1.3,9.2,2.64,13.67,2.38,3.91-.22,9.54-4.51,10.9-8.19,3.01-8.14,1.46-20.38-3.62-27.39Z"/><path class="cls-2" d="M86.07,102.05c-3.82-5.11-10.73-7.33-16.44-9.04l-1.03-.26c-3.16,1.43,2.21,2.57,3.09,2.82,2.72,.78,4.89,2.51,6.93,4.38,4.24,3.89,5.76,8.75,5.96,14.39,.25,7.21-2.8,13.81-9.74,16.51-4.95,1.93-11.7,2.63-17.07,2.63-4.57,0-9.54-.49-13.92,.53-3.33,.78-9.25,1.84-10.52,5.65-.64,1.91,.43,3.44,2.53,3.62,2.25,.19,2.92-1.75,4.65-2.77,3.93-2.31,10.42-1.98,14.9-2.64,10.66-1.57,24.66-.14,31.76-10.31,5.67-8.13,4.55-17.98-1.09-25.51Z"/><path class="cls-2" d="M137.64,138.13c-1.36-3.65-10.33-3.43-13.36-3.29-3.84,.17-9.33,2.24-12.38-.38-4.39-3.77-5.83-6.8-12.11-6.95-4.7-.12-11.83,3.89-14.97,7.28-3.87,4.18-4.71,9.26-10.77,11.29-6.18,2.06-14.59-1.67-20.16,2.16-4.62,3.18-1.11,13.24,2.57,8.98l.52,.77c-.73-7.2,8.76-9.08,14.24-7.99,2.72,.54,5.41,2.43,8.19,2.32,4.76-.19,4.43-4.16,5.47-7.67,2.29-7.69,8.79-12.28,16.44-12.18,2.37,.03,6.42,0,6.97,3.09,.45,2.49-2.28,3.39,.04,5.87,1.55,1.66,3.94,1.8,5.31,.08,0,.31,.07,.66,.08,.97,2.27-.32,4.02-2.57,6.39-3.11,2.58-.58,5.48-.02,7.99,.63,1.84,.48,4.62,2.44,6.46,2.27,1.67-.15,3.72-2.32,3.04-4.14Z"/><path class="cls-2" d="M148.25,91.72c-8.7-.71-21.26,2.78-27.77-4.44-4.14-4.59-2.16-15.24-1.86-21.08,.17-3.27,.19-7.96-2.85-10-.89-.6-3.6-1.5-4.63-1.09-2.02,.8-.94,2.26,.52,2.33l2.32,.77c3.74,3.75,2.02,8.82,.58,13.41-1.76,5.61-2.79,12.56-.13,18.1,2.79,5.82,11.23,7.29,17.08,7.42,5.12,.11,10.05-2.28,15.2-.97,3.92,.99,7.97,5.06,11.6,1.3,4.52-4.68-7.17-5.5-10.05-5.74Z"/><path class="cls-2" d="M129.97,17.21c-.34-.99-1.34-1.74-2.08-2.06l-.26,1.03c-1.17,5.01-10.61,6.89-14.75,7.81-7.78,1.72-15.56,2.3-23.41,3.8-5.19,.99-13.34,4.87-12.89,11.34,.14,2.06,2.03,4.05,4.18,3.81,2.96-.33,1.57-2.31,2-4.58,.86-4.53,7.02-5.91,10.82-6.46,5.11-.74,9.99-.91,14.97-2.76,4.5-1.67,9.03-2.6,13.4-4.2,2.96-1.08,9.59-3.1,8.01-7.73Z"/><g class="cls-4"><path class="cls-1" d="M92.83,123.62c0-.21,.03-.41,.06-.61l-.06-.08c0,.23,0,.46,0,.7Z"/><path class="cls-1" d="M143.32,127.36c-3.87-3.52-13.14-3.96-18.01-3.47-4.27,.43-8.51,2.29-12.34-.45-4.78-3.42-7.83-8.8-14.26-6.26-2.46,.97-5.36,3.08-5.81,5.82l.71,.95c-.53,.24-.92,.47-1,1.24,1.92,.98,4.49-1.53,6.42-2.01,2.17-.54,4.94-.48,7.02,.19,1.83,.59,4.36,2.09,5.63,3.62,1.48,1.78,1.22,3.87,3.85,4.18,4.22,.5,7.86-3.04,12.38-2.33,4.56,.72,6.73,4.22,10.3,6.52,5.25,3.39,9.34-4.17,5.12-8.01Z"/></g><g><path class="cls-2" d="M40.52,44.45c.22-.09,.28-.22,.33-.36-.11,.11-.22,.23-.33,.36Z"/><path class="cls-2" d="M40.85,44.09c.07-.07,.15-.15,.22-.21l-.07-.11c-.09,.1-.12,.22-.16,.32Z"/><path class="cls-2" d="M85.17,18.43c-3-1.58-2.91,1.17-4.19,2.91-2.55,3.46-7.74,3.5-11.41,4.96-4.74,1.88-7.73,5.25-10.06,9.48-2.07,3.76-6.43,5.96-10.51,6.76-3.09,.6-5.59-.76-7.93,1.34l.71,1.18c-2.71,4.9,11.56,.9,12.89,.26,5.47-2.66,7.73-7.46,11.35-11.86,2.88-3.5,6.9-4.83,11.09-5.92,2.8-.73,9.02-1.35,10-4.71,.47-1.6-.42-3.59-1.93-4.39Z"/></g><path class="cls-7" d="M83.17,164.98c45.94,0,83.17-36.96,83.17-82.56,0-38.39-26.4-70.66-62.15-79.9-.51,3.08-.03,6.75,1.76,11.01,6.68,15.86,20.64,28.64,27.66,44.3,14.74,32.84,10.9,71.33-29.06,81.76-16.2,4.23-36.1,1.6-49.37-8.29-15.28-11.39-12.72-29.1-9.83-45.74,2.87-16.56,16.33-42.82,7.59-59.46-2.32-4.41-11.16-14.04-21.17-8.59C12.43,32.62,0,56.08,0,82.42c0,45.6,37.24,82.56,83.17,82.56Z"/><path class="cls-2" d="M30.03,123.22c-5.98-9.62-7.79-20.94-8.77-32.09-1.02-11.56,.33-23.5,3.15-34.67,1.77-7.04,12.47-22.28,4.52-23.97-7.65-1.63-18.9,14.14-20.66,23.52-3.36,17.92-2.03,34.68,3.24,52.17,2.23,7.4,4.73,13.56,8.57,20.19,1.78,3.08,3.29,5.73,6.56,7.49,1.93,1.04,6.16,3.46,8.11,3.49,8.72,.14-2.94-13.3-4.71-16.15Z"/></g></g></svg>