<?xml version="1.0" encoding="UTF-8"?><svg id="Capa_2" xmlns="http://www.w3.org/2000/svg" viewBox="0 0 74.56 74.56"><defs><style>.cls-1{fill:#ed6326;}.cls-2{fill:#edba3a;}.cls-3{fill:#ffff9f;opacity:.2;}.cls-4{fill:#ef8a34;}</style></defs><g id="Capa_2-2"><g><g><circle class="cls-1" cx="37.28" cy="37.28" r="37.28" transform="translate(-5.49 68.1) rotate(-80.78)"/><g><path class="cls-4" d="M4.82,33.19c3.68-1.7,6.76-5.09,8.01-8.71,2.23-6.49,8.32-10.92,14.48-7.46,.61,2.71-2.84,1.38-4.21,1.46-2.03,.11-3.88,.95-4.7,2.99-1.73,4.29,4.85,6.06,5.67,1.81-1.71-.76-4.4-2.1-.47-2.31,2.4-.13,3.34,1.77,2.7,3.95-.55,1.87-2.85,3.37,.55,4.06,2.08,.42,4.2-1.14,5.75-2.31,3.75-2.84,3.96-6.33,.2-9.13-1.36-1.01-3.41-2.06-4.02-3.76-.63-1.76,1.08-4.1,3.32-3.07,2.04,.93-.07,3.7,3.01,4.51,2.74,.73,3.51-2.39,5.23-4.01,3.95-3.72,8.67-.19,3.26,2.7-1.56,.83-4.82,2.08-3.69,4.31,1.05,2.08,4.66,1.2,6.14,.01,1.36-1.09,3.4-3.95,3.75-5.76,.55-2.93-1.99-3.07-2.63-5.06-.71-2.23,3.23-3.09,6.91-3.38C49.02,1.45,43.29,0,37.22,0,17.62,0,1.56,15.12,.06,34.34c1.57-.25,3.23-.44,4.76-1.15Z"/><path class="cls-4" d="M64.68,28.18c-.68,0-1.47-.69-2.31-.46-1.67,.46-3.2,3.88-3.78,5.3-2.26,5.52,8.64,4.71,9.48,10.67,.5,3.51-1.65,6.04-4.7,7.08-1.69,.58-2.85,.86-4.44,2-1.01,.72-1.86,1.64-2.99,2.05,1.3-.29,3.37-.32,4.62-.3,2.96,.05,2.99,.43,1.57,2.8-.54,.91-4.65,7.26-6.46,4.16-.8-1.36,1.8-2.74,1.22-4.2-.92-2.3-10.88,3.43-9.79-2.52,.3-1.62,2.27-1.99,3.51-2.49,2.08-.84,4.04-1.81,5.76-3.31,5.14-4.48-.12-11.76-5.56-12.45-1.71-.22-5.15-.34-5.64-2.56-.72-3.25,2.91-1.76,4.45-1.13,6.89,2.83,4.83-5.63,6.68-9.82,1.1-2.49,3.35-5.68,5.63-6.95,1.48-.82,3.05-1.31,4.29-2.18-1.04-1.29-2.17-2.51-3.38-3.65-.46,.23-1.03,.4-1.71,.51-2.11,.34-4.73-.25-6.2,1.57-1.38,1.71-1.44,4.66-2.51,6.64-1.23,2.29-2.87,4.68-5.56,4.81-1.84,.09-4.04-1.69-5.75-1.26-3.8,.96,1.47,5.54,.44,8.51-.84,2.4-7.79,10.37-9.45,6-1.02-2.7,5.93-7.87-.26-7.26-4.52,.44-7.83,5.65-12.46,4.97-.82-1.87,1.12-3.71-.73-5.03-1.79-1.27-3.71,.66-4.5,2.31-.8,1.68-1.16,4.72,.45,6.02,2.16,1.76,5.31-.29,7.44-.82,1.66-.41,4.32-.41,4.02,2.06-.36,2.91-6.72,5.52-9.22,5-4.34-.9-2.67-6.9-8-7.75-3.44-.55-6.12,2.2-8.64,5.11,.14,1.21,.34,2.41,.59,3.59,2.25-1.64,6.51-4.5,8.05-3.94,1.27,.46,2.26,2.98,3.31,3.93,1.45,1.31,3.03,2.63,4.95,2.82,1.95,.19,4.47-.32,6.07-1.43,1.53-1.06,2.41-3.43,4.65-3.28,.08,3.22,2.37,2.89,4.49,1.16,2.91-2.38,4.22-4.59,8.55-4.96,3.19-.27,8.36,.02,9.73,3.46,1.25,3.13-1.13,6.49-4.19,7.33-3.21,.88-8.39-2.25-10.35,1.47-2.75,5.23,3.12,8.17,7.26,8.81,1.66,.26,4.64-.28,5.63,1.43,1.92,3.32-3.02,7.23-6.07,7.02-4.22-.29-3.6-6.24-6.26-6.51-2.99-.3-.82,4.79-3.26,5.79-3.77,1.55-2.69-3.63-1.98-5.25,1.14-2.58,2.7-4.4,1.5-7.29-1.42-3.41-9.08-7.67-12.77-6.76-3,.74-2.03,3.24-.07,4.32,1.91,1.05,5.27,.7,6.81,2.25,3.4,3.42-2.51,7.58-6.1,7.39-2.53-.13-7.39-1.34-8.35-4.02-.6-1.69,.64-3.53,.73-5.17,.32-6.13-7.66-8.84-11.83-6.57,4.34,15.77,18.79,27.36,35.94,27.36,20.59,0,37.28-16.69,37.28-37.28,0-3.88-.59-7.61-1.69-11.13-2.57,1-5.59,2.04-8.13,2.03Z"/></g><path class="cls-2" d="M19.09,11.49c-2.1-.83-4.11,.19-5.9,1.02-1.78,.83-4.13,1.23-5.32,2.94l1.25,1.5c-2.45,.55-4.96,4.53-4.75,7,.35,4.25,3.48,1.53,4.5-.76,1.08-2.42,2.32-5.62,4.75-7.19,1.64-1.06,6.1-1.51,5.47-4.51Z"/><path class="cls-2" d="M32.64,70.24c-1.61,.07-3.61,.14-4.57-1.45-1.26-2.07,1.04-2.94,.57-5.07l-.75-1.75c-1.37,2.35-8.6,2.33-8.27,5,.34,2.7,7.59,3.34,9.52,3.81,1.38,.33,3.76,1.52,5.25,.94,2.96-1.14-.27-1.55-1.75-1.49Z"/><path class="cls-2" d="M69.16,33.21l-3.25-.75c-1.83-1.72-8.39,.51-4.25,3.45,2.03,1.44,6.2,1.15,7.45,3.62,.5,.99-.75,3.24,.8,3.47,1.2,.18,1.87-2.57,2.02-3.26,.5-2.31-.43-5.51-2.77-6.52Z"/><path class="cls-2" d="M27.63,4.94c-1.08,.03-2.73,1.2-2.27,2.51,.54,1.56,3.1,.81,4.27,.75,1.99-.1,6.73-.04,6.79,2.96,3.37,.43,2.38-3.17,4.01-4.42,1.11-.85,5.49-.35,2.4-2.74-3.15-2.44-9.93-.05-13.45-.06l-1.75,1Z"/><path class="cls-2" d="M54.64,17.38c-1.01,.74-1.69,2.91-2.25,4.06l-1,2.75c-1.08,1.97-10.24,.88-6.95,4.95,1,1.23,3.52,.69,4.96,.74,2.09,.07,2,.48,2.99-1.93,1.17-2.87,2.9-5.74,4-8.76,.7-1.94,.56-3.51-1.75-1.81Z"/></g><path class="cls-3" d="M37.43,2.15c-4.1-.43-9.42,1.24-13.26,2.56-6.17,2.13-10.79,6.38-14.71,11.64C2.96,25.07,.94,37.11,3.71,47.48c2.99,11.19,12.52,21.48,24.2,22.78,8.53,.95,21.01,2.27,27.09-4.75,2.73-3.15,7.58-10.54,1.69-12.76-5.42-2.04-12.14,.31-17.81-.56-9.59-1.46-16.79-6.98-15.97-17.32,.36-4.55,2.11-10.06,5.69-13.08,3.23-2.72,7.76-3.46,11.65-4.68,3.41-1.07,7.92-2.68,7.69-6.94-.23-4.11-3.16-4.67-5.25-7l-5.25-1Z"/><path class="cls-3" d="M29.64,11.69c-2.09-1.19-6.08,.92-7,.5l-2.25,.5c-4.88,.98-7.59,5.72-9.25,10-1,2.57-3.05,11.7,2.24,11.77,2.2,.03,2.94-3.09,3.7-4.76,1.25-2.74,2.68-5.69,4.7-7.97,1.55-1.75,11.37-8.05,7.87-10.04Z"/></g></g></svg>