<?xml version="1.0" encoding="UTF-8"?><svg xmlns="http://www.w3.org/2000/svg" xmlns:xlink="http://www.w3.org/1999/xlink" viewBox="0 0 63.22 60.94"><defs><style>.cls-1{fill:#a04a99;}.cls-2{opacity:.4;}.cls-2,.cls-3{mix-blend-mode:screen;}.cls-4{isolation:isolate;}.cls-5{fill:#92278f;}.cls-6{fill:url(#linear-gradient-2);}.cls-6,.cls-7,.cls-8{mix-blend-mode:overlay;}.cls-6,.cls-8{opacity:.2;}.cls-9{fill:#d1d3d4;mix-blend-mode:multiply;opacity:.6;}.cls-3{fill:#28293e;opacity:.3;}.cls-7{fill:#fff;opacity:.5;}.cls-8{fill:url(#linear-gradient);}</style><linearGradient id="linear-gradient" x1="31.4" y1="7.2" x2="31.4" y2="56.92" gradientUnits="userSpaceOnUse"><stop offset="0" stop-color="#fff"/><stop offset=".66" stop-color="#f9b96c"/><stop offset="1" stop-color="#f7941e"/></linearGradient><linearGradient id="linear-gradient-2" x1="40.78" y1="51.72" x2="9.48" y2="-18.56" xlink:href="#linear-gradient"/></defs><g class="cls-4"><g id="Capa_2"><g id="Capa_2-2"><g><g><g class="cls-2"><path class="cls-3" d="M61.84,35.17c2.43-4.64,1.28-5.75-.62-9.99-.83-1.85-1.15-3.86-1.07-5.97,.06-1.71,1.03-5.11,.26-6.73-1.23-2.61-4.39-2.63-6.86-2.9-3.96-.44-4.06-2.13-6.31-5.15-1.28-1.72-2.15-2.61-4-3.48-4.34-2.05-6.4-.34-10.53,1.37-1.78,.74-3.96,1.3-5.99,.94-2.09-.37-3.95-1.58-6.25-1.02-4.79,1.16-5.11,5.88-8.27,8.69-1.84,1.63-4.46,1.65-6.44,2.79-1.8,1.05-3.83,3.19-4.81,5-2.43,4.46,.44,8.44,1.18,12.85,.64,3.83-1.8,7.51-.8,11.3,.98,3.7,4.71,4.69,6.68,7.54,1.19,1.74,1.16,3.96,2.44,5.79,1.17,1.68,2.55,2.84,4.55,3.69,3.78,1.6,8.08-.13,12.22,.24,4.46,.4,7.91,1.48,12.47,.24,3.88-1.05,6.28-4.21,9.98-5.67,4.09-1.62,8.67-2.69,9.42-7.6,.31-2.01-.27-4.17,.06-6.18,.33-2.07,1.66-3.78,2.68-5.74Z"/></g><g><path class="cls-1" d="M52.98,14.53c-3.52-3.7-9.29-5.74-13.87-6.7-5.41-1.13-12.24-.71-17.19,1.04-4.17,1.04-9.5,5.03-11.9,7.62-4.1,4.44-4.75,9.1-5.3,15.24-1.02,11.35,9.7,24.07,21.88,25.05,11.58,.93,25.84-3.2,29.69-14.58,2.72-8.04,3.07-20.96-3.32-27.68Z"/><g><path class="cls-5" d="M43.8,41.43c-8.71-1.93-18.61-2.57-27.61-1.76-2.81,.25-6.75,.33-9.83,1.53,1.23,2.92,3.08,5.68,5.36,8.05,2.15-.29,4.31-.42,6.49-.54,5.76-.31,11.56-.72,17.32-.25,4.41,.36,10.39,.21,14.64,2.27,2.05-1.62,3.76-3.57,5-5.89-4.41-.94-9.56-3.01-11.36-3.4Z"/><path class="cls-5" d="M33.91,53.41c-6.23-.64-12.68-.31-17.04,.04,2.98,1.85,6.3,3.07,9.74,3.35,5.14,.41,10.81-.17,15.86-1.95-2.88-.68-6.31-1.2-8.56-1.44Z"/><path class="cls-5" d="M33.91,18.45c6.44,.57,12.99,.64,19.24,2.43,.63,.18,2.32,.66,3.95,1.32-.62-2.21-1.53-4.26-2.78-6.03-2.48-1.37-4.97-2.95-7.46-3.33-14.6-2.25-22.9-2-30.71-1.28-2.48,1.57-4.77,3.48-6.12,4.94-.75,.81-1.38,1.63-1.91,2.46,2.9-.34,5.8-.71,8.6-.71,5.96,0,11.37-.32,17.2,.2Z"/><path class="cls-5" d="M4.67,33.93c.23-.04,.44-.08,.62-.11,4.57-.65,9.18-1.24,13.79-1.45,6.5-.3,13.25-.72,19.75-.26,5.05,.36,10.14,1.8,14.92,3.26,1.28,.39,2.63,.8,3.88,1.36,.39-2.41,.58-4.98,.49-7.54h0c-3.65-.87-12.5-4.17-18.75-4.95-6.07-.76-18.47-.39-29.43,1.3-1.33,.21-2.91,.5-4.57,.87-.29,1.66-.47,3.43-.64,5.33-.07,.73-.08,1.46-.05,2.19Z"/></g><path class="cls-9" d="M52.98,14.53c-1.43-1.5-3.23-2.73-5.17-3.72,1.71,6.49,.96,14.21-.89,19.68-3.85,11.38-18.11,15.52-29.69,14.58-3.93-.32-7.71-1.86-11-4.19,3.31,8.16,11.45,15.19,20.37,15.91,11.58,.93,25.84-3.2,29.69-14.58,2.72-8.04,3.07-20.96-3.32-27.68Z"/><path class="cls-7" d="M27.74,10.7s-7.64,.17-13.02,9.38c-5.38,9.2-2.95,16.15-.35,16.67,2.6,.52,1.91-8.16,5.73-13.02,3.82-4.86,10.17-6.63,11.34-9.22,1.17-2.59-.22-4.33-3.7-3.81Z"/></g><path class="cls-8" d="M58.12,29.19h0c-.08-2.39-.41-4.76-1.03-6.99h0s-.01-.03-.02-.05c-.61-2.19-1.52-4.22-2.76-5.97,0,0,0,0,0,0h0c-.41-.58-.85-1.13-1.34-1.64-.2-.21-.41-.41-.62-.61-.08-.07-.16-.14-.24-.21-.14-.12-.27-.24-.42-.36-.1-.09-.21-.17-.32-.26-.12-.09-.24-.19-.36-.28-.13-.1-.25-.19-.38-.29-.08-.06-.17-.12-.26-.18-.81-.56-1.67-1.07-2.56-1.53,0,0,0,0-.01,0h0c-2.84-1.45-5.98-2.41-8.7-2.98-5.41-1.13-12.24-.71-17.19,1.04-2.1,.53-4.5,1.8-6.67,3.27-.06,.04-.12,.09-.19,.13-.22,.15-.45,.31-.66,.46-.09,.07-.18,.14-.28,.2-.18,.13-.36,.27-.54,.4-.1,.08-.2,.15-.3,.23-.16,.13-.32,.25-.48,.38-.1,.08-.2,.16-.3,.24-.15,.12-.3,.25-.44,.37-.09,.08-.19,.16-.28,.24-.14,.12-.28,.25-.41,.37-.08,.08-.17,.15-.25,.22-.14,.13-.27,.26-.4,.38-.06,.06-.13,.12-.19,.19-.19,.18-.36,.36-.52,.54-.23,.24-.44,.49-.64,.74-.07,.09-.14,.17-.21,.26-.13,.16-.26,.33-.38,.49-.07,.1-.15,.19-.22,.29-.16,.22-.32,.45-.46,.68h0c-1.71,2.64-2.47,5.44-2.93,8.62-.02,.11-.03,.23-.05,.35-.04,.29-.08,.58-.11,.87-.02,.13-.03,.27-.05,.4-.03,.3-.07,.6-.1,.91-.01,.12-.02,.24-.04,.35-.04,.42-.08,.84-.12,1.28-.03,.36-.05,.73-.06,1.09,0,0,0,.02,0,.03,0,.36,0,.71,0,1.07h0c.09,2.44,.69,4.9,1.69,7.26h0s0,0,0,0c.39,.91,.84,1.81,1.34,2.69t0,0c.55,.97,1.17,1.9,1.85,2.8,.02,.02,.03,.04,.05,.07,.48,.63,.99,1.25,1.52,1.84,.04,.05,.09,.1,.13,.15,.16,.17,.31,.34,.47,.5,0,0,0,0,0,0h0s.01,.01,.02,.02c.05,.06,.11,.11,.17,.17,.33,.34,.67,.67,1.02,.99,.03,.03,.06,.06,.1,.09,.15,.14,.31,.28,.47,.41,.1,.09,.2,.17,.3,.26,.15,.13,.3,.25,.45,.38,.12,.1,.25,.2,.38,.3,.22,.17,.45,.34,.67,.51,.16,.12,.31,.23,.47,.34,.13,.09,.27,.18,.41,.27,.16,.11,.32,.21,.48,.31,.07,.05,.14,.1,.22,.14h0s0,0,0,0c.05,.03,.11,.06,.16,.1,.27,.16,.54,.33,.82,.48,.04,.02,.08,.04,.12,.07,.06,.03,.13,.07,.19,.1,.2,.11,.4,.22,.61,.32,.1,.05,.2,.1,.3,.15,.06,.03,.11,.06,.17,.09,.17,.08,.35,.16,.52,.24,.1,.04,.19,.09,.29,.13,.07,.03,.14,.06,.21,.09,.08,.03,.16,.06,.24,.1,.16,.06,.32,.13,.47,.19,.09,.03,.17,.06,.26,.09,.07,.02,.13,.05,.2,.07,.06,.02,.12,.04,.18,.07,.11,.04,.23,.08,.34,.11,.11,.03,.21,.07,.32,.1,.14,.04,.28,.09,.42,.13,.08,.02,.17,.05,.25,.07,.05,.01,.09,.03,.14,.04,.06,.02,.12,.03,.18,.05,.23,.06,.46,.11,.7,.16,.04,0,.08,.02,.12,.03,.06,.01,.11,.02,.17,.03,.09,.02,.18,.03,.27,.05,.22,.04,.45,.08,.67,.12,.07,.01,.13,.02,.2,.03,.07,0,.13,.02,.2,.03,.34,.05,.68,.09,1.02,.11,.59,.05,1.19,.08,1.8,.1,.08,0,.15,0,.23,0,.58,.02,1.17,.02,1.76,.01,.09,0,.18,0,.27,0,.6-.01,1.2-.04,1.79-.08,.07,0,.14,0,.21-.02,.63-.04,1.26-.1,1.89-.18h0c1.33-.16,2.65-.38,3.95-.67,.03,0,.07-.02,.1-.02,.63-.14,1.26-.3,1.88-.48,.03,0,.07-.02,.1-.03,.63-.18,1.25-.38,1.87-.59h0c2.82-.99,5.45-2.35,7.69-4.12h0c1.53-1.21,2.87-2.61,3.97-4.21,0,0,0,0,.01-.02,.18-.26,.35-.53,.52-.8,0,0,0-.01,0-.02,.17-.28,.33-.56,.48-.84,0,0,0,0,0,0h0c.44-.83,.83-1.7,1.14-2.62,1.24-3.67,1.99-8.37,1.82-13.02h0Z"/></g><path class="cls-6" d="M58.12,29.19h0c-.08-2.39-.41-4.76-1.03-6.99h0s-.01-.03-.02-.05c-.61-2.19-1.52-4.22-2.76-5.97,0,0,0,0,0,0h0c-.41-.58-.85-1.13-1.34-1.64-.2-.21-.41-.41-.62-.61-.08-.07-.16-.14-.24-.21-.14-.12-.27-.24-.42-.36-.1-.09-.21-.17-.32-.26-.12-.09-.24-.19-.36-.28-.13-.1-.25-.19-.38-.29-.08-.06-.17-.12-.26-.18-.81-.56-1.67-1.07-2.56-1.53,0,0,0,0-.01,0h0c-2.84-1.45-5.98-2.41-8.7-2.98-5.41-1.13-12.24-.71-17.19,1.04-2.1,.53-4.5,1.8-6.67,3.27-.06,.04-.12,.09-.19,.13-.22,.15-.45,.31-.66,.46-.09,.07-.18,.14-.28,.2-.18,.13-.36,.27-.54,.4-.1,.08-.2,.15-.3,.23-.16,.13-.32,.25-.48,.38-.1,.08-.2,.16-.3,.24-.15,.12-.3,.25-.44,.37-.09,.08-.19,.16-.28,.24-.14,.12-.28,.25-.41,.37-.08,.08-.17,.15-.25,.22-.14,.13-.27,.26-.4,.38-.06,.06-.13,.12-.19,.19-.19,.18-.36,.36-.52,.54-.23,.24-.44,.49-.64,.74-.07,.09-.14,.17-.21,.26-.13,.16-.26,.33-.38,.49-.07,.1-.15,.19-.22,.29-.16,.22-.32,.45-.46,.68h0c-1.71,2.64-2.47,5.44-2.93,8.62-.02,.11-.03,.23-.05,.35-.04,.29-.08,.58-.11,.87-.02,.13-.03,.27-.05,.4-.03,.3-.07,.6-.1,.91-.01,.12-.02,.24-.04,.35-.04,.42-.08,.84-.12,1.28-.03,.36-.05,.73-.06,1.09,0,0,0,.02,0,.03,0,.36,0,.71,0,1.07h0c.09,2.44,.69,4.9,1.69,7.26h0s0,0,0,0c.39,.91,.84,1.81,1.34,2.69t0,0c.55,.97,1.17,1.9,1.85,2.8,.02,.02,.03,.04,.05,.07,.48,.63,.99,1.25,1.52,1.84,.04,.05,.09,.1,.13,.15,.16,.17,.31,.34,.47,.5,0,0,0,0,0,0h0s.01,.01,.02,.02c.05,.06,.11,.11,.17,.17,.33,.34,.67,.67,1.02,.99,.03,.03,.06,.06,.1,.09,.15,.14,.31,.28,.47,.41,.1,.09,.2,.17,.3,.26,.15,.13,.3,.25,.45,.38,.12,.1,.25,.2,.38,.3,.22,.17,.45,.34,.67,.51,.16,.12,.31,.23,.47,.34,.13,.09,.27,.18,.41,.27,.16,.11,.32,.21,.48,.31,.07,.05,.14,.1,.22,.14h0s0,0,0,0c.05,.03,.11,.06,.16,.1,.27,.16,.54,.33,.82,.48,.04,.02,.08,.04,.12,.07,.06,.03,.13,.07,.19,.1,.2,.11,.4,.22,.61,.32,.1,.05,.2,.1,.3,.15,.06,.03,.11,.06,.17,.09,.17,.08,.35,.16,.52,.24,.1,.04,.19,.09,.29,.13,.07,.03,.14,.06,.21,.09,.08,.03,.16,.06,.24,.1,.16,.06,.32,.13,.47,.19,.09,.03,.17,.06,.26,.09,.07,.02,.13,.05,.2,.07,.06,.02,.12,.04,.18,.07,.11,.04,.23,.08,.34,.11,.11,.03,.21,.07,.32,.1,.14,.04,.28,.09,.42,.13,.08,.02,.17,.05,.25,.07,.05,.01,.09,.03,.14,.04,.06,.02,.12,.03,.18,.05,.23,.06,.46,.11,.7,.16,.04,0,.08,.02,.12,.03,.06,.01,.11,.02,.17,.03,.09,.02,.18,.03,.27,.05,.22,.04,.45,.08,.67,.12,.07,.01,.13,.02,.2,.03,.07,0,.13,.02,.2,.03,.34,.05,.68,.09,1.02,.11,.59,.05,1.19,.08,1.8,.1,.08,0,.15,0,.23,0,.58,.02,1.17,.02,1.76,.01,.09,0,.18,0,.27,0,.6-.01,1.2-.04,1.79-.08,.07,0,.14,0,.21-.02,.63-.04,1.26-.1,1.89-.18h0c1.33-.16,2.65-.38,3.95-.67,.03,0,.07-.02,.1-.02,.63-.14,1.26-.3,1.88-.48,.03,0,.07-.02,.1-.03,.63-.18,1.25-.38,1.87-.59h0c2.82-.99,5.45-2.35,7.69-4.12h0c1.53-1.21,2.87-2.61,3.97-4.21,0,0,0,0,.01-.02,.18-.26,.35-.53,.52-.8,0,0,0-.01,0-.02,.17-.28,.33-.56,.48-.84,0,0,0,0,0,0h0c.44-.83,.83-1.7,1.14-2.62,1.24-3.67,1.99-8.37,1.82-13.02h0Z"/></g></g></g></g></svg>