<?xml version="1.0" encoding="UTF-8"?><svg xmlns="http://www.w3.org/2000/svg" xmlns:xlink="http://www.w3.org/1999/xlink" viewBox="0 0 55.7 37.39"><defs><style>.cls-1{fill:#f78d2b;}.cls-2{fill:#f15a29;}.cls-3{fill:#e36e28;}.cls-4{isolation:isolate;}.cls-5{fill:url(#linear-gradient-2);}.cls-5,.cls-6,.cls-7{mix-blend-mode:overlay;}.cls-5,.cls-7{opacity:.2;}.cls-8{fill:#c13b35;}.cls-9{fill:#d1d3d4;mix-blend-mode:multiply;opacity:.6;}.cls-6{fill:#fff;opacity:.5;}.cls-7{fill:url(#linear-gradient);}.cls-10{fill:#28293e;mix-blend-mode:screen;opacity:.4;}</style><linearGradient id="linear-gradient" x1="28.92" y1="5.51" x2="26.43" y2="39.5" gradientUnits="userSpaceOnUse"><stop offset="0" stop-color="#fff"/><stop offset=".66" stop-color="#f9b96c"/><stop offset="1" stop-color="#f7941e"/></linearGradient><linearGradient id="linear-gradient-2" x1="32.12" y1="30.65" x2="17.07" y2="-6.61" xlink:href="#linear-gradient"/></defs><g class="cls-4"><g id="Capa_2"><g id="Capa_2-2"><g><g><path class="cls-10" d="M20.57,1.49s-6.77,1.76-9.97,9.41c-3.19,7.65-1.8,16.42,3.47,21.76,5.93,6.01,20.36,5.97,26.03,1.76,5.88-4.36,8.53-10.24,7.89-18.08-.67-8.27-10.64-20.63-27.43-14.85Z"/><g><path class="cls-8" d="M14.72,30.35c2.3,2.46,6.06,3.83,9.05,4.46,3.53,.75,7.93,.74,11.16-.43,3-.75,6.25-3.62,7.82-5.35,2.67-2.96,3.1-6.06,3.46-10.16,.66-7.56-6.33-16.03-14.28-16.69-7.55-.62-16.86,2.13-19.37,9.72-1.78,5.36-2,13.97,2.17,18.44Z"/><g><path class="cls-2" d="M23.09,3.01c-.95,.26-1.87,.59-2.76,.97,4.14,.57,8.31,.91,12.51,.88,1.87-.01,3.74-.14,5.61-.32-.69-.45-1.4-.85-2.14-1.18-1.16,.08-2.32,.14-3.49,.16-3.26,.06-6.5-.14-9.73-.51Z"/><path class="cls-2" d="M28.23,8.19c4.58,.22,9.22-.04,13.82-.52-.4-.45-.82-.89-1.26-1.3-3.96,.34-7.93,.54-11.92,.49-3.84-.04-7.67-.52-11.45-1.27-.47,.32-.91,.67-1.34,1.04,4,.81,8.04,1.36,12.15,1.56Z"/><path class="cls-2" d="M26.31,11.85c6.12,.3,12.3,.41,18.38-.26-.21-.43-.45-.86-.7-1.28-5.87,.6-11.81,.46-17.71,.19-4.19-.19-8.33-.62-12.42-1.31-.26,.39-.49,.81-.7,1.24,4.33,.74,8.72,1.2,13.15,1.41Z"/><path class="cls-2" d="M45.93,15.09c-.1-.44-.21-.87-.35-1.3-11.07,1.93-22.41,1.6-33.4-.62-.11,.42-.21,.86-.31,1.31,11.21,2.27,22.77,2.59,34.06,.61Z"/><path class="cls-2" d="M46.19,19.08c0-.07,.01-.13,.02-.2,.03-.39,.04-.78,.04-1.17-11.52,2.1-23.33,1.75-34.76-.65-.05,.45-.08,.9-.1,1.35,11.45,2.38,23.27,2.72,34.81,.67Z"/><path class="cls-2" d="M11.44,21.8c.04,.47,.1,.94,.17,1.41,11.13,2.16,22.64,2.41,33.86,.75,.12-.46,.22-.92,.3-1.4-11.37,1.75-23.05,1.49-34.33-.75Z"/><path class="cls-2" d="M27.63,27.44c-5.03-.18-10.24-.26-15.26-1.14,.17,.49,.37,.96,.59,1.41,4.21,.65,8.52,.81,12.78,.99,5.73,.25,11.48,.32,17.21,.1,.4-.46,.74-.92,1.04-1.39-5.45,.24-10.91,.21-16.36,.02Z"/><path class="cls-2" d="M40.59,31.12c-3.93,.38-7.88,.54-11.83,.6-2.73,.04-5.47,.15-8.17-.34-2.1-.38-4.16-1-6.24-1.47,.12,.15,.25,.3,.38,.44,.49,.53,1.06,1,1.66,1.44,1.3,.33,2.59,.66,3.9,.92,2.62,.52,5.27,.42,7.92,.39,3.45-.04,6.91-.16,10.36-.43,.72-.48,1.41-1.01,2.03-1.54Z"/></g><path class="cls-9" d="M39.01,4.92c.85,2.05,1.26,4.22,1.08,6.32-.36,4.09-.78,7.2-3.46,10.16-1.56,1.73-4.81,4.59-7.82,5.34-3.23,1.17-7.63,1.18-11.16,.43-1.76-.38-3.79-1.01-5.63-1.96,.53,1.97,1.4,3.76,2.7,5.14,2.3,2.46,6.06,3.83,9.05,4.46,3.53,.75,7.93,.74,11.16-.43,3-.75,6.25-3.62,7.82-5.35,2.67-2.96,3.1-6.06,3.46-10.16,.45-5.15-2.65-10.73-7.19-13.96Z"/><path class="cls-6" d="M25.22,5.07s-4.98,.11-8.5,6.12c-3.51,6.01-1.93,10.54-.23,10.88,1.7,.34,1.25-5.32,3.74-8.5,2.49-3.17,6.64-4.32,7.4-6.01,.76-1.69-.15-2.82-2.41-2.48Z"/><path class="cls-1" d="M45.01,12.28c.4,.91,.71,1.85,.92,2.8,2.86,1.06,4.34,2.23,4.44,3.03,.13,1.05-.53,2.71-4.5,3.86-3.11,.9-8.25,1.49-16.64,1.23-8.03-.25-14.03-1.23-17.85-2.48-5.28-1.72-6.41-3.95-2.99-5.47,1.04-.46,2.26-.84,3.58-1.15,.17-.77,.37-1.5,.6-2.18,.08-.25,.17-.49,.27-.72-3.27,.65-6.55,1.63-9.23,3.09C-3.38,18.1-.24,24.82,13.31,28.4c3.57,.94,7.86,1.67,12.88,2.06,6.37,.5,11.39,.36,15.33-.18,10.97-1.52,13.67-6.16,14.15-8.82,.42-2.35-2.83-6.55-10.66-9.18Z"/><path class="cls-3" d="M41.52,29.09c-3.95,.55-8.96,.69-15.33,.18-5.02-.4-9.31-1.12-12.88-2.07C4.94,25,.54,21.59,.05,18.4c-.55,3.5,3.83,7.51,13.26,10,3.57,.94,7.86,1.67,12.88,2.06,6.37,.5,11.39,.36,15.33-.18,10.97-1.52,13.67-6.16,14.15-8.82,.06-.31,.04-.66-.03-1.03-.55,2.68-3.36,7.17-14.12,8.66Z"/></g><path class="cls-7" d="M55.7,20.97s0,0,0-.01c0-.17-.03-.34-.07-.53h0c-.5-2.41-3.84-5.87-10.63-8.16-.05-.11-.1-.23-.16-.34-.04-.08-.07-.15-.11-.23-.09-.18-.17-.36-.27-.53-.04-.07-.08-.15-.12-.22-.06-.12-.13-.23-.2-.35-.05-.09-.1-.17-.15-.26-.08-.13-.16-.26-.24-.38-.08-.12-.15-.24-.23-.35-.07-.1-.13-.2-.2-.29-.07-.09-.13-.19-.2-.28-.06-.09-.13-.18-.2-.27-.11-.15-.23-.3-.35-.45-.06-.08-.12-.15-.19-.23-.08-.1-.16-.19-.24-.29-.06-.07-.11-.13-.17-.2-.15-.17-.31-.34-.47-.5-.05-.05-.1-.11-.15-.16-.1-.1-.19-.19-.29-.29-.05-.05-.1-.1-.16-.15-.19-.18-.39-.37-.6-.54-.03-.03-.06-.05-.09-.08-.11-.09-.22-.18-.33-.27-.05-.04-.1-.08-.15-.12-.57-.45-1.16-.87-1.78-1.24-.03-.02-.07-.04-.1-.06-.14-.09-.29-.17-.44-.25-.06-.03-.12-.07-.19-.1-.13-.07-.26-.14-.39-.21-.18-.09-.37-.18-.56-.27h0c-1.39-.63-2.87-1.04-4.38-1.16-2.85-.24-5.95,.01-8.84,.82h0s-.05,.02-.08,.02c-.21,.06-.42,.12-.63,.19-.01,0-.02,0-.03,.01-.22,.07-.44,.14-.66,.22-.03,0-.05,.02-.08,.03-.2,.07-.4,.15-.6,.22-.05,.02-.11,.05-.16,.07-.17,.07-.34,.14-.51,.21,0,0,0,0,0,0h0c-1.29,.56-2.51,1.26-3.58,2.11,0,0-.01,0-.02,.01-.22,.17-.44,.35-.65,.53,0,0,0,0,0,0h0c-1.03,.91-1.9,1.96-2.59,3.16,0,0,0,0,0,0-.12,.2-.23,.41-.33,.63,0,0,0,0,0,0h0c-.12,.24-.23,.49-.34,.75h0c-3.27,.65-6.55,1.63-9.23,3.09C1.47,15.44,.29,16.87,.05,18.4H.05c-.02,.1-.03,.2-.03,.3,0,.03,0,.05,0,.07-.02,.3,0,.6,.06,.91,0,.03,.01,.06,.02,.09,.06,.3,.15,.6,.28,.9,.02,.04,.03,.08,.05,.12,.04,.09,.09,.18,.13,.27,.02,.04,.05,.08,.07,.12,.09,.16,.18,.31,.28,.46,.03,.05,.07,.1,.1,.15,.06,.08,.12,.16,.18,.24,.05,.06,.09,.12,.14,.18,.09,.11,.19,.22,.29,.33,.08,.08,.15,.16,.23,.25,.07,.07,.14,.14,.21,.21,.07,.07,.15,.14,.23,.22,.07,.07,.14,.13,.22,.19,.14,.12,.29,.24,.44,.36,.07,.06,.15,.11,.22,.17,.11,.08,.22,.17,.34,.25,.08,.06,.16,.11,.24,.17,.18,.12,.36,.24,.54,.36,.06,.04,.13,.08,.19,.12,.16,.1,.32,.2,.49,.29,.08,.05,.16,.09,.25,.14,.18,.1,.37,.21,.57,.31,.05,.03,.1,.05,.15,.08,.24,.12,.49,.25,.74,.37,.08,.04,.17,.08,.25,.12,.21,.1,.42,.19,.64,.29,.07,.03,.14,.06,.21,.09,.28,.12,.57,.24,.86,.35,.08,.03,.16,.06,.23,.09,.24,.09,.49,.19,.74,.28,.08,.03,.17,.06,.25,.09,.32,.11,.65,.22,.98,.33,.06,.02,.12,.04,.17,.05,.29,.09,.59,.18,.89,.27,.1,.03,.19,.06,.29,.09,.36,.1,.73,.21,1.1,.31,.03,.06,.07,.11,.1,.17,.03,.06,.07,.11,.1,.17,.08,.13,.17,.27,.25,.39,.04,.06,.08,.12,.13,.19,.09,.13,.18,.25,.28,.37,.04,.05,.08,.11,.12,.16,.02,.02,.03,.04,.04,.06h0s0,0,0,0c.12,.15,.25,.29,.38,.44,.13,.14,.27,.28,.41,.41,.08,.08,.16,.15,.25,.22,.06,.05,.11,.1,.17,.15,.11,.1,.23,.19,.35,.29,.02,.02,.04,.03,.07,.05,2.27,1.77,5.31,2.81,7.81,3.34,3.53,.75,7.93,.74,11.16-.43,1.21-.3,2.46-.95,3.62-1.73h0s0,0,0,0c.36-.24,.71-.49,1.04-.75,0,0,0,0,0,0,.17-.13,.33-.26,.49-.38,0,0,.01,0,.02-.01,.51-.41,.98-.82,1.4-1.22h0c10.97-1.52,13.67-6.16,14.15-8.82,.01-.08,.02-.16,.03-.24,0-.01,0-.02,0-.03,0-.07,0-.15,0-.22Zm-5.33-2.87c.13,1.05-.53,2.71-4.5,3.86h0c.15-.97,.25-1.99,.34-3.08,.02-.21,.03-.42,.04-.63,0-.06,0-.11,0-.17,0-.19,0-.38,0-.58,0-.02,0-.04,0-.06,0-.21-.02-.42-.04-.63,0-.06-.01-.11-.02-.17-.02-.18-.04-.36-.06-.53,0-.04-.01-.08-.02-.12-.03-.21-.07-.41-.11-.62-.01-.06-.02-.12-.04-.17,0-.04-.02-.08-.03-.12,2.86,1.06,4.34,2.23,4.43,3.02ZM12.23,12.97s0,0,0,0c0,0,0,0,0,0Zm.14-.47s.01-.05,.02-.07c0,.02-.01,.05-.02,.07Zm-3.99,2.74c1.04-.46,2.26-.84,3.58-1.15h0c-.3,1.35-.5,2.82-.58,4.32h0c-.04,.76-.04,1.53-.01,2.3-5.28-1.72-6.41-3.95-2.99-5.47Z"/></g><path class="cls-5" d="M55.7,20.97s0,0,0-.01c0-.17-.03-.34-.07-.53h0c-.5-2.41-3.84-5.87-10.63-8.16-.05-.11-.1-.23-.16-.34-.04-.08-.07-.15-.11-.23-.09-.18-.17-.36-.27-.53-.04-.07-.08-.15-.12-.22-.06-.12-.13-.23-.2-.35-.05-.09-.1-.17-.15-.26-.08-.13-.16-.26-.24-.38-.08-.12-.15-.24-.23-.35-.07-.1-.13-.2-.2-.29-.07-.09-.13-.19-.2-.28-.06-.09-.13-.18-.2-.27-.11-.15-.23-.3-.35-.45-.06-.08-.12-.15-.19-.23-.08-.1-.16-.19-.24-.29-.06-.07-.11-.13-.17-.2-.15-.17-.31-.34-.47-.5-.05-.05-.1-.11-.15-.16-.1-.1-.19-.19-.29-.29-.05-.05-.1-.1-.16-.15-.19-.18-.39-.37-.6-.54-.03-.03-.06-.05-.09-.08-.11-.09-.22-.18-.33-.27-.05-.04-.1-.08-.15-.12-.57-.45-1.16-.87-1.78-1.24-.03-.02-.07-.04-.1-.06-.14-.09-.29-.17-.44-.25-.06-.03-.12-.07-.19-.1-.13-.07-.26-.14-.39-.21-.18-.09-.37-.18-.56-.27h0c-1.39-.63-2.87-1.04-4.38-1.16-2.85-.24-5.95,.01-8.84,.82h0s-.05,.02-.08,.02c-.21,.06-.42,.12-.63,.19-.01,0-.02,0-.03,.01-.22,.07-.44,.14-.66,.22-.03,0-.05,.02-.08,.03-.2,.07-.4,.15-.6,.22-.05,.02-.11,.05-.16,.07-.17,.07-.34,.14-.51,.21,0,0,0,0,0,0h0c-1.29,.56-2.51,1.26-3.58,2.11,0,0-.01,0-.02,.01-.22,.17-.44,.35-.65,.53,0,0,0,0,0,0h0c-1.03,.91-1.9,1.96-2.59,3.16,0,0,0,0,0,0-.12,.2-.23,.41-.33,.63,0,0,0,0,0,0h0c-.12,.24-.23,.49-.34,.75h0c-3.27,.65-6.55,1.63-9.23,3.09C1.47,15.44,.29,16.87,.05,18.4H.05c-.02,.1-.03,.2-.03,.3,0,.03,0,.05,0,.07-.02,.3,0,.6,.06,.91,0,.03,.01,.06,.02,.09,.06,.3,.15,.6,.28,.9,.02,.04,.03,.08,.05,.12,.04,.09,.09,.18,.13,.27,.02,.04,.05,.08,.07,.12,.09,.16,.18,.31,.28,.46,.03,.05,.07,.1,.1,.15,.06,.08,.12,.16,.18,.24,.05,.06,.09,.12,.14,.18,.09,.11,.19,.22,.29,.33,.08,.08,.15,.16,.23,.25,.07,.07,.14,.14,.21,.21,.07,.07,.15,.14,.23,.22,.07,.07,.14,.13,.22,.19,.14,.12,.29,.24,.44,.36,.07,.06,.15,.11,.22,.17,.11,.08,.22,.17,.34,.25,.08,.06,.16,.11,.24,.17,.18,.12,.36,.24,.54,.36,.06,.04,.13,.08,.19,.12,.16,.1,.32,.2,.49,.29,.08,.05,.16,.09,.25,.14,.18,.1,.37,.21,.57,.31,.05,.03,.1,.05,.15,.08,.24,.12,.49,.25,.74,.37,.08,.04,.17,.08,.25,.12,.21,.1,.42,.19,.64,.29,.07,.03,.14,.06,.21,.09,.28,.12,.57,.24,.86,.35,.08,.03,.16,.06,.23,.09,.24,.09,.49,.19,.74,.28,.08,.03,.17,.06,.25,.09,.32,.11,.65,.22,.98,.33,.06,.02,.12,.04,.17,.05,.29,.09,.59,.18,.89,.27,.1,.03,.19,.06,.29,.09,.36,.1,.73,.21,1.1,.31,.03,.06,.07,.11,.1,.17,.03,.06,.07,.11,.1,.17,.08,.13,.17,.27,.25,.39,.04,.06,.08,.12,.13,.19,.09,.13,.18,.25,.28,.37,.04,.05,.08,.11,.12,.16,.02,.02,.03,.04,.04,.06h0s0,0,0,0c.12,.15,.25,.29,.38,.44,.13,.14,.27,.28,.41,.41,.08,.08,.16,.15,.25,.22,.06,.05,.11,.1,.17,.15,.11,.1,.23,.19,.35,.29,.02,.02,.04,.03,.07,.05,2.27,1.77,5.31,2.81,7.81,3.34,3.53,.75,7.93,.74,11.16-.43,1.21-.3,2.46-.95,3.62-1.73h0s0,0,0,0c.36-.24,.71-.49,1.04-.75,0,0,0,0,0,0,.17-.13,.33-.26,.49-.38,0,0,.01,0,.02-.01,.51-.41,.98-.82,1.4-1.22h0c10.97-1.52,13.67-6.16,14.15-8.82,.01-.08,.02-.16,.03-.24,0-.01,0-.02,0-.03,0-.07,0-.15,0-.22Zm-5.33-2.87c.13,1.05-.53,2.71-4.5,3.86h0c.15-.97,.25-1.99,.34-3.08,.02-.21,.03-.42,.04-.63,0-.06,0-.11,0-.17,0-.19,0-.38,0-.58,0-.02,0-.04,0-.06,0-.21-.02-.42-.04-.63,0-.06-.01-.11-.02-.17-.02-.18-.04-.36-.06-.53,0-.04-.01-.08-.02-.12-.03-.21-.07-.41-.11-.62-.01-.06-.02-.12-.04-.17,0-.04-.02-.08-.03-.12,2.86,1.06,4.34,2.23,4.43,3.02ZM12.23,12.97s0,0,0,0c0,0,0,0,0,0Zm.14-.47s.01-.05,.02-.07c0,.02-.01,.05-.02,.07Zm-3.99,2.74c1.04-.46,2.26-.84,3.58-1.15h0c-.3,1.35-.5,2.82-.58,4.32h0c-.04,.76-.04,1.53-.01,2.3-5.28-1.72-6.41-3.95-2.99-5.47Z"/></g></g></g></g></svg>